G04 #@! TF.FileFunction,Copper,L1,Top,Signal*
%FSLAX46Y46*%
G04 Gerber Fmt 4.6, Leading zero omitted, Abs format (unit mm)*
G04 Created by KiCad (PCBNEW 4.0.2-stable) date 11/1/2017 4:44:35 PM*
%MOMM*%
G01*
G04 APERTURE LIST*
%ADD10C,0.100000*%
%ADD11C,2.300000*%
%ADD12O,1.600000X2.300000*%
%ADD13C,4.064000*%
%ADD14C,1.500000*%
%ADD15C,0.400000*%
%ADD16C,0.254000*%
G04 APERTURE END LIST*
D10*
D11*
X108451000Y-133282000D03*
X108451000Y-139632000D03*
X112641000Y-133282000D03*
X112641000Y-139632000D03*
X116831000Y-133282000D03*
X116831000Y-139632000D03*
X121021000Y-133282000D03*
X121021000Y-139632000D03*
X125211000Y-133282000D03*
X125211000Y-139632000D03*
X129401000Y-133282000D03*
X129401000Y-139632000D03*
X163451000Y-133282000D03*
X163451000Y-139632000D03*
X167641000Y-133282000D03*
X167641000Y-139632000D03*
X171831000Y-133282000D03*
X171831000Y-139632000D03*
X176021000Y-133282000D03*
X176021000Y-139632000D03*
X180211000Y-133282000D03*
X180211000Y-139632000D03*
X184401000Y-133282000D03*
X184401000Y-139632000D03*
D12*
X130132600Y-68322800D03*
X132672600Y-68322800D03*
X135212600Y-68322800D03*
X137752600Y-68322800D03*
X140292600Y-68322800D03*
X142832600Y-68322800D03*
X145372600Y-68322800D03*
X147912600Y-68322800D03*
X150452600Y-68322800D03*
X152992600Y-68322800D03*
X155532600Y-68322800D03*
X158072600Y-68322800D03*
X160612600Y-68322800D03*
X163152600Y-68322800D03*
X163152600Y-60702800D03*
X160612600Y-60702800D03*
X158072600Y-60702800D03*
X155532600Y-60702800D03*
X152992600Y-60702800D03*
X150452600Y-60702800D03*
X147912600Y-60702800D03*
X145372600Y-60702800D03*
X142832600Y-60702800D03*
X140292600Y-60702800D03*
X137752600Y-60702800D03*
X135212600Y-60702800D03*
X132672600Y-60702800D03*
X130132600Y-60702800D03*
D13*
X155279300Y-108322800D03*
D14*
X160092600Y-102227800D03*
X160092600Y-114417800D03*
X162632600Y-102227800D03*
X162632600Y-114417800D03*
X165172600Y-102227800D03*
X165172600Y-114417800D03*
D13*
X169985900Y-108322800D03*
D14*
X168642600Y-63832800D03*
X168642600Y-68012800D03*
X148092600Y-55592800D03*
X148082600Y-48282800D03*
X151382600Y-80302800D03*
X176242600Y-98012800D03*
X150202600Y-48222800D03*
X150012600Y-55682800D03*
D15*
X168642600Y-68012800D02*
X168642600Y-63832800D01*
X112641000Y-139632000D02*
X111831800Y-139632000D01*
X116831000Y-139632000D02*
X115811800Y-139632000D01*
X121021000Y-139632000D02*
X121021000Y-138961200D01*
X148092600Y-55592800D02*
X148092600Y-48792800D01*
X148082600Y-48782800D02*
X148082600Y-48282800D01*
X148092600Y-48792800D02*
X148082600Y-48782800D01*
X158532600Y-80302800D02*
X151382600Y-80302800D01*
X176242600Y-98012800D02*
X158532600Y-80302800D01*
X150202600Y-55492800D02*
X150202600Y-48222800D01*
X150012600Y-55682800D02*
X150202600Y-55492800D01*
D16*
G36*
X187304000Y-46649492D02*
X187304000Y-141680000D01*
X105558000Y-141680000D01*
X105558000Y-139924505D01*
X106973744Y-139924505D01*
X107198130Y-140467560D01*
X107613254Y-140883409D01*
X108155918Y-141108743D01*
X108743505Y-141109256D01*
X109286560Y-140884870D01*
X109702409Y-140469746D01*
X109927743Y-139927082D01*
X109927745Y-139924505D01*
X111163744Y-139924505D01*
X111388130Y-140467560D01*
X111803254Y-140883409D01*
X112345918Y-141108743D01*
X112933505Y-141109256D01*
X113476560Y-140884870D01*
X113892409Y-140469746D01*
X114117743Y-139927082D01*
X114118000Y-139632000D01*
X115284800Y-139632000D01*
X115324915Y-139833674D01*
X115353786Y-139876882D01*
X115353744Y-139924505D01*
X115578130Y-140467560D01*
X115993254Y-140883409D01*
X116535918Y-141108743D01*
X117123505Y-141109256D01*
X117666560Y-140884870D01*
X118082409Y-140469746D01*
X118307743Y-139927082D01*
X118307745Y-139924505D01*
X119543744Y-139924505D01*
X119768130Y-140467560D01*
X120183254Y-140883409D01*
X120725918Y-141108743D01*
X121313505Y-141109256D01*
X121856560Y-140884870D01*
X122272409Y-140469746D01*
X122497743Y-139927082D01*
X122497745Y-139924505D01*
X123733744Y-139924505D01*
X123958130Y-140467560D01*
X124373254Y-140883409D01*
X124915918Y-141108743D01*
X125503505Y-141109256D01*
X126046560Y-140884870D01*
X126462409Y-140469746D01*
X126687743Y-139927082D01*
X126687745Y-139924505D01*
X127923744Y-139924505D01*
X128148130Y-140467560D01*
X128563254Y-140883409D01*
X129105918Y-141108743D01*
X129693505Y-141109256D01*
X129860107Y-141040417D01*
X162570084Y-141040417D01*
X162705719Y-141292376D01*
X163397849Y-141451194D01*
X164098070Y-141333056D01*
X164196281Y-141292376D01*
X164331916Y-141040417D01*
X166760084Y-141040417D01*
X166895719Y-141292376D01*
X167587849Y-141451194D01*
X168288070Y-141333056D01*
X168386281Y-141292376D01*
X168521916Y-141040417D01*
X170950084Y-141040417D01*
X171085719Y-141292376D01*
X171777849Y-141451194D01*
X172478070Y-141333056D01*
X172576281Y-141292376D01*
X172711916Y-141040417D01*
X175140084Y-141040417D01*
X175275719Y-141292376D01*
X175967849Y-141451194D01*
X176668070Y-141333056D01*
X176766281Y-141292376D01*
X176901916Y-141040417D01*
X176021000Y-140159502D01*
X175140084Y-141040417D01*
X172711916Y-141040417D01*
X171831000Y-140159502D01*
X170950084Y-141040417D01*
X168521916Y-141040417D01*
X167641000Y-140159502D01*
X166760084Y-141040417D01*
X164331916Y-141040417D01*
X163451000Y-140159502D01*
X162570084Y-141040417D01*
X129860107Y-141040417D01*
X130236560Y-140884870D01*
X130652409Y-140469746D01*
X130877743Y-139927082D01*
X130878256Y-139339495D01*
X130653870Y-138796440D01*
X130238746Y-138380591D01*
X129696082Y-138155257D01*
X129108495Y-138154744D01*
X128565440Y-138379130D01*
X128149591Y-138794254D01*
X127924257Y-139336918D01*
X127923744Y-139924505D01*
X126687745Y-139924505D01*
X126688256Y-139339495D01*
X126463870Y-138796440D01*
X126048746Y-138380591D01*
X125506082Y-138155257D01*
X124918495Y-138154744D01*
X124375440Y-138379130D01*
X123959591Y-138794254D01*
X123734257Y-139336918D01*
X123733744Y-139924505D01*
X122497745Y-139924505D01*
X122498256Y-139339495D01*
X122273870Y-138796440D01*
X121858746Y-138380591D01*
X121316082Y-138155257D01*
X120728495Y-138154744D01*
X120185440Y-138379130D01*
X119769591Y-138794254D01*
X119544257Y-139336918D01*
X119543744Y-139924505D01*
X118307745Y-139924505D01*
X118308256Y-139339495D01*
X118083870Y-138796440D01*
X117668746Y-138380591D01*
X117126082Y-138155257D01*
X116538495Y-138154744D01*
X115995440Y-138379130D01*
X115579591Y-138794254D01*
X115354257Y-139336918D01*
X115354214Y-139386478D01*
X115324915Y-139430326D01*
X115284800Y-139632000D01*
X114118000Y-139632000D01*
X114118256Y-139339495D01*
X113893870Y-138796440D01*
X113478746Y-138380591D01*
X112936082Y-138155257D01*
X112348495Y-138154744D01*
X111805440Y-138379130D01*
X111389591Y-138794254D01*
X111164257Y-139336918D01*
X111163744Y-139924505D01*
X109927745Y-139924505D01*
X109928256Y-139339495D01*
X109703870Y-138796440D01*
X109288746Y-138380591D01*
X108746082Y-138155257D01*
X108158495Y-138154744D01*
X107615440Y-138379130D01*
X107199591Y-138794254D01*
X106974257Y-139336918D01*
X106973744Y-139924505D01*
X105558000Y-139924505D01*
X105558000Y-138053622D01*
X144503666Y-138053622D01*
X144796416Y-138762132D01*
X145338017Y-139304678D01*
X146046014Y-139598665D01*
X146812622Y-139599334D01*
X146862199Y-139578849D01*
X161631806Y-139578849D01*
X161749944Y-140279070D01*
X161790624Y-140377281D01*
X162042583Y-140512916D01*
X162923498Y-139632000D01*
X163978502Y-139632000D01*
X164859417Y-140512916D01*
X165111376Y-140377281D01*
X165270194Y-139685151D01*
X165252260Y-139578849D01*
X165821806Y-139578849D01*
X165939944Y-140279070D01*
X165980624Y-140377281D01*
X166232583Y-140512916D01*
X167113498Y-139632000D01*
X168168502Y-139632000D01*
X169049417Y-140512916D01*
X169301376Y-140377281D01*
X169460194Y-139685151D01*
X169442260Y-139578849D01*
X170011806Y-139578849D01*
X170129944Y-140279070D01*
X170170624Y-140377281D01*
X170422583Y-140512916D01*
X171303498Y-139632000D01*
X172358502Y-139632000D01*
X173239417Y-140512916D01*
X173491376Y-140377281D01*
X173650194Y-139685151D01*
X173632260Y-139578849D01*
X174201806Y-139578849D01*
X174319944Y-140279070D01*
X174360624Y-140377281D01*
X174612583Y-140512916D01*
X175493498Y-139632000D01*
X176548502Y-139632000D01*
X177429417Y-140512916D01*
X177681376Y-140377281D01*
X177785271Y-139924505D01*
X178733744Y-139924505D01*
X178958130Y-140467560D01*
X179373254Y-140883409D01*
X179915918Y-141108743D01*
X180503505Y-141109256D01*
X181046560Y-140884870D01*
X181462409Y-140469746D01*
X181687743Y-139927082D01*
X181687745Y-139924505D01*
X182923744Y-139924505D01*
X183148130Y-140467560D01*
X183563254Y-140883409D01*
X184105918Y-141108743D01*
X184693505Y-141109256D01*
X185236560Y-140884870D01*
X185652409Y-140469746D01*
X185877743Y-139927082D01*
X185878256Y-139339495D01*
X185653870Y-138796440D01*
X185238746Y-138380591D01*
X184696082Y-138155257D01*
X184108495Y-138154744D01*
X183565440Y-138379130D01*
X183149591Y-138794254D01*
X182924257Y-139336918D01*
X182923744Y-139924505D01*
X181687745Y-139924505D01*
X181688256Y-139339495D01*
X181463870Y-138796440D01*
X181048746Y-138380591D01*
X180506082Y-138155257D01*
X179918495Y-138154744D01*
X179375440Y-138379130D01*
X178959591Y-138794254D01*
X178734257Y-139336918D01*
X178733744Y-139924505D01*
X177785271Y-139924505D01*
X177840194Y-139685151D01*
X177722056Y-138984930D01*
X177681376Y-138886719D01*
X177429417Y-138751084D01*
X176548502Y-139632000D01*
X175493498Y-139632000D01*
X174612583Y-138751084D01*
X174360624Y-138886719D01*
X174201806Y-139578849D01*
X173632260Y-139578849D01*
X173532056Y-138984930D01*
X173491376Y-138886719D01*
X173239417Y-138751084D01*
X172358502Y-139632000D01*
X171303498Y-139632000D01*
X170422583Y-138751084D01*
X170170624Y-138886719D01*
X170011806Y-139578849D01*
X169442260Y-139578849D01*
X169342056Y-138984930D01*
X169301376Y-138886719D01*
X169049417Y-138751084D01*
X168168502Y-139632000D01*
X167113498Y-139632000D01*
X166232583Y-138751084D01*
X165980624Y-138886719D01*
X165821806Y-139578849D01*
X165252260Y-139578849D01*
X165152056Y-138984930D01*
X165111376Y-138886719D01*
X164859417Y-138751084D01*
X163978502Y-139632000D01*
X162923498Y-139632000D01*
X162042583Y-138751084D01*
X161790624Y-138886719D01*
X161631806Y-139578849D01*
X146862199Y-139578849D01*
X147521132Y-139306584D01*
X148063678Y-138764983D01*
X148288487Y-138223583D01*
X162570084Y-138223583D01*
X163451000Y-139104498D01*
X164331916Y-138223583D01*
X166760084Y-138223583D01*
X167641000Y-139104498D01*
X168521916Y-138223583D01*
X170950084Y-138223583D01*
X171831000Y-139104498D01*
X172711916Y-138223583D01*
X175140084Y-138223583D01*
X176021000Y-139104498D01*
X176901916Y-138223583D01*
X176766281Y-137971624D01*
X176074151Y-137812806D01*
X175373930Y-137930944D01*
X175275719Y-137971624D01*
X175140084Y-138223583D01*
X172711916Y-138223583D01*
X172576281Y-137971624D01*
X171884151Y-137812806D01*
X171183930Y-137930944D01*
X171085719Y-137971624D01*
X170950084Y-138223583D01*
X168521916Y-138223583D01*
X168386281Y-137971624D01*
X167694151Y-137812806D01*
X166993930Y-137930944D01*
X166895719Y-137971624D01*
X166760084Y-138223583D01*
X164331916Y-138223583D01*
X164196281Y-137971624D01*
X163504151Y-137812806D01*
X162803930Y-137930944D01*
X162705719Y-137971624D01*
X162570084Y-138223583D01*
X148288487Y-138223583D01*
X148357665Y-138056986D01*
X148358334Y-137290378D01*
X148065584Y-136581868D01*
X147523983Y-136039322D01*
X146815986Y-135745335D01*
X146049378Y-135744666D01*
X145340868Y-136037416D01*
X144798322Y-136579017D01*
X144504335Y-137287014D01*
X144503666Y-138053622D01*
X105558000Y-138053622D01*
X105558000Y-133574505D01*
X106973744Y-133574505D01*
X107198130Y-134117560D01*
X107613254Y-134533409D01*
X108155918Y-134758743D01*
X108743505Y-134759256D01*
X109286560Y-134534870D01*
X109702409Y-134119746D01*
X109927743Y-133577082D01*
X109927745Y-133574505D01*
X111163744Y-133574505D01*
X111388130Y-134117560D01*
X111803254Y-134533409D01*
X112345918Y-134758743D01*
X112933505Y-134759256D01*
X113476560Y-134534870D01*
X113892409Y-134119746D01*
X114117743Y-133577082D01*
X114117745Y-133574505D01*
X115353744Y-133574505D01*
X115578130Y-134117560D01*
X115993254Y-134533409D01*
X116535918Y-134758743D01*
X117123505Y-134759256D01*
X117666560Y-134534870D01*
X118082409Y-134119746D01*
X118307743Y-133577082D01*
X118307745Y-133574505D01*
X119543744Y-133574505D01*
X119768130Y-134117560D01*
X120183254Y-134533409D01*
X120725918Y-134758743D01*
X121313505Y-134759256D01*
X121856560Y-134534870D01*
X122272409Y-134119746D01*
X122497743Y-133577082D01*
X122497745Y-133574505D01*
X123733744Y-133574505D01*
X123958130Y-134117560D01*
X124373254Y-134533409D01*
X124915918Y-134758743D01*
X125503505Y-134759256D01*
X126046560Y-134534870D01*
X126462409Y-134119746D01*
X126687743Y-133577082D01*
X126687745Y-133574505D01*
X127923744Y-133574505D01*
X128148130Y-134117560D01*
X128563254Y-134533409D01*
X129105918Y-134758743D01*
X129693505Y-134759256D01*
X130236560Y-134534870D01*
X130652409Y-134119746D01*
X130877743Y-133577082D01*
X130877745Y-133574505D01*
X161973744Y-133574505D01*
X162198130Y-134117560D01*
X162613254Y-134533409D01*
X163155918Y-134758743D01*
X163743505Y-134759256D01*
X164286560Y-134534870D01*
X164702409Y-134119746D01*
X164927743Y-133577082D01*
X164927745Y-133574505D01*
X166163744Y-133574505D01*
X166388130Y-134117560D01*
X166803254Y-134533409D01*
X167345918Y-134758743D01*
X167933505Y-134759256D01*
X168476560Y-134534870D01*
X168892409Y-134119746D01*
X169117743Y-133577082D01*
X169117745Y-133574505D01*
X170353744Y-133574505D01*
X170578130Y-134117560D01*
X170993254Y-134533409D01*
X171535918Y-134758743D01*
X172123505Y-134759256D01*
X172666560Y-134534870D01*
X173082409Y-134119746D01*
X173307743Y-133577082D01*
X173307745Y-133574505D01*
X174543744Y-133574505D01*
X174768130Y-134117560D01*
X175183254Y-134533409D01*
X175725918Y-134758743D01*
X176313505Y-134759256D01*
X176856560Y-134534870D01*
X177272409Y-134119746D01*
X177497743Y-133577082D01*
X177497745Y-133574505D01*
X178733744Y-133574505D01*
X178958130Y-134117560D01*
X179373254Y-134533409D01*
X179915918Y-134758743D01*
X180503505Y-134759256D01*
X181046560Y-134534870D01*
X181462409Y-134119746D01*
X181687743Y-133577082D01*
X181687745Y-133574505D01*
X182923744Y-133574505D01*
X183148130Y-134117560D01*
X183563254Y-134533409D01*
X184105918Y-134758743D01*
X184693505Y-134759256D01*
X185236560Y-134534870D01*
X185652409Y-134119746D01*
X185877743Y-133577082D01*
X185878256Y-132989495D01*
X185653870Y-132446440D01*
X185238746Y-132030591D01*
X184696082Y-131805257D01*
X184108495Y-131804744D01*
X183565440Y-132029130D01*
X183149591Y-132444254D01*
X182924257Y-132986918D01*
X182923744Y-133574505D01*
X181687745Y-133574505D01*
X181688256Y-132989495D01*
X181463870Y-132446440D01*
X181048746Y-132030591D01*
X180506082Y-131805257D01*
X179918495Y-131804744D01*
X179375440Y-132029130D01*
X178959591Y-132444254D01*
X178734257Y-132986918D01*
X178733744Y-133574505D01*
X177497745Y-133574505D01*
X177498256Y-132989495D01*
X177273870Y-132446440D01*
X176858746Y-132030591D01*
X176316082Y-131805257D01*
X175728495Y-131804744D01*
X175185440Y-132029130D01*
X174769591Y-132444254D01*
X174544257Y-132986918D01*
X174543744Y-133574505D01*
X173307745Y-133574505D01*
X173308256Y-132989495D01*
X173083870Y-132446440D01*
X172668746Y-132030591D01*
X172126082Y-131805257D01*
X171538495Y-131804744D01*
X170995440Y-132029130D01*
X170579591Y-132444254D01*
X170354257Y-132986918D01*
X170353744Y-133574505D01*
X169117745Y-133574505D01*
X169118256Y-132989495D01*
X168893870Y-132446440D01*
X168478746Y-132030591D01*
X167936082Y-131805257D01*
X167348495Y-131804744D01*
X166805440Y-132029130D01*
X166389591Y-132444254D01*
X166164257Y-132986918D01*
X166163744Y-133574505D01*
X164927745Y-133574505D01*
X164928256Y-132989495D01*
X164703870Y-132446440D01*
X164288746Y-132030591D01*
X163746082Y-131805257D01*
X163158495Y-131804744D01*
X162615440Y-132029130D01*
X162199591Y-132444254D01*
X161974257Y-132986918D01*
X161973744Y-133574505D01*
X130877745Y-133574505D01*
X130878256Y-132989495D01*
X130653870Y-132446440D01*
X130238746Y-132030591D01*
X129696082Y-131805257D01*
X129108495Y-131804744D01*
X128565440Y-132029130D01*
X128149591Y-132444254D01*
X127924257Y-132986918D01*
X127923744Y-133574505D01*
X126687745Y-133574505D01*
X126688256Y-132989495D01*
X126463870Y-132446440D01*
X126048746Y-132030591D01*
X125506082Y-131805257D01*
X124918495Y-131804744D01*
X124375440Y-132029130D01*
X123959591Y-132444254D01*
X123734257Y-132986918D01*
X123733744Y-133574505D01*
X122497745Y-133574505D01*
X122498256Y-132989495D01*
X122273870Y-132446440D01*
X121858746Y-132030591D01*
X121316082Y-131805257D01*
X120728495Y-131804744D01*
X120185440Y-132029130D01*
X119769591Y-132444254D01*
X119544257Y-132986918D01*
X119543744Y-133574505D01*
X118307745Y-133574505D01*
X118308256Y-132989495D01*
X118083870Y-132446440D01*
X117668746Y-132030591D01*
X117126082Y-131805257D01*
X116538495Y-131804744D01*
X115995440Y-132029130D01*
X115579591Y-132444254D01*
X115354257Y-132986918D01*
X115353744Y-133574505D01*
X114117745Y-133574505D01*
X114118256Y-132989495D01*
X113893870Y-132446440D01*
X113478746Y-132030591D01*
X112936082Y-131805257D01*
X112348495Y-131804744D01*
X111805440Y-132029130D01*
X111389591Y-132444254D01*
X111164257Y-132986918D01*
X111163744Y-133574505D01*
X109927745Y-133574505D01*
X109928256Y-132989495D01*
X109703870Y-132446440D01*
X109288746Y-132030591D01*
X108746082Y-131805257D01*
X108158495Y-131804744D01*
X107615440Y-132029130D01*
X107199591Y-132444254D01*
X106974257Y-132986918D01*
X106973744Y-133574505D01*
X105558000Y-133574505D01*
X105558000Y-115527672D01*
X164590230Y-115527672D01*
X164673811Y-115738910D01*
X165217346Y-115829225D01*
X165671389Y-115738910D01*
X165754970Y-115527672D01*
X165172600Y-114945302D01*
X164590230Y-115527672D01*
X105558000Y-115527672D01*
X105558000Y-114631089D01*
X159015413Y-114631089D01*
X159179031Y-115027075D01*
X159481732Y-115330304D01*
X159877432Y-115494613D01*
X160305889Y-115494987D01*
X160701875Y-115331369D01*
X161005104Y-115028668D01*
X161169413Y-114632968D01*
X161169414Y-114631089D01*
X161555413Y-114631089D01*
X161719031Y-115027075D01*
X162021732Y-115330304D01*
X162417432Y-115494613D01*
X162845889Y-115494987D01*
X163241875Y-115331369D01*
X163545104Y-115028668D01*
X163709413Y-114632968D01*
X163709561Y-114462546D01*
X163761175Y-114462546D01*
X163851490Y-114916589D01*
X164062728Y-115000170D01*
X164645098Y-114417800D01*
X165700102Y-114417800D01*
X166282472Y-115000170D01*
X166493710Y-114916589D01*
X166584025Y-114373054D01*
X166493710Y-113919011D01*
X166282472Y-113835430D01*
X165700102Y-114417800D01*
X164645098Y-114417800D01*
X164062728Y-113835430D01*
X163851490Y-113919011D01*
X163761175Y-114462546D01*
X163709561Y-114462546D01*
X163709787Y-114204511D01*
X163546169Y-113808525D01*
X163243468Y-113505296D01*
X162847768Y-113340987D01*
X162419311Y-113340613D01*
X162023325Y-113504231D01*
X161720096Y-113806932D01*
X161555787Y-114202632D01*
X161555413Y-114631089D01*
X161169414Y-114631089D01*
X161169787Y-114204511D01*
X161006169Y-113808525D01*
X160703468Y-113505296D01*
X160307768Y-113340987D01*
X159879311Y-113340613D01*
X159483325Y-113504231D01*
X159180096Y-113806932D01*
X159015787Y-114202632D01*
X159015413Y-114631089D01*
X105558000Y-114631089D01*
X105558000Y-113307928D01*
X164590230Y-113307928D01*
X165172600Y-113890298D01*
X165754970Y-113307928D01*
X165671389Y-113096690D01*
X165127854Y-113006375D01*
X164673811Y-113096690D01*
X164590230Y-113307928D01*
X105558000Y-113307928D01*
X105558000Y-108789976D01*
X152919891Y-108789976D01*
X153278271Y-109657321D01*
X153941289Y-110321497D01*
X154808007Y-110681390D01*
X155746476Y-110682209D01*
X156613821Y-110323829D01*
X157277997Y-109660811D01*
X157637890Y-108794093D01*
X157637893Y-108789976D01*
X167626491Y-108789976D01*
X167984871Y-109657321D01*
X168647889Y-110321497D01*
X169514607Y-110681390D01*
X170453076Y-110682209D01*
X171320421Y-110323829D01*
X171984597Y-109660811D01*
X172344490Y-108794093D01*
X172345309Y-107855624D01*
X171986929Y-106988279D01*
X171323911Y-106324103D01*
X170457193Y-105964210D01*
X169518724Y-105963391D01*
X168651379Y-106321771D01*
X167987203Y-106984789D01*
X167627310Y-107851507D01*
X167626491Y-108789976D01*
X157637893Y-108789976D01*
X157638709Y-107855624D01*
X157280329Y-106988279D01*
X156617311Y-106324103D01*
X155750593Y-105964210D01*
X154812124Y-105963391D01*
X153944779Y-106321771D01*
X153280603Y-106984789D01*
X152920710Y-107851507D01*
X152919891Y-108789976D01*
X105558000Y-108789976D01*
X105558000Y-102441089D01*
X159015413Y-102441089D01*
X159179031Y-102837075D01*
X159481732Y-103140304D01*
X159877432Y-103304613D01*
X160305889Y-103304987D01*
X160701875Y-103141369D01*
X161005104Y-102838668D01*
X161169413Y-102442968D01*
X161169414Y-102441089D01*
X161555413Y-102441089D01*
X161719031Y-102837075D01*
X162021732Y-103140304D01*
X162417432Y-103304613D01*
X162845889Y-103304987D01*
X163241875Y-103141369D01*
X163545104Y-102838668D01*
X163709413Y-102442968D01*
X163709414Y-102441089D01*
X164095413Y-102441089D01*
X164259031Y-102837075D01*
X164561732Y-103140304D01*
X164957432Y-103304613D01*
X165385889Y-103304987D01*
X165781875Y-103141369D01*
X166085104Y-102838668D01*
X166249413Y-102442968D01*
X166249787Y-102014511D01*
X166086169Y-101618525D01*
X165783468Y-101315296D01*
X165387768Y-101150987D01*
X164959311Y-101150613D01*
X164563325Y-101314231D01*
X164260096Y-101616932D01*
X164095787Y-102012632D01*
X164095413Y-102441089D01*
X163709414Y-102441089D01*
X163709787Y-102014511D01*
X163546169Y-101618525D01*
X163243468Y-101315296D01*
X162847768Y-101150987D01*
X162419311Y-101150613D01*
X162023325Y-101314231D01*
X161720096Y-101616932D01*
X161555787Y-102012632D01*
X161555413Y-102441089D01*
X161169414Y-102441089D01*
X161169787Y-102014511D01*
X161006169Y-101618525D01*
X160703468Y-101315296D01*
X160307768Y-101150987D01*
X159879311Y-101150613D01*
X159483325Y-101314231D01*
X159180096Y-101616932D01*
X159015787Y-102012632D01*
X159015413Y-102441089D01*
X105558000Y-102441089D01*
X105558000Y-80516089D01*
X150305413Y-80516089D01*
X150469031Y-80912075D01*
X150771732Y-81215304D01*
X151167432Y-81379613D01*
X151595889Y-81379987D01*
X151991875Y-81216369D01*
X152295104Y-80913668D01*
X152329929Y-80829800D01*
X158314310Y-80829800D01*
X175199926Y-97715416D01*
X175165787Y-97797632D01*
X175165413Y-98226089D01*
X175329031Y-98622075D01*
X175631732Y-98925304D01*
X176027432Y-99089613D01*
X176455889Y-99089987D01*
X176851875Y-98926369D01*
X177155104Y-98623668D01*
X177319413Y-98227968D01*
X177319787Y-97799511D01*
X177156169Y-97403525D01*
X176853468Y-97100296D01*
X176457768Y-96935987D01*
X176029311Y-96935613D01*
X175945382Y-96970292D01*
X158905245Y-79930155D01*
X158734275Y-79815915D01*
X158532600Y-79775800D01*
X152330164Y-79775800D01*
X152296169Y-79693525D01*
X151993468Y-79390296D01*
X151597768Y-79225987D01*
X151169311Y-79225613D01*
X150773325Y-79389231D01*
X150470096Y-79691932D01*
X150305787Y-80087632D01*
X150305413Y-80516089D01*
X105558000Y-80516089D01*
X105558000Y-67943864D01*
X129005600Y-67943864D01*
X129005600Y-68701736D01*
X129091388Y-69133020D01*
X129335691Y-69498645D01*
X129701316Y-69742948D01*
X130132600Y-69828736D01*
X130563884Y-69742948D01*
X130929509Y-69498645D01*
X131173812Y-69133020D01*
X131259600Y-68701736D01*
X131259600Y-67943864D01*
X131545600Y-67943864D01*
X131545600Y-68701736D01*
X131631388Y-69133020D01*
X131875691Y-69498645D01*
X132241316Y-69742948D01*
X132672600Y-69828736D01*
X133103884Y-69742948D01*
X133469509Y-69498645D01*
X133713812Y-69133020D01*
X133799600Y-68701736D01*
X133799600Y-67943864D01*
X134085600Y-67943864D01*
X134085600Y-68701736D01*
X134171388Y-69133020D01*
X134415691Y-69498645D01*
X134781316Y-69742948D01*
X135212600Y-69828736D01*
X135643884Y-69742948D01*
X136009509Y-69498645D01*
X136253812Y-69133020D01*
X136339600Y-68701736D01*
X136339600Y-67943864D01*
X136625600Y-67943864D01*
X136625600Y-68701736D01*
X136711388Y-69133020D01*
X136955691Y-69498645D01*
X137321316Y-69742948D01*
X137752600Y-69828736D01*
X138183884Y-69742948D01*
X138549509Y-69498645D01*
X138793812Y-69133020D01*
X138879600Y-68701736D01*
X138879600Y-67943864D01*
X139165600Y-67943864D01*
X139165600Y-68701736D01*
X139251388Y-69133020D01*
X139495691Y-69498645D01*
X139861316Y-69742948D01*
X140292600Y-69828736D01*
X140723884Y-69742948D01*
X141089509Y-69498645D01*
X141333812Y-69133020D01*
X141419600Y-68701736D01*
X141419600Y-67943864D01*
X141705600Y-67943864D01*
X141705600Y-68701736D01*
X141791388Y-69133020D01*
X142035691Y-69498645D01*
X142401316Y-69742948D01*
X142832600Y-69828736D01*
X143263884Y-69742948D01*
X143629509Y-69498645D01*
X143873812Y-69133020D01*
X143959600Y-68701736D01*
X143959600Y-67943864D01*
X144245600Y-67943864D01*
X144245600Y-68701736D01*
X144331388Y-69133020D01*
X144575691Y-69498645D01*
X144941316Y-69742948D01*
X145372600Y-69828736D01*
X145803884Y-69742948D01*
X146169509Y-69498645D01*
X146413812Y-69133020D01*
X146499600Y-68701736D01*
X146499600Y-68695802D01*
X146639340Y-68695802D01*
X146501819Y-68919532D01*
X146703629Y-69440633D01*
X147089493Y-69844838D01*
X147327425Y-69983065D01*
X147539600Y-69893327D01*
X147539600Y-68695800D01*
X147519600Y-68695800D01*
X147519600Y-67949800D01*
X147539600Y-67949800D01*
X147539600Y-66752273D01*
X148285600Y-66752273D01*
X148285600Y-67949800D01*
X148305600Y-67949800D01*
X148305600Y-68695800D01*
X148285600Y-68695800D01*
X148285600Y-69893327D01*
X148497775Y-69983065D01*
X148735707Y-69844838D01*
X149121571Y-69440633D01*
X149323381Y-68919532D01*
X149185860Y-68695802D01*
X149325600Y-68695802D01*
X149325600Y-68701736D01*
X149411388Y-69133020D01*
X149655691Y-69498645D01*
X150021316Y-69742948D01*
X150452600Y-69828736D01*
X150883884Y-69742948D01*
X151249509Y-69498645D01*
X151493812Y-69133020D01*
X151579600Y-68701736D01*
X151579600Y-67943864D01*
X151865600Y-67943864D01*
X151865600Y-68701736D01*
X151951388Y-69133020D01*
X152195691Y-69498645D01*
X152561316Y-69742948D01*
X152992600Y-69828736D01*
X153423884Y-69742948D01*
X153789509Y-69498645D01*
X154033812Y-69133020D01*
X154119600Y-68701736D01*
X154119600Y-67943864D01*
X154405600Y-67943864D01*
X154405600Y-68701736D01*
X154491388Y-69133020D01*
X154735691Y-69498645D01*
X155101316Y-69742948D01*
X155532600Y-69828736D01*
X155963884Y-69742948D01*
X156329509Y-69498645D01*
X156573812Y-69133020D01*
X156659600Y-68701736D01*
X156659600Y-67943864D01*
X156945600Y-67943864D01*
X156945600Y-68701736D01*
X157031388Y-69133020D01*
X157275691Y-69498645D01*
X157641316Y-69742948D01*
X158072600Y-69828736D01*
X158503884Y-69742948D01*
X158869509Y-69498645D01*
X159113812Y-69133020D01*
X159199600Y-68701736D01*
X159199600Y-67943864D01*
X159485600Y-67943864D01*
X159485600Y-68701736D01*
X159571388Y-69133020D01*
X159815691Y-69498645D01*
X160181316Y-69742948D01*
X160612600Y-69828736D01*
X161043884Y-69742948D01*
X161409509Y-69498645D01*
X161653812Y-69133020D01*
X161739600Y-68701736D01*
X161739600Y-67943864D01*
X162025600Y-67943864D01*
X162025600Y-68701736D01*
X162111388Y-69133020D01*
X162355691Y-69498645D01*
X162721316Y-69742948D01*
X163152600Y-69828736D01*
X163583884Y-69742948D01*
X163949509Y-69498645D01*
X164193812Y-69133020D01*
X164279600Y-68701736D01*
X164279600Y-67943864D01*
X164193812Y-67512580D01*
X163949509Y-67146955D01*
X163583884Y-66902652D01*
X163152600Y-66816864D01*
X162721316Y-66902652D01*
X162355691Y-67146955D01*
X162111388Y-67512580D01*
X162025600Y-67943864D01*
X161739600Y-67943864D01*
X161653812Y-67512580D01*
X161409509Y-67146955D01*
X161043884Y-66902652D01*
X160612600Y-66816864D01*
X160181316Y-66902652D01*
X159815691Y-67146955D01*
X159571388Y-67512580D01*
X159485600Y-67943864D01*
X159199600Y-67943864D01*
X159113812Y-67512580D01*
X158869509Y-67146955D01*
X158503884Y-66902652D01*
X158072600Y-66816864D01*
X157641316Y-66902652D01*
X157275691Y-67146955D01*
X157031388Y-67512580D01*
X156945600Y-67943864D01*
X156659600Y-67943864D01*
X156573812Y-67512580D01*
X156329509Y-67146955D01*
X155963884Y-66902652D01*
X155532600Y-66816864D01*
X155101316Y-66902652D01*
X154735691Y-67146955D01*
X154491388Y-67512580D01*
X154405600Y-67943864D01*
X154119600Y-67943864D01*
X154033812Y-67512580D01*
X153789509Y-67146955D01*
X153423884Y-66902652D01*
X152992600Y-66816864D01*
X152561316Y-66902652D01*
X152195691Y-67146955D01*
X151951388Y-67512580D01*
X151865600Y-67943864D01*
X151579600Y-67943864D01*
X151493812Y-67512580D01*
X151249509Y-67146955D01*
X150883884Y-66902652D01*
X150452600Y-66816864D01*
X150021316Y-66902652D01*
X149655691Y-67146955D01*
X149411388Y-67512580D01*
X149325600Y-67943864D01*
X149325600Y-67949798D01*
X149185860Y-67949798D01*
X149323381Y-67726068D01*
X149121571Y-67204967D01*
X148735707Y-66800762D01*
X148497775Y-66662535D01*
X148285600Y-66752273D01*
X147539600Y-66752273D01*
X147327425Y-66662535D01*
X147089493Y-66800762D01*
X146703629Y-67204967D01*
X146501819Y-67726068D01*
X146639340Y-67949798D01*
X146499600Y-67949798D01*
X146499600Y-67943864D01*
X146413812Y-67512580D01*
X146169509Y-67146955D01*
X145803884Y-66902652D01*
X145372600Y-66816864D01*
X144941316Y-66902652D01*
X144575691Y-67146955D01*
X144331388Y-67512580D01*
X144245600Y-67943864D01*
X143959600Y-67943864D01*
X143873812Y-67512580D01*
X143629509Y-67146955D01*
X143263884Y-66902652D01*
X142832600Y-66816864D01*
X142401316Y-66902652D01*
X142035691Y-67146955D01*
X141791388Y-67512580D01*
X141705600Y-67943864D01*
X141419600Y-67943864D01*
X141333812Y-67512580D01*
X141089509Y-67146955D01*
X140723884Y-66902652D01*
X140292600Y-66816864D01*
X139861316Y-66902652D01*
X139495691Y-67146955D01*
X139251388Y-67512580D01*
X139165600Y-67943864D01*
X138879600Y-67943864D01*
X138793812Y-67512580D01*
X138549509Y-67146955D01*
X138183884Y-66902652D01*
X137752600Y-66816864D01*
X137321316Y-66902652D01*
X136955691Y-67146955D01*
X136711388Y-67512580D01*
X136625600Y-67943864D01*
X136339600Y-67943864D01*
X136253812Y-67512580D01*
X136009509Y-67146955D01*
X135643884Y-66902652D01*
X135212600Y-66816864D01*
X134781316Y-66902652D01*
X134415691Y-67146955D01*
X134171388Y-67512580D01*
X134085600Y-67943864D01*
X133799600Y-67943864D01*
X133713812Y-67512580D01*
X133469509Y-67146955D01*
X133103884Y-66902652D01*
X132672600Y-66816864D01*
X132241316Y-66902652D01*
X131875691Y-67146955D01*
X131631388Y-67512580D01*
X131545600Y-67943864D01*
X131259600Y-67943864D01*
X131173812Y-67512580D01*
X130929509Y-67146955D01*
X130563884Y-66902652D01*
X130132600Y-66816864D01*
X129701316Y-66902652D01*
X129335691Y-67146955D01*
X129091388Y-67512580D01*
X129005600Y-67943864D01*
X105558000Y-67943864D01*
X105558000Y-64046089D01*
X167565413Y-64046089D01*
X167729031Y-64442075D01*
X168031732Y-64745304D01*
X168115600Y-64780129D01*
X168115600Y-67065236D01*
X168033325Y-67099231D01*
X167730096Y-67401932D01*
X167565787Y-67797632D01*
X167565413Y-68226089D01*
X167729031Y-68622075D01*
X168031732Y-68925304D01*
X168427432Y-69089613D01*
X168855889Y-69089987D01*
X169251875Y-68926369D01*
X169555104Y-68623668D01*
X169719413Y-68227968D01*
X169719787Y-67799511D01*
X169556169Y-67403525D01*
X169253468Y-67100296D01*
X169169600Y-67065471D01*
X169169600Y-64780364D01*
X169251875Y-64746369D01*
X169555104Y-64443668D01*
X169719413Y-64047968D01*
X169719787Y-63619511D01*
X169556169Y-63223525D01*
X169253468Y-62920296D01*
X168857768Y-62755987D01*
X168429311Y-62755613D01*
X168033325Y-62919231D01*
X167730096Y-63221932D01*
X167565787Y-63617632D01*
X167565413Y-64046089D01*
X105558000Y-64046089D01*
X105558000Y-60323864D01*
X129005600Y-60323864D01*
X129005600Y-61081736D01*
X129091388Y-61513020D01*
X129335691Y-61878645D01*
X129701316Y-62122948D01*
X130132600Y-62208736D01*
X130563884Y-62122948D01*
X130929509Y-61878645D01*
X131173812Y-61513020D01*
X131259600Y-61081736D01*
X131259600Y-60323864D01*
X131545600Y-60323864D01*
X131545600Y-61081736D01*
X131631388Y-61513020D01*
X131875691Y-61878645D01*
X132241316Y-62122948D01*
X132672600Y-62208736D01*
X133103884Y-62122948D01*
X133469509Y-61878645D01*
X133713812Y-61513020D01*
X133799600Y-61081736D01*
X133799600Y-60323864D01*
X134085600Y-60323864D01*
X134085600Y-61081736D01*
X134171388Y-61513020D01*
X134415691Y-61878645D01*
X134781316Y-62122948D01*
X135212600Y-62208736D01*
X135643884Y-62122948D01*
X136009509Y-61878645D01*
X136253812Y-61513020D01*
X136339600Y-61081736D01*
X136339600Y-60323864D01*
X136625600Y-60323864D01*
X136625600Y-61081736D01*
X136711388Y-61513020D01*
X136955691Y-61878645D01*
X137321316Y-62122948D01*
X137752600Y-62208736D01*
X138183884Y-62122948D01*
X138549509Y-61878645D01*
X138793812Y-61513020D01*
X138879600Y-61081736D01*
X138879600Y-60323864D01*
X139165600Y-60323864D01*
X139165600Y-61081736D01*
X139251388Y-61513020D01*
X139495691Y-61878645D01*
X139861316Y-62122948D01*
X140292600Y-62208736D01*
X140723884Y-62122948D01*
X141089509Y-61878645D01*
X141333812Y-61513020D01*
X141419600Y-61081736D01*
X141419600Y-60323864D01*
X141705600Y-60323864D01*
X141705600Y-61081736D01*
X141791388Y-61513020D01*
X142035691Y-61878645D01*
X142401316Y-62122948D01*
X142832600Y-62208736D01*
X143263884Y-62122948D01*
X143629509Y-61878645D01*
X143873812Y-61513020D01*
X143959600Y-61081736D01*
X143959600Y-61075802D01*
X144099340Y-61075802D01*
X143961819Y-61299532D01*
X144163629Y-61820633D01*
X144549493Y-62224838D01*
X144787425Y-62363065D01*
X144999600Y-62273327D01*
X144999600Y-61075800D01*
X144979600Y-61075800D01*
X144979600Y-60329800D01*
X144999600Y-60329800D01*
X144999600Y-59132273D01*
X145745600Y-59132273D01*
X145745600Y-60329800D01*
X145765600Y-60329800D01*
X145765600Y-61075800D01*
X145745600Y-61075800D01*
X145745600Y-62273327D01*
X145957775Y-62363065D01*
X146195707Y-62224838D01*
X146581571Y-61820633D01*
X146783381Y-61299532D01*
X146645860Y-61075802D01*
X146785600Y-61075802D01*
X146785600Y-61081736D01*
X146871388Y-61513020D01*
X147115691Y-61878645D01*
X147481316Y-62122948D01*
X147912600Y-62208736D01*
X148343884Y-62122948D01*
X148709509Y-61878645D01*
X148953812Y-61513020D01*
X149039600Y-61081736D01*
X149039600Y-60323864D01*
X149325600Y-60323864D01*
X149325600Y-61081736D01*
X149411388Y-61513020D01*
X149655691Y-61878645D01*
X150021316Y-62122948D01*
X150452600Y-62208736D01*
X150883884Y-62122948D01*
X151249509Y-61878645D01*
X151493812Y-61513020D01*
X151579600Y-61081736D01*
X151579600Y-60323864D01*
X151865600Y-60323864D01*
X151865600Y-61081736D01*
X151951388Y-61513020D01*
X152195691Y-61878645D01*
X152561316Y-62122948D01*
X152992600Y-62208736D01*
X153423884Y-62122948D01*
X153789509Y-61878645D01*
X154033812Y-61513020D01*
X154119600Y-61081736D01*
X154119600Y-60323864D01*
X154405600Y-60323864D01*
X154405600Y-61081736D01*
X154491388Y-61513020D01*
X154735691Y-61878645D01*
X155101316Y-62122948D01*
X155532600Y-62208736D01*
X155963884Y-62122948D01*
X156329509Y-61878645D01*
X156573812Y-61513020D01*
X156659600Y-61081736D01*
X156659600Y-60323864D01*
X156945600Y-60323864D01*
X156945600Y-61081736D01*
X157031388Y-61513020D01*
X157275691Y-61878645D01*
X157641316Y-62122948D01*
X158072600Y-62208736D01*
X158503884Y-62122948D01*
X158869509Y-61878645D01*
X159113812Y-61513020D01*
X159199600Y-61081736D01*
X159199600Y-60323864D01*
X159485600Y-60323864D01*
X159485600Y-61081736D01*
X159571388Y-61513020D01*
X159815691Y-61878645D01*
X160181316Y-62122948D01*
X160612600Y-62208736D01*
X161043884Y-62122948D01*
X161409509Y-61878645D01*
X161653812Y-61513020D01*
X161739600Y-61081736D01*
X161739600Y-60323864D01*
X162025600Y-60323864D01*
X162025600Y-61081736D01*
X162111388Y-61513020D01*
X162355691Y-61878645D01*
X162721316Y-62122948D01*
X163152600Y-62208736D01*
X163583884Y-62122948D01*
X163949509Y-61878645D01*
X164193812Y-61513020D01*
X164279600Y-61081736D01*
X164279600Y-60323864D01*
X164193812Y-59892580D01*
X163949509Y-59526955D01*
X163583884Y-59282652D01*
X163152600Y-59196864D01*
X162721316Y-59282652D01*
X162355691Y-59526955D01*
X162111388Y-59892580D01*
X162025600Y-60323864D01*
X161739600Y-60323864D01*
X161653812Y-59892580D01*
X161409509Y-59526955D01*
X161043884Y-59282652D01*
X160612600Y-59196864D01*
X160181316Y-59282652D01*
X159815691Y-59526955D01*
X159571388Y-59892580D01*
X159485600Y-60323864D01*
X159199600Y-60323864D01*
X159113812Y-59892580D01*
X158869509Y-59526955D01*
X158503884Y-59282652D01*
X158072600Y-59196864D01*
X157641316Y-59282652D01*
X157275691Y-59526955D01*
X157031388Y-59892580D01*
X156945600Y-60323864D01*
X156659600Y-60323864D01*
X156573812Y-59892580D01*
X156329509Y-59526955D01*
X155963884Y-59282652D01*
X155532600Y-59196864D01*
X155101316Y-59282652D01*
X154735691Y-59526955D01*
X154491388Y-59892580D01*
X154405600Y-60323864D01*
X154119600Y-60323864D01*
X154033812Y-59892580D01*
X153789509Y-59526955D01*
X153423884Y-59282652D01*
X152992600Y-59196864D01*
X152561316Y-59282652D01*
X152195691Y-59526955D01*
X151951388Y-59892580D01*
X151865600Y-60323864D01*
X151579600Y-60323864D01*
X151493812Y-59892580D01*
X151249509Y-59526955D01*
X150883884Y-59282652D01*
X150452600Y-59196864D01*
X150021316Y-59282652D01*
X149655691Y-59526955D01*
X149411388Y-59892580D01*
X149325600Y-60323864D01*
X149039600Y-60323864D01*
X148953812Y-59892580D01*
X148709509Y-59526955D01*
X148343884Y-59282652D01*
X147912600Y-59196864D01*
X147481316Y-59282652D01*
X147115691Y-59526955D01*
X146871388Y-59892580D01*
X146785600Y-60323864D01*
X146785600Y-60329798D01*
X146645860Y-60329798D01*
X146783381Y-60106068D01*
X146581571Y-59584967D01*
X146195707Y-59180762D01*
X145957775Y-59042535D01*
X145745600Y-59132273D01*
X144999600Y-59132273D01*
X144787425Y-59042535D01*
X144549493Y-59180762D01*
X144163629Y-59584967D01*
X143961819Y-60106068D01*
X144099340Y-60329798D01*
X143959600Y-60329798D01*
X143959600Y-60323864D01*
X143873812Y-59892580D01*
X143629509Y-59526955D01*
X143263884Y-59282652D01*
X142832600Y-59196864D01*
X142401316Y-59282652D01*
X142035691Y-59526955D01*
X141791388Y-59892580D01*
X141705600Y-60323864D01*
X141419600Y-60323864D01*
X141333812Y-59892580D01*
X141089509Y-59526955D01*
X140723884Y-59282652D01*
X140292600Y-59196864D01*
X139861316Y-59282652D01*
X139495691Y-59526955D01*
X139251388Y-59892580D01*
X139165600Y-60323864D01*
X138879600Y-60323864D01*
X138793812Y-59892580D01*
X138549509Y-59526955D01*
X138183884Y-59282652D01*
X137752600Y-59196864D01*
X137321316Y-59282652D01*
X136955691Y-59526955D01*
X136711388Y-59892580D01*
X136625600Y-60323864D01*
X136339600Y-60323864D01*
X136253812Y-59892580D01*
X136009509Y-59526955D01*
X135643884Y-59282652D01*
X135212600Y-59196864D01*
X134781316Y-59282652D01*
X134415691Y-59526955D01*
X134171388Y-59892580D01*
X134085600Y-60323864D01*
X133799600Y-60323864D01*
X133713812Y-59892580D01*
X133469509Y-59526955D01*
X133103884Y-59282652D01*
X132672600Y-59196864D01*
X132241316Y-59282652D01*
X131875691Y-59526955D01*
X131631388Y-59892580D01*
X131545600Y-60323864D01*
X131259600Y-60323864D01*
X131173812Y-59892580D01*
X130929509Y-59526955D01*
X130563884Y-59282652D01*
X130132600Y-59196864D01*
X129701316Y-59282652D01*
X129335691Y-59526955D01*
X129091388Y-59892580D01*
X129005600Y-60323864D01*
X105558000Y-60323864D01*
X105558000Y-48496089D01*
X147005413Y-48496089D01*
X147169031Y-48892075D01*
X147471732Y-49195304D01*
X147565600Y-49234281D01*
X147565600Y-54645236D01*
X147483325Y-54679231D01*
X147180096Y-54981932D01*
X147015787Y-55377632D01*
X147015413Y-55806089D01*
X147179031Y-56202075D01*
X147481732Y-56505304D01*
X147877432Y-56669613D01*
X148305889Y-56669987D01*
X148701875Y-56506369D01*
X149005104Y-56203668D01*
X149033874Y-56134383D01*
X149099031Y-56292075D01*
X149401732Y-56595304D01*
X149797432Y-56759613D01*
X150225889Y-56759987D01*
X150621875Y-56596369D01*
X150925104Y-56293668D01*
X151089413Y-55897968D01*
X151089787Y-55469511D01*
X150926169Y-55073525D01*
X150729600Y-54876613D01*
X150729600Y-49170364D01*
X150811875Y-49136369D01*
X151115104Y-48833668D01*
X151279413Y-48437968D01*
X151279787Y-48009511D01*
X151116169Y-47613525D01*
X150813468Y-47310296D01*
X150417768Y-47145987D01*
X149989311Y-47145613D01*
X149593325Y-47309231D01*
X149290096Y-47611932D01*
X149130013Y-47997454D01*
X148996169Y-47673525D01*
X148693468Y-47370296D01*
X148297768Y-47205987D01*
X147869311Y-47205613D01*
X147473325Y-47369231D01*
X147170096Y-47671932D01*
X147005787Y-48067632D01*
X147005413Y-48496089D01*
X105558000Y-48496089D01*
X105558000Y-46648514D01*
X111322514Y-40884000D01*
X181490462Y-40884000D01*
X187304000Y-46649492D01*
X187304000Y-46649492D01*
G37*
X187304000Y-46649492D02*
X187304000Y-141680000D01*
X105558000Y-141680000D01*
X105558000Y-139924505D01*
X106973744Y-139924505D01*
X107198130Y-140467560D01*
X107613254Y-140883409D01*
X108155918Y-141108743D01*
X108743505Y-141109256D01*
X109286560Y-140884870D01*
X109702409Y-140469746D01*
X109927743Y-139927082D01*
X109927745Y-139924505D01*
X111163744Y-139924505D01*
X111388130Y-140467560D01*
X111803254Y-140883409D01*
X112345918Y-141108743D01*
X112933505Y-141109256D01*
X113476560Y-140884870D01*
X113892409Y-140469746D01*
X114117743Y-139927082D01*
X114118000Y-139632000D01*
X115284800Y-139632000D01*
X115324915Y-139833674D01*
X115353786Y-139876882D01*
X115353744Y-139924505D01*
X115578130Y-140467560D01*
X115993254Y-140883409D01*
X116535918Y-141108743D01*
X117123505Y-141109256D01*
X117666560Y-140884870D01*
X118082409Y-140469746D01*
X118307743Y-139927082D01*
X118307745Y-139924505D01*
X119543744Y-139924505D01*
X119768130Y-140467560D01*
X120183254Y-140883409D01*
X120725918Y-141108743D01*
X121313505Y-141109256D01*
X121856560Y-140884870D01*
X122272409Y-140469746D01*
X122497743Y-139927082D01*
X122497745Y-139924505D01*
X123733744Y-139924505D01*
X123958130Y-140467560D01*
X124373254Y-140883409D01*
X124915918Y-141108743D01*
X125503505Y-141109256D01*
X126046560Y-140884870D01*
X126462409Y-140469746D01*
X126687743Y-139927082D01*
X126687745Y-139924505D01*
X127923744Y-139924505D01*
X128148130Y-140467560D01*
X128563254Y-140883409D01*
X129105918Y-141108743D01*
X129693505Y-141109256D01*
X129860107Y-141040417D01*
X162570084Y-141040417D01*
X162705719Y-141292376D01*
X163397849Y-141451194D01*
X164098070Y-141333056D01*
X164196281Y-141292376D01*
X164331916Y-141040417D01*
X166760084Y-141040417D01*
X166895719Y-141292376D01*
X167587849Y-141451194D01*
X168288070Y-141333056D01*
X168386281Y-141292376D01*
X168521916Y-141040417D01*
X170950084Y-141040417D01*
X171085719Y-141292376D01*
X171777849Y-141451194D01*
X172478070Y-141333056D01*
X172576281Y-141292376D01*
X172711916Y-141040417D01*
X175140084Y-141040417D01*
X175275719Y-141292376D01*
X175967849Y-141451194D01*
X176668070Y-141333056D01*
X176766281Y-141292376D01*
X176901916Y-141040417D01*
X176021000Y-140159502D01*
X175140084Y-141040417D01*
X172711916Y-141040417D01*
X171831000Y-140159502D01*
X170950084Y-141040417D01*
X168521916Y-141040417D01*
X167641000Y-140159502D01*
X166760084Y-141040417D01*
X164331916Y-141040417D01*
X163451000Y-140159502D01*
X162570084Y-141040417D01*
X129860107Y-141040417D01*
X130236560Y-140884870D01*
X130652409Y-140469746D01*
X130877743Y-139927082D01*
X130878256Y-139339495D01*
X130653870Y-138796440D01*
X130238746Y-138380591D01*
X129696082Y-138155257D01*
X129108495Y-138154744D01*
X128565440Y-138379130D01*
X128149591Y-138794254D01*
X127924257Y-139336918D01*
X127923744Y-139924505D01*
X126687745Y-139924505D01*
X126688256Y-139339495D01*
X126463870Y-138796440D01*
X126048746Y-138380591D01*
X125506082Y-138155257D01*
X124918495Y-138154744D01*
X124375440Y-138379130D01*
X123959591Y-138794254D01*
X123734257Y-139336918D01*
X123733744Y-139924505D01*
X122497745Y-139924505D01*
X122498256Y-139339495D01*
X122273870Y-138796440D01*
X121858746Y-138380591D01*
X121316082Y-138155257D01*
X120728495Y-138154744D01*
X120185440Y-138379130D01*
X119769591Y-138794254D01*
X119544257Y-139336918D01*
X119543744Y-139924505D01*
X118307745Y-139924505D01*
X118308256Y-139339495D01*
X118083870Y-138796440D01*
X117668746Y-138380591D01*
X117126082Y-138155257D01*
X116538495Y-138154744D01*
X115995440Y-138379130D01*
X115579591Y-138794254D01*
X115354257Y-139336918D01*
X115354214Y-139386478D01*
X115324915Y-139430326D01*
X115284800Y-139632000D01*
X114118000Y-139632000D01*
X114118256Y-139339495D01*
X113893870Y-138796440D01*
X113478746Y-138380591D01*
X112936082Y-138155257D01*
X112348495Y-138154744D01*
X111805440Y-138379130D01*
X111389591Y-138794254D01*
X111164257Y-139336918D01*
X111163744Y-139924505D01*
X109927745Y-139924505D01*
X109928256Y-139339495D01*
X109703870Y-138796440D01*
X109288746Y-138380591D01*
X108746082Y-138155257D01*
X108158495Y-138154744D01*
X107615440Y-138379130D01*
X107199591Y-138794254D01*
X106974257Y-139336918D01*
X106973744Y-139924505D01*
X105558000Y-139924505D01*
X105558000Y-138053622D01*
X144503666Y-138053622D01*
X144796416Y-138762132D01*
X145338017Y-139304678D01*
X146046014Y-139598665D01*
X146812622Y-139599334D01*
X146862199Y-139578849D01*
X161631806Y-139578849D01*
X161749944Y-140279070D01*
X161790624Y-140377281D01*
X162042583Y-140512916D01*
X162923498Y-139632000D01*
X163978502Y-139632000D01*
X164859417Y-140512916D01*
X165111376Y-140377281D01*
X165270194Y-139685151D01*
X165252260Y-139578849D01*
X165821806Y-139578849D01*
X165939944Y-140279070D01*
X165980624Y-140377281D01*
X166232583Y-140512916D01*
X167113498Y-139632000D01*
X168168502Y-139632000D01*
X169049417Y-140512916D01*
X169301376Y-140377281D01*
X169460194Y-139685151D01*
X169442260Y-139578849D01*
X170011806Y-139578849D01*
X170129944Y-140279070D01*
X170170624Y-140377281D01*
X170422583Y-140512916D01*
X171303498Y-139632000D01*
X172358502Y-139632000D01*
X173239417Y-140512916D01*
X173491376Y-140377281D01*
X173650194Y-139685151D01*
X173632260Y-139578849D01*
X174201806Y-139578849D01*
X174319944Y-140279070D01*
X174360624Y-140377281D01*
X174612583Y-140512916D01*
X175493498Y-139632000D01*
X176548502Y-139632000D01*
X177429417Y-140512916D01*
X177681376Y-140377281D01*
X177785271Y-139924505D01*
X178733744Y-139924505D01*
X178958130Y-140467560D01*
X179373254Y-140883409D01*
X179915918Y-141108743D01*
X180503505Y-141109256D01*
X181046560Y-140884870D01*
X181462409Y-140469746D01*
X181687743Y-139927082D01*
X181687745Y-139924505D01*
X182923744Y-139924505D01*
X183148130Y-140467560D01*
X183563254Y-140883409D01*
X184105918Y-141108743D01*
X184693505Y-141109256D01*
X185236560Y-140884870D01*
X185652409Y-140469746D01*
X185877743Y-139927082D01*
X185878256Y-139339495D01*
X185653870Y-138796440D01*
X185238746Y-138380591D01*
X184696082Y-138155257D01*
X184108495Y-138154744D01*
X183565440Y-138379130D01*
X183149591Y-138794254D01*
X182924257Y-139336918D01*
X182923744Y-139924505D01*
X181687745Y-139924505D01*
X181688256Y-139339495D01*
X181463870Y-138796440D01*
X181048746Y-138380591D01*
X180506082Y-138155257D01*
X179918495Y-138154744D01*
X179375440Y-138379130D01*
X178959591Y-138794254D01*
X178734257Y-139336918D01*
X178733744Y-139924505D01*
X177785271Y-139924505D01*
X177840194Y-139685151D01*
X177722056Y-138984930D01*
X177681376Y-138886719D01*
X177429417Y-138751084D01*
X176548502Y-139632000D01*
X175493498Y-139632000D01*
X174612583Y-138751084D01*
X174360624Y-138886719D01*
X174201806Y-139578849D01*
X173632260Y-139578849D01*
X173532056Y-138984930D01*
X173491376Y-138886719D01*
X173239417Y-138751084D01*
X172358502Y-139632000D01*
X171303498Y-139632000D01*
X170422583Y-138751084D01*
X170170624Y-138886719D01*
X170011806Y-139578849D01*
X169442260Y-139578849D01*
X169342056Y-138984930D01*
X169301376Y-138886719D01*
X169049417Y-138751084D01*
X168168502Y-139632000D01*
X167113498Y-139632000D01*
X166232583Y-138751084D01*
X165980624Y-138886719D01*
X165821806Y-139578849D01*
X165252260Y-139578849D01*
X165152056Y-138984930D01*
X165111376Y-138886719D01*
X164859417Y-138751084D01*
X163978502Y-139632000D01*
X162923498Y-139632000D01*
X162042583Y-138751084D01*
X161790624Y-138886719D01*
X161631806Y-139578849D01*
X146862199Y-139578849D01*
X147521132Y-139306584D01*
X148063678Y-138764983D01*
X148288487Y-138223583D01*
X162570084Y-138223583D01*
X163451000Y-139104498D01*
X164331916Y-138223583D01*
X166760084Y-138223583D01*
X167641000Y-139104498D01*
X168521916Y-138223583D01*
X170950084Y-138223583D01*
X171831000Y-139104498D01*
X172711916Y-138223583D01*
X175140084Y-138223583D01*
X176021000Y-139104498D01*
X176901916Y-138223583D01*
X176766281Y-137971624D01*
X176074151Y-137812806D01*
X175373930Y-137930944D01*
X175275719Y-137971624D01*
X175140084Y-138223583D01*
X172711916Y-138223583D01*
X172576281Y-137971624D01*
X171884151Y-137812806D01*
X171183930Y-137930944D01*
X171085719Y-137971624D01*
X170950084Y-138223583D01*
X168521916Y-138223583D01*
X168386281Y-137971624D01*
X167694151Y-137812806D01*
X166993930Y-137930944D01*
X166895719Y-137971624D01*
X166760084Y-138223583D01*
X164331916Y-138223583D01*
X164196281Y-137971624D01*
X163504151Y-137812806D01*
X162803930Y-137930944D01*
X162705719Y-137971624D01*
X162570084Y-138223583D01*
X148288487Y-138223583D01*
X148357665Y-138056986D01*
X148358334Y-137290378D01*
X148065584Y-136581868D01*
X147523983Y-136039322D01*
X146815986Y-135745335D01*
X146049378Y-135744666D01*
X145340868Y-136037416D01*
X144798322Y-136579017D01*
X144504335Y-137287014D01*
X144503666Y-138053622D01*
X105558000Y-138053622D01*
X105558000Y-133574505D01*
X106973744Y-133574505D01*
X107198130Y-134117560D01*
X107613254Y-134533409D01*
X108155918Y-134758743D01*
X108743505Y-134759256D01*
X109286560Y-134534870D01*
X109702409Y-134119746D01*
X109927743Y-133577082D01*
X109927745Y-133574505D01*
X111163744Y-133574505D01*
X111388130Y-134117560D01*
X111803254Y-134533409D01*
X112345918Y-134758743D01*
X112933505Y-134759256D01*
X113476560Y-134534870D01*
X113892409Y-134119746D01*
X114117743Y-133577082D01*
X114117745Y-133574505D01*
X115353744Y-133574505D01*
X115578130Y-134117560D01*
X115993254Y-134533409D01*
X116535918Y-134758743D01*
X117123505Y-134759256D01*
X117666560Y-134534870D01*
X118082409Y-134119746D01*
X118307743Y-133577082D01*
X118307745Y-133574505D01*
X119543744Y-133574505D01*
X119768130Y-134117560D01*
X120183254Y-134533409D01*
X120725918Y-134758743D01*
X121313505Y-134759256D01*
X121856560Y-134534870D01*
X122272409Y-134119746D01*
X122497743Y-133577082D01*
X122497745Y-133574505D01*
X123733744Y-133574505D01*
X123958130Y-134117560D01*
X124373254Y-134533409D01*
X124915918Y-134758743D01*
X125503505Y-134759256D01*
X126046560Y-134534870D01*
X126462409Y-134119746D01*
X126687743Y-133577082D01*
X126687745Y-133574505D01*
X127923744Y-133574505D01*
X128148130Y-134117560D01*
X128563254Y-134533409D01*
X129105918Y-134758743D01*
X129693505Y-134759256D01*
X130236560Y-134534870D01*
X130652409Y-134119746D01*
X130877743Y-133577082D01*
X130877745Y-133574505D01*
X161973744Y-133574505D01*
X162198130Y-134117560D01*
X162613254Y-134533409D01*
X163155918Y-134758743D01*
X163743505Y-134759256D01*
X164286560Y-134534870D01*
X164702409Y-134119746D01*
X164927743Y-133577082D01*
X164927745Y-133574505D01*
X166163744Y-133574505D01*
X166388130Y-134117560D01*
X166803254Y-134533409D01*
X167345918Y-134758743D01*
X167933505Y-134759256D01*
X168476560Y-134534870D01*
X168892409Y-134119746D01*
X169117743Y-133577082D01*
X169117745Y-133574505D01*
X170353744Y-133574505D01*
X170578130Y-134117560D01*
X170993254Y-134533409D01*
X171535918Y-134758743D01*
X172123505Y-134759256D01*
X172666560Y-134534870D01*
X173082409Y-134119746D01*
X173307743Y-133577082D01*
X173307745Y-133574505D01*
X174543744Y-133574505D01*
X174768130Y-134117560D01*
X175183254Y-134533409D01*
X175725918Y-134758743D01*
X176313505Y-134759256D01*
X176856560Y-134534870D01*
X177272409Y-134119746D01*
X177497743Y-133577082D01*
X177497745Y-133574505D01*
X178733744Y-133574505D01*
X178958130Y-134117560D01*
X179373254Y-134533409D01*
X179915918Y-134758743D01*
X180503505Y-134759256D01*
X181046560Y-134534870D01*
X181462409Y-134119746D01*
X181687743Y-133577082D01*
X181687745Y-133574505D01*
X182923744Y-133574505D01*
X183148130Y-134117560D01*
X183563254Y-134533409D01*
X184105918Y-134758743D01*
X184693505Y-134759256D01*
X185236560Y-134534870D01*
X185652409Y-134119746D01*
X185877743Y-133577082D01*
X185878256Y-132989495D01*
X185653870Y-132446440D01*
X185238746Y-132030591D01*
X184696082Y-131805257D01*
X184108495Y-131804744D01*
X183565440Y-132029130D01*
X183149591Y-132444254D01*
X182924257Y-132986918D01*
X182923744Y-133574505D01*
X181687745Y-133574505D01*
X181688256Y-132989495D01*
X181463870Y-132446440D01*
X181048746Y-132030591D01*
X180506082Y-131805257D01*
X179918495Y-131804744D01*
X179375440Y-132029130D01*
X178959591Y-132444254D01*
X178734257Y-132986918D01*
X178733744Y-133574505D01*
X177497745Y-133574505D01*
X177498256Y-132989495D01*
X177273870Y-132446440D01*
X176858746Y-132030591D01*
X176316082Y-131805257D01*
X175728495Y-131804744D01*
X175185440Y-132029130D01*
X174769591Y-132444254D01*
X174544257Y-132986918D01*
X174543744Y-133574505D01*
X173307745Y-133574505D01*
X173308256Y-132989495D01*
X173083870Y-132446440D01*
X172668746Y-132030591D01*
X172126082Y-131805257D01*
X171538495Y-131804744D01*
X170995440Y-132029130D01*
X170579591Y-132444254D01*
X170354257Y-132986918D01*
X170353744Y-133574505D01*
X169117745Y-133574505D01*
X169118256Y-132989495D01*
X168893870Y-132446440D01*
X168478746Y-132030591D01*
X167936082Y-131805257D01*
X167348495Y-131804744D01*
X166805440Y-132029130D01*
X166389591Y-132444254D01*
X166164257Y-132986918D01*
X166163744Y-133574505D01*
X164927745Y-133574505D01*
X164928256Y-132989495D01*
X164703870Y-132446440D01*
X164288746Y-132030591D01*
X163746082Y-131805257D01*
X163158495Y-131804744D01*
X162615440Y-132029130D01*
X162199591Y-132444254D01*
X161974257Y-132986918D01*
X161973744Y-133574505D01*
X130877745Y-133574505D01*
X130878256Y-132989495D01*
X130653870Y-132446440D01*
X130238746Y-132030591D01*
X129696082Y-131805257D01*
X129108495Y-131804744D01*
X128565440Y-132029130D01*
X128149591Y-132444254D01*
X127924257Y-132986918D01*
X127923744Y-133574505D01*
X126687745Y-133574505D01*
X126688256Y-132989495D01*
X126463870Y-132446440D01*
X126048746Y-132030591D01*
X125506082Y-131805257D01*
X124918495Y-131804744D01*
X124375440Y-132029130D01*
X123959591Y-132444254D01*
X123734257Y-132986918D01*
X123733744Y-133574505D01*
X122497745Y-133574505D01*
X122498256Y-132989495D01*
X122273870Y-132446440D01*
X121858746Y-132030591D01*
X121316082Y-131805257D01*
X120728495Y-131804744D01*
X120185440Y-132029130D01*
X119769591Y-132444254D01*
X119544257Y-132986918D01*
X119543744Y-133574505D01*
X118307745Y-133574505D01*
X118308256Y-132989495D01*
X118083870Y-132446440D01*
X117668746Y-132030591D01*
X117126082Y-131805257D01*
X116538495Y-131804744D01*
X115995440Y-132029130D01*
X115579591Y-132444254D01*
X115354257Y-132986918D01*
X115353744Y-133574505D01*
X114117745Y-133574505D01*
X114118256Y-132989495D01*
X113893870Y-132446440D01*
X113478746Y-132030591D01*
X112936082Y-131805257D01*
X112348495Y-131804744D01*
X111805440Y-132029130D01*
X111389591Y-132444254D01*
X111164257Y-132986918D01*
X111163744Y-133574505D01*
X109927745Y-133574505D01*
X109928256Y-132989495D01*
X109703870Y-132446440D01*
X109288746Y-132030591D01*
X108746082Y-131805257D01*
X108158495Y-131804744D01*
X107615440Y-132029130D01*
X107199591Y-132444254D01*
X106974257Y-132986918D01*
X106973744Y-133574505D01*
X105558000Y-133574505D01*
X105558000Y-115527672D01*
X164590230Y-115527672D01*
X164673811Y-115738910D01*
X165217346Y-115829225D01*
X165671389Y-115738910D01*
X165754970Y-115527672D01*
X165172600Y-114945302D01*
X164590230Y-115527672D01*
X105558000Y-115527672D01*
X105558000Y-114631089D01*
X159015413Y-114631089D01*
X159179031Y-115027075D01*
X159481732Y-115330304D01*
X159877432Y-115494613D01*
X160305889Y-115494987D01*
X160701875Y-115331369D01*
X161005104Y-115028668D01*
X161169413Y-114632968D01*
X161169414Y-114631089D01*
X161555413Y-114631089D01*
X161719031Y-115027075D01*
X162021732Y-115330304D01*
X162417432Y-115494613D01*
X162845889Y-115494987D01*
X163241875Y-115331369D01*
X163545104Y-115028668D01*
X163709413Y-114632968D01*
X163709561Y-114462546D01*
X163761175Y-114462546D01*
X163851490Y-114916589D01*
X164062728Y-115000170D01*
X164645098Y-114417800D01*
X165700102Y-114417800D01*
X166282472Y-115000170D01*
X166493710Y-114916589D01*
X166584025Y-114373054D01*
X166493710Y-113919011D01*
X166282472Y-113835430D01*
X165700102Y-114417800D01*
X164645098Y-114417800D01*
X164062728Y-113835430D01*
X163851490Y-113919011D01*
X163761175Y-114462546D01*
X163709561Y-114462546D01*
X163709787Y-114204511D01*
X163546169Y-113808525D01*
X163243468Y-113505296D01*
X162847768Y-113340987D01*
X162419311Y-113340613D01*
X162023325Y-113504231D01*
X161720096Y-113806932D01*
X161555787Y-114202632D01*
X161555413Y-114631089D01*
X161169414Y-114631089D01*
X161169787Y-114204511D01*
X161006169Y-113808525D01*
X160703468Y-113505296D01*
X160307768Y-113340987D01*
X159879311Y-113340613D01*
X159483325Y-113504231D01*
X159180096Y-113806932D01*
X159015787Y-114202632D01*
X159015413Y-114631089D01*
X105558000Y-114631089D01*
X105558000Y-113307928D01*
X164590230Y-113307928D01*
X165172600Y-113890298D01*
X165754970Y-113307928D01*
X165671389Y-113096690D01*
X165127854Y-113006375D01*
X164673811Y-113096690D01*
X164590230Y-113307928D01*
X105558000Y-113307928D01*
X105558000Y-108789976D01*
X152919891Y-108789976D01*
X153278271Y-109657321D01*
X153941289Y-110321497D01*
X154808007Y-110681390D01*
X155746476Y-110682209D01*
X156613821Y-110323829D01*
X157277997Y-109660811D01*
X157637890Y-108794093D01*
X157637893Y-108789976D01*
X167626491Y-108789976D01*
X167984871Y-109657321D01*
X168647889Y-110321497D01*
X169514607Y-110681390D01*
X170453076Y-110682209D01*
X171320421Y-110323829D01*
X171984597Y-109660811D01*
X172344490Y-108794093D01*
X172345309Y-107855624D01*
X171986929Y-106988279D01*
X171323911Y-106324103D01*
X170457193Y-105964210D01*
X169518724Y-105963391D01*
X168651379Y-106321771D01*
X167987203Y-106984789D01*
X167627310Y-107851507D01*
X167626491Y-108789976D01*
X157637893Y-108789976D01*
X157638709Y-107855624D01*
X157280329Y-106988279D01*
X156617311Y-106324103D01*
X155750593Y-105964210D01*
X154812124Y-105963391D01*
X153944779Y-106321771D01*
X153280603Y-106984789D01*
X152920710Y-107851507D01*
X152919891Y-108789976D01*
X105558000Y-108789976D01*
X105558000Y-102441089D01*
X159015413Y-102441089D01*
X159179031Y-102837075D01*
X159481732Y-103140304D01*
X159877432Y-103304613D01*
X160305889Y-103304987D01*
X160701875Y-103141369D01*
X161005104Y-102838668D01*
X161169413Y-102442968D01*
X161169414Y-102441089D01*
X161555413Y-102441089D01*
X161719031Y-102837075D01*
X162021732Y-103140304D01*
X162417432Y-103304613D01*
X162845889Y-103304987D01*
X163241875Y-103141369D01*
X163545104Y-102838668D01*
X163709413Y-102442968D01*
X163709414Y-102441089D01*
X164095413Y-102441089D01*
X164259031Y-102837075D01*
X164561732Y-103140304D01*
X164957432Y-103304613D01*
X165385889Y-103304987D01*
X165781875Y-103141369D01*
X166085104Y-102838668D01*
X166249413Y-102442968D01*
X166249787Y-102014511D01*
X166086169Y-101618525D01*
X165783468Y-101315296D01*
X165387768Y-101150987D01*
X164959311Y-101150613D01*
X164563325Y-101314231D01*
X164260096Y-101616932D01*
X164095787Y-102012632D01*
X164095413Y-102441089D01*
X163709414Y-102441089D01*
X163709787Y-102014511D01*
X163546169Y-101618525D01*
X163243468Y-101315296D01*
X162847768Y-101150987D01*
X162419311Y-101150613D01*
X162023325Y-101314231D01*
X161720096Y-101616932D01*
X161555787Y-102012632D01*
X161555413Y-102441089D01*
X161169414Y-102441089D01*
X161169787Y-102014511D01*
X161006169Y-101618525D01*
X160703468Y-101315296D01*
X160307768Y-101150987D01*
X159879311Y-101150613D01*
X159483325Y-101314231D01*
X159180096Y-101616932D01*
X159015787Y-102012632D01*
X159015413Y-102441089D01*
X105558000Y-102441089D01*
X105558000Y-80516089D01*
X150305413Y-80516089D01*
X150469031Y-80912075D01*
X150771732Y-81215304D01*
X151167432Y-81379613D01*
X151595889Y-81379987D01*
X151991875Y-81216369D01*
X152295104Y-80913668D01*
X152329929Y-80829800D01*
X158314310Y-80829800D01*
X175199926Y-97715416D01*
X175165787Y-97797632D01*
X175165413Y-98226089D01*
X175329031Y-98622075D01*
X175631732Y-98925304D01*
X176027432Y-99089613D01*
X176455889Y-99089987D01*
X176851875Y-98926369D01*
X177155104Y-98623668D01*
X177319413Y-98227968D01*
X177319787Y-97799511D01*
X177156169Y-97403525D01*
X176853468Y-97100296D01*
X176457768Y-96935987D01*
X176029311Y-96935613D01*
X175945382Y-96970292D01*
X158905245Y-79930155D01*
X158734275Y-79815915D01*
X158532600Y-79775800D01*
X152330164Y-79775800D01*
X152296169Y-79693525D01*
X151993468Y-79390296D01*
X151597768Y-79225987D01*
X151169311Y-79225613D01*
X150773325Y-79389231D01*
X150470096Y-79691932D01*
X150305787Y-80087632D01*
X150305413Y-80516089D01*
X105558000Y-80516089D01*
X105558000Y-67943864D01*
X129005600Y-67943864D01*
X129005600Y-68701736D01*
X129091388Y-69133020D01*
X129335691Y-69498645D01*
X129701316Y-69742948D01*
X130132600Y-69828736D01*
X130563884Y-69742948D01*
X130929509Y-69498645D01*
X131173812Y-69133020D01*
X131259600Y-68701736D01*
X131259600Y-67943864D01*
X131545600Y-67943864D01*
X131545600Y-68701736D01*
X131631388Y-69133020D01*
X131875691Y-69498645D01*
X132241316Y-69742948D01*
X132672600Y-69828736D01*
X133103884Y-69742948D01*
X133469509Y-69498645D01*
X133713812Y-69133020D01*
X133799600Y-68701736D01*
X133799600Y-67943864D01*
X134085600Y-67943864D01*
X134085600Y-68701736D01*
X134171388Y-69133020D01*
X134415691Y-69498645D01*
X134781316Y-69742948D01*
X135212600Y-69828736D01*
X135643884Y-69742948D01*
X136009509Y-69498645D01*
X136253812Y-69133020D01*
X136339600Y-68701736D01*
X136339600Y-67943864D01*
X136625600Y-67943864D01*
X136625600Y-68701736D01*
X136711388Y-69133020D01*
X136955691Y-69498645D01*
X137321316Y-69742948D01*
X137752600Y-69828736D01*
X138183884Y-69742948D01*
X138549509Y-69498645D01*
X138793812Y-69133020D01*
X138879600Y-68701736D01*
X138879600Y-67943864D01*
X139165600Y-67943864D01*
X139165600Y-68701736D01*
X139251388Y-69133020D01*
X139495691Y-69498645D01*
X139861316Y-69742948D01*
X140292600Y-69828736D01*
X140723884Y-69742948D01*
X141089509Y-69498645D01*
X141333812Y-69133020D01*
X141419600Y-68701736D01*
X141419600Y-67943864D01*
X141705600Y-67943864D01*
X141705600Y-68701736D01*
X141791388Y-69133020D01*
X142035691Y-69498645D01*
X142401316Y-69742948D01*
X142832600Y-69828736D01*
X143263884Y-69742948D01*
X143629509Y-69498645D01*
X143873812Y-69133020D01*
X143959600Y-68701736D01*
X143959600Y-67943864D01*
X144245600Y-67943864D01*
X144245600Y-68701736D01*
X144331388Y-69133020D01*
X144575691Y-69498645D01*
X144941316Y-69742948D01*
X145372600Y-69828736D01*
X145803884Y-69742948D01*
X146169509Y-69498645D01*
X146413812Y-69133020D01*
X146499600Y-68701736D01*
X146499600Y-68695802D01*
X146639340Y-68695802D01*
X146501819Y-68919532D01*
X146703629Y-69440633D01*
X147089493Y-69844838D01*
X147327425Y-69983065D01*
X147539600Y-69893327D01*
X147539600Y-68695800D01*
X147519600Y-68695800D01*
X147519600Y-67949800D01*
X147539600Y-67949800D01*
X147539600Y-66752273D01*
X148285600Y-66752273D01*
X148285600Y-67949800D01*
X148305600Y-67949800D01*
X148305600Y-68695800D01*
X148285600Y-68695800D01*
X148285600Y-69893327D01*
X148497775Y-69983065D01*
X148735707Y-69844838D01*
X149121571Y-69440633D01*
X149323381Y-68919532D01*
X149185860Y-68695802D01*
X149325600Y-68695802D01*
X149325600Y-68701736D01*
X149411388Y-69133020D01*
X149655691Y-69498645D01*
X150021316Y-69742948D01*
X150452600Y-69828736D01*
X150883884Y-69742948D01*
X151249509Y-69498645D01*
X151493812Y-69133020D01*
X151579600Y-68701736D01*
X151579600Y-67943864D01*
X151865600Y-67943864D01*
X151865600Y-68701736D01*
X151951388Y-69133020D01*
X152195691Y-69498645D01*
X152561316Y-69742948D01*
X152992600Y-69828736D01*
X153423884Y-69742948D01*
X153789509Y-69498645D01*
X154033812Y-69133020D01*
X154119600Y-68701736D01*
X154119600Y-67943864D01*
X154405600Y-67943864D01*
X154405600Y-68701736D01*
X154491388Y-69133020D01*
X154735691Y-69498645D01*
X155101316Y-69742948D01*
X155532600Y-69828736D01*
X155963884Y-69742948D01*
X156329509Y-69498645D01*
X156573812Y-69133020D01*
X156659600Y-68701736D01*
X156659600Y-67943864D01*
X156945600Y-67943864D01*
X156945600Y-68701736D01*
X157031388Y-69133020D01*
X157275691Y-69498645D01*
X157641316Y-69742948D01*
X158072600Y-69828736D01*
X158503884Y-69742948D01*
X158869509Y-69498645D01*
X159113812Y-69133020D01*
X159199600Y-68701736D01*
X159199600Y-67943864D01*
X159485600Y-67943864D01*
X159485600Y-68701736D01*
X159571388Y-69133020D01*
X159815691Y-69498645D01*
X160181316Y-69742948D01*
X160612600Y-69828736D01*
X161043884Y-69742948D01*
X161409509Y-69498645D01*
X161653812Y-69133020D01*
X161739600Y-68701736D01*
X161739600Y-67943864D01*
X162025600Y-67943864D01*
X162025600Y-68701736D01*
X162111388Y-69133020D01*
X162355691Y-69498645D01*
X162721316Y-69742948D01*
X163152600Y-69828736D01*
X163583884Y-69742948D01*
X163949509Y-69498645D01*
X164193812Y-69133020D01*
X164279600Y-68701736D01*
X164279600Y-67943864D01*
X164193812Y-67512580D01*
X163949509Y-67146955D01*
X163583884Y-66902652D01*
X163152600Y-66816864D01*
X162721316Y-66902652D01*
X162355691Y-67146955D01*
X162111388Y-67512580D01*
X162025600Y-67943864D01*
X161739600Y-67943864D01*
X161653812Y-67512580D01*
X161409509Y-67146955D01*
X161043884Y-66902652D01*
X160612600Y-66816864D01*
X160181316Y-66902652D01*
X159815691Y-67146955D01*
X159571388Y-67512580D01*
X159485600Y-67943864D01*
X159199600Y-67943864D01*
X159113812Y-67512580D01*
X158869509Y-67146955D01*
X158503884Y-66902652D01*
X158072600Y-66816864D01*
X157641316Y-66902652D01*
X157275691Y-67146955D01*
X157031388Y-67512580D01*
X156945600Y-67943864D01*
X156659600Y-67943864D01*
X156573812Y-67512580D01*
X156329509Y-67146955D01*
X155963884Y-66902652D01*
X155532600Y-66816864D01*
X155101316Y-66902652D01*
X154735691Y-67146955D01*
X154491388Y-67512580D01*
X154405600Y-67943864D01*
X154119600Y-67943864D01*
X154033812Y-67512580D01*
X153789509Y-67146955D01*
X153423884Y-66902652D01*
X152992600Y-66816864D01*
X152561316Y-66902652D01*
X152195691Y-67146955D01*
X151951388Y-67512580D01*
X151865600Y-67943864D01*
X151579600Y-67943864D01*
X151493812Y-67512580D01*
X151249509Y-67146955D01*
X150883884Y-66902652D01*
X150452600Y-66816864D01*
X150021316Y-66902652D01*
X149655691Y-67146955D01*
X149411388Y-67512580D01*
X149325600Y-67943864D01*
X149325600Y-67949798D01*
X149185860Y-67949798D01*
X149323381Y-67726068D01*
X149121571Y-67204967D01*
X148735707Y-66800762D01*
X148497775Y-66662535D01*
X148285600Y-66752273D01*
X147539600Y-66752273D01*
X147327425Y-66662535D01*
X147089493Y-66800762D01*
X146703629Y-67204967D01*
X146501819Y-67726068D01*
X146639340Y-67949798D01*
X146499600Y-67949798D01*
X146499600Y-67943864D01*
X146413812Y-67512580D01*
X146169509Y-67146955D01*
X145803884Y-66902652D01*
X145372600Y-66816864D01*
X144941316Y-66902652D01*
X144575691Y-67146955D01*
X144331388Y-67512580D01*
X144245600Y-67943864D01*
X143959600Y-67943864D01*
X143873812Y-67512580D01*
X143629509Y-67146955D01*
X143263884Y-66902652D01*
X142832600Y-66816864D01*
X142401316Y-66902652D01*
X142035691Y-67146955D01*
X141791388Y-67512580D01*
X141705600Y-67943864D01*
X141419600Y-67943864D01*
X141333812Y-67512580D01*
X141089509Y-67146955D01*
X140723884Y-66902652D01*
X140292600Y-66816864D01*
X139861316Y-66902652D01*
X139495691Y-67146955D01*
X139251388Y-67512580D01*
X139165600Y-67943864D01*
X138879600Y-67943864D01*
X138793812Y-67512580D01*
X138549509Y-67146955D01*
X138183884Y-66902652D01*
X137752600Y-66816864D01*
X137321316Y-66902652D01*
X136955691Y-67146955D01*
X136711388Y-67512580D01*
X136625600Y-67943864D01*
X136339600Y-67943864D01*
X136253812Y-67512580D01*
X136009509Y-67146955D01*
X135643884Y-66902652D01*
X135212600Y-66816864D01*
X134781316Y-66902652D01*
X134415691Y-67146955D01*
X134171388Y-67512580D01*
X134085600Y-67943864D01*
X133799600Y-67943864D01*
X133713812Y-67512580D01*
X133469509Y-67146955D01*
X133103884Y-66902652D01*
X132672600Y-66816864D01*
X132241316Y-66902652D01*
X131875691Y-67146955D01*
X131631388Y-67512580D01*
X131545600Y-67943864D01*
X131259600Y-67943864D01*
X131173812Y-67512580D01*
X130929509Y-67146955D01*
X130563884Y-66902652D01*
X130132600Y-66816864D01*
X129701316Y-66902652D01*
X129335691Y-67146955D01*
X129091388Y-67512580D01*
X129005600Y-67943864D01*
X105558000Y-67943864D01*
X105558000Y-64046089D01*
X167565413Y-64046089D01*
X167729031Y-64442075D01*
X168031732Y-64745304D01*
X168115600Y-64780129D01*
X168115600Y-67065236D01*
X168033325Y-67099231D01*
X167730096Y-67401932D01*
X167565787Y-67797632D01*
X167565413Y-68226089D01*
X167729031Y-68622075D01*
X168031732Y-68925304D01*
X168427432Y-69089613D01*
X168855889Y-69089987D01*
X169251875Y-68926369D01*
X169555104Y-68623668D01*
X169719413Y-68227968D01*
X169719787Y-67799511D01*
X169556169Y-67403525D01*
X169253468Y-67100296D01*
X169169600Y-67065471D01*
X169169600Y-64780364D01*
X169251875Y-64746369D01*
X169555104Y-64443668D01*
X169719413Y-64047968D01*
X169719787Y-63619511D01*
X169556169Y-63223525D01*
X169253468Y-62920296D01*
X168857768Y-62755987D01*
X168429311Y-62755613D01*
X168033325Y-62919231D01*
X167730096Y-63221932D01*
X167565787Y-63617632D01*
X167565413Y-64046089D01*
X105558000Y-64046089D01*
X105558000Y-60323864D01*
X129005600Y-60323864D01*
X129005600Y-61081736D01*
X129091388Y-61513020D01*
X129335691Y-61878645D01*
X129701316Y-62122948D01*
X130132600Y-62208736D01*
X130563884Y-62122948D01*
X130929509Y-61878645D01*
X131173812Y-61513020D01*
X131259600Y-61081736D01*
X131259600Y-60323864D01*
X131545600Y-60323864D01*
X131545600Y-61081736D01*
X131631388Y-61513020D01*
X131875691Y-61878645D01*
X132241316Y-62122948D01*
X132672600Y-62208736D01*
X133103884Y-62122948D01*
X133469509Y-61878645D01*
X133713812Y-61513020D01*
X133799600Y-61081736D01*
X133799600Y-60323864D01*
X134085600Y-60323864D01*
X134085600Y-61081736D01*
X134171388Y-61513020D01*
X134415691Y-61878645D01*
X134781316Y-62122948D01*
X135212600Y-62208736D01*
X135643884Y-62122948D01*
X136009509Y-61878645D01*
X136253812Y-61513020D01*
X136339600Y-61081736D01*
X136339600Y-60323864D01*
X136625600Y-60323864D01*
X136625600Y-61081736D01*
X136711388Y-61513020D01*
X136955691Y-61878645D01*
X137321316Y-62122948D01*
X137752600Y-62208736D01*
X138183884Y-62122948D01*
X138549509Y-61878645D01*
X138793812Y-61513020D01*
X138879600Y-61081736D01*
X138879600Y-60323864D01*
X139165600Y-60323864D01*
X139165600Y-61081736D01*
X139251388Y-61513020D01*
X139495691Y-61878645D01*
X139861316Y-62122948D01*
X140292600Y-62208736D01*
X140723884Y-62122948D01*
X141089509Y-61878645D01*
X141333812Y-61513020D01*
X141419600Y-61081736D01*
X141419600Y-60323864D01*
X141705600Y-60323864D01*
X141705600Y-61081736D01*
X141791388Y-61513020D01*
X142035691Y-61878645D01*
X142401316Y-62122948D01*
X142832600Y-62208736D01*
X143263884Y-62122948D01*
X143629509Y-61878645D01*
X143873812Y-61513020D01*
X143959600Y-61081736D01*
X143959600Y-61075802D01*
X144099340Y-61075802D01*
X143961819Y-61299532D01*
X144163629Y-61820633D01*
X144549493Y-62224838D01*
X144787425Y-62363065D01*
X144999600Y-62273327D01*
X144999600Y-61075800D01*
X144979600Y-61075800D01*
X144979600Y-60329800D01*
X144999600Y-60329800D01*
X144999600Y-59132273D01*
X145745600Y-59132273D01*
X145745600Y-60329800D01*
X145765600Y-60329800D01*
X145765600Y-61075800D01*
X145745600Y-61075800D01*
X145745600Y-62273327D01*
X145957775Y-62363065D01*
X146195707Y-62224838D01*
X146581571Y-61820633D01*
X146783381Y-61299532D01*
X146645860Y-61075802D01*
X146785600Y-61075802D01*
X146785600Y-61081736D01*
X146871388Y-61513020D01*
X147115691Y-61878645D01*
X147481316Y-62122948D01*
X147912600Y-62208736D01*
X148343884Y-62122948D01*
X148709509Y-61878645D01*
X148953812Y-61513020D01*
X149039600Y-61081736D01*
X149039600Y-60323864D01*
X149325600Y-60323864D01*
X149325600Y-61081736D01*
X149411388Y-61513020D01*
X149655691Y-61878645D01*
X150021316Y-62122948D01*
X150452600Y-62208736D01*
X150883884Y-62122948D01*
X151249509Y-61878645D01*
X151493812Y-61513020D01*
X151579600Y-61081736D01*
X151579600Y-60323864D01*
X151865600Y-60323864D01*
X151865600Y-61081736D01*
X151951388Y-61513020D01*
X152195691Y-61878645D01*
X152561316Y-62122948D01*
X152992600Y-62208736D01*
X153423884Y-62122948D01*
X153789509Y-61878645D01*
X154033812Y-61513020D01*
X154119600Y-61081736D01*
X154119600Y-60323864D01*
X154405600Y-60323864D01*
X154405600Y-61081736D01*
X154491388Y-61513020D01*
X154735691Y-61878645D01*
X155101316Y-62122948D01*
X155532600Y-62208736D01*
X155963884Y-62122948D01*
X156329509Y-61878645D01*
X156573812Y-61513020D01*
X156659600Y-61081736D01*
X156659600Y-60323864D01*
X156945600Y-60323864D01*
X156945600Y-61081736D01*
X157031388Y-61513020D01*
X157275691Y-61878645D01*
X157641316Y-62122948D01*
X158072600Y-62208736D01*
X158503884Y-62122948D01*
X158869509Y-61878645D01*
X159113812Y-61513020D01*
X159199600Y-61081736D01*
X159199600Y-60323864D01*
X159485600Y-60323864D01*
X159485600Y-61081736D01*
X159571388Y-61513020D01*
X159815691Y-61878645D01*
X160181316Y-62122948D01*
X160612600Y-62208736D01*
X161043884Y-62122948D01*
X161409509Y-61878645D01*
X161653812Y-61513020D01*
X161739600Y-61081736D01*
X161739600Y-60323864D01*
X162025600Y-60323864D01*
X162025600Y-61081736D01*
X162111388Y-61513020D01*
X162355691Y-61878645D01*
X162721316Y-62122948D01*
X163152600Y-62208736D01*
X163583884Y-62122948D01*
X163949509Y-61878645D01*
X164193812Y-61513020D01*
X164279600Y-61081736D01*
X164279600Y-60323864D01*
X164193812Y-59892580D01*
X163949509Y-59526955D01*
X163583884Y-59282652D01*
X163152600Y-59196864D01*
X162721316Y-59282652D01*
X162355691Y-59526955D01*
X162111388Y-59892580D01*
X162025600Y-60323864D01*
X161739600Y-60323864D01*
X161653812Y-59892580D01*
X161409509Y-59526955D01*
X161043884Y-59282652D01*
X160612600Y-59196864D01*
X160181316Y-59282652D01*
X159815691Y-59526955D01*
X159571388Y-59892580D01*
X159485600Y-60323864D01*
X159199600Y-60323864D01*
X159113812Y-59892580D01*
X158869509Y-59526955D01*
X158503884Y-59282652D01*
X158072600Y-59196864D01*
X157641316Y-59282652D01*
X157275691Y-59526955D01*
X157031388Y-59892580D01*
X156945600Y-60323864D01*
X156659600Y-60323864D01*
X156573812Y-59892580D01*
X156329509Y-59526955D01*
X155963884Y-59282652D01*
X155532600Y-59196864D01*
X155101316Y-59282652D01*
X154735691Y-59526955D01*
X154491388Y-59892580D01*
X154405600Y-60323864D01*
X154119600Y-60323864D01*
X154033812Y-59892580D01*
X153789509Y-59526955D01*
X153423884Y-59282652D01*
X152992600Y-59196864D01*
X152561316Y-59282652D01*
X152195691Y-59526955D01*
X151951388Y-59892580D01*
X151865600Y-60323864D01*
X151579600Y-60323864D01*
X151493812Y-59892580D01*
X151249509Y-59526955D01*
X150883884Y-59282652D01*
X150452600Y-59196864D01*
X150021316Y-59282652D01*
X149655691Y-59526955D01*
X149411388Y-59892580D01*
X149325600Y-60323864D01*
X149039600Y-60323864D01*
X148953812Y-59892580D01*
X148709509Y-59526955D01*
X148343884Y-59282652D01*
X147912600Y-59196864D01*
X147481316Y-59282652D01*
X147115691Y-59526955D01*
X146871388Y-59892580D01*
X146785600Y-60323864D01*
X146785600Y-60329798D01*
X146645860Y-60329798D01*
X146783381Y-60106068D01*
X146581571Y-59584967D01*
X146195707Y-59180762D01*
X145957775Y-59042535D01*
X145745600Y-59132273D01*
X144999600Y-59132273D01*
X144787425Y-59042535D01*
X144549493Y-59180762D01*
X144163629Y-59584967D01*
X143961819Y-60106068D01*
X144099340Y-60329798D01*
X143959600Y-60329798D01*
X143959600Y-60323864D01*
X143873812Y-59892580D01*
X143629509Y-59526955D01*
X143263884Y-59282652D01*
X142832600Y-59196864D01*
X142401316Y-59282652D01*
X142035691Y-59526955D01*
X141791388Y-59892580D01*
X141705600Y-60323864D01*
X141419600Y-60323864D01*
X141333812Y-59892580D01*
X141089509Y-59526955D01*
X140723884Y-59282652D01*
X140292600Y-59196864D01*
X139861316Y-59282652D01*
X139495691Y-59526955D01*
X139251388Y-59892580D01*
X139165600Y-60323864D01*
X138879600Y-60323864D01*
X138793812Y-59892580D01*
X138549509Y-59526955D01*
X138183884Y-59282652D01*
X137752600Y-59196864D01*
X137321316Y-59282652D01*
X136955691Y-59526955D01*
X136711388Y-59892580D01*
X136625600Y-60323864D01*
X136339600Y-60323864D01*
X136253812Y-59892580D01*
X136009509Y-59526955D01*
X135643884Y-59282652D01*
X135212600Y-59196864D01*
X134781316Y-59282652D01*
X134415691Y-59526955D01*
X134171388Y-59892580D01*
X134085600Y-60323864D01*
X133799600Y-60323864D01*
X133713812Y-59892580D01*
X133469509Y-59526955D01*
X133103884Y-59282652D01*
X132672600Y-59196864D01*
X132241316Y-59282652D01*
X131875691Y-59526955D01*
X131631388Y-59892580D01*
X131545600Y-60323864D01*
X131259600Y-60323864D01*
X131173812Y-59892580D01*
X130929509Y-59526955D01*
X130563884Y-59282652D01*
X130132600Y-59196864D01*
X129701316Y-59282652D01*
X129335691Y-59526955D01*
X129091388Y-59892580D01*
X129005600Y-60323864D01*
X105558000Y-60323864D01*
X105558000Y-48496089D01*
X147005413Y-48496089D01*
X147169031Y-48892075D01*
X147471732Y-49195304D01*
X147565600Y-49234281D01*
X147565600Y-54645236D01*
X147483325Y-54679231D01*
X147180096Y-54981932D01*
X147015787Y-55377632D01*
X147015413Y-55806089D01*
X147179031Y-56202075D01*
X147481732Y-56505304D01*
X147877432Y-56669613D01*
X148305889Y-56669987D01*
X148701875Y-56506369D01*
X149005104Y-56203668D01*
X149033874Y-56134383D01*
X149099031Y-56292075D01*
X149401732Y-56595304D01*
X149797432Y-56759613D01*
X150225889Y-56759987D01*
X150621875Y-56596369D01*
X150925104Y-56293668D01*
X151089413Y-55897968D01*
X151089787Y-55469511D01*
X150926169Y-55073525D01*
X150729600Y-54876613D01*
X150729600Y-49170364D01*
X150811875Y-49136369D01*
X151115104Y-48833668D01*
X151279413Y-48437968D01*
X151279787Y-48009511D01*
X151116169Y-47613525D01*
X150813468Y-47310296D01*
X150417768Y-47145987D01*
X149989311Y-47145613D01*
X149593325Y-47309231D01*
X149290096Y-47611932D01*
X149130013Y-47997454D01*
X148996169Y-47673525D01*
X148693468Y-47370296D01*
X148297768Y-47205987D01*
X147869311Y-47205613D01*
X147473325Y-47369231D01*
X147170096Y-47671932D01*
X147005787Y-48067632D01*
X147005413Y-48496089D01*
X105558000Y-48496089D01*
X105558000Y-46648514D01*
X111322514Y-40884000D01*
X181490462Y-40884000D01*
X187304000Y-46649492D01*
M02*
