M48
;DRILL file {KiCad 4.0.2-stable} date 11/1/2017 5:17:56 PM
;FORMAT={-:-/ absolute / inch / decimal}
FMAT,2
INCH,TZ
T1C0.024
T2C0.031
T3C0.047
T4C0.080
T5C0.126
%
G90
G05
M72
T1
X5.83Y-1.9009
X5.8304Y-2.1887
X5.906Y-2.1922
X5.9135Y-1.8985
X5.9599Y-3.1615
X6.3029Y-4.0247
X6.3029Y-4.5046
X6.4029Y-4.0247
X6.4029Y-4.5046
X6.5029Y-4.0247
X6.5029Y-4.5046
X6.6395Y-2.5131
X6.6395Y-2.6777
X6.9387Y-3.8588
T2
X5.1233Y-2.3899
X5.1233Y-2.6899
X5.2233Y-2.3899
X5.2233Y-2.6899
X5.3233Y-2.3899
X5.3233Y-2.6899
X5.4233Y-2.3899
X5.4233Y-2.6899
X5.5233Y-2.3899
X5.5233Y-2.6899
X5.6233Y-2.3899
X5.6233Y-2.6899
X5.7233Y-2.3899
X5.7233Y-2.6899
X5.8233Y-2.3899
X5.8233Y-2.6899
X5.9233Y-2.3899
X5.9233Y-2.6899
X6.0233Y-2.3899
X6.0233Y-2.6899
X6.1233Y-2.3899
X6.1233Y-2.6899
X6.2233Y-2.3899
X6.2233Y-2.6899
X6.3233Y-2.3899
X6.3233Y-2.6899
X6.4233Y-2.3899
X6.4233Y-2.6899
T3
X4.2697Y-5.2473
X4.2697Y-5.4973
X4.4347Y-5.2473
X4.4347Y-5.4973
X4.5996Y-5.2473
X4.5996Y-5.4973
X4.7646Y-5.2473
X4.7646Y-5.4973
X4.9296Y-5.2473
X4.9296Y-5.4973
X5.0945Y-5.2473
X5.0945Y-5.4973
X6.4351Y-5.2473
X6.4351Y-5.4973
X6.6Y-5.2473
X6.6Y-5.4973
X6.765Y-5.2473
X6.765Y-5.4973
X6.93Y-5.2473
X6.93Y-5.4973
X7.0949Y-5.2473
X7.0949Y-5.4973
X7.2599Y-5.2473
X7.2599Y-5.4973
T4
X6.1134Y-4.2647
X6.6924Y-4.2647
T5
X5.765Y-5.4202
T0
M30
