M48
;DRILL file {KiCad 4.0.6} date 03/28/18 11:07:52
;FORMAT={-:-/ absolute / inch / decimal}
FMAT,2
INCH,TZ
T1C0.024
T2C0.039
T3C0.059
T4C0.080
T5C0.166
%
G90
G05
M72
T1
X4.2543Y-4.6154
X4.3147Y-2.7058
X4.3147Y-3.1857
X4.4147Y-2.7058
X4.4147Y-3.1857
X4.424Y-3.9327
X4.4517Y-4.3076
X4.4517Y-4.3076
X4.4517Y-4.3076
X4.4517Y-4.3076
X4.4599Y-3.5651
X4.4599Y-3.5651
X4.4599Y-3.5651
X4.4599Y-3.5651
X4.5147Y-2.7058
X4.5147Y-3.1857
X4.5386Y-4.7827
X4.6504Y-3.8102
X4.7906Y-4.5949
X4.8496Y-3.6169
X4.9413Y-2.4949
X5.1657Y-4.611
X5.3417Y-3.9413
X5.3659Y-4.3068
X5.3659Y-4.3068
X5.3659Y-4.3068
X5.3659Y-4.3068
X5.3741Y-3.5643
X5.3741Y-3.5643
X5.3741Y-3.5643
X5.3741Y-3.5643
X5.387Y-2.1169
X5.4484Y-4.7862
X5.5516Y-3.4728
X5.5618Y-3.7996
X5.7047Y-4.5913
X5.7295Y-2.865
X5.7618Y-2.7421
X5.7642Y-2.0228
X5.8055Y-2.8634
X5.8134Y-2.7886
X5.8559Y-2.085
X5.874Y-3.1976
X5.8772Y-2.8402
X6.0862Y-4.6177
X6.1059Y-3.5484
X6.1425Y-3.2815
X6.2055Y-1.9094
X6.237Y-2.835
X6.2591Y-3.9358
X6.2773Y-4.308
X6.2773Y-4.308
X6.2773Y-4.308
X6.2773Y-4.308
X6.2855Y-3.5655
X6.2855Y-3.5655
X6.2855Y-3.5655
X6.2855Y-3.5655
X6.2913Y-2.7697
X6.3043Y-3.2004
X6.324Y-2.9378
X6.3343Y-2.2614
X6.3512Y-2.711
X6.3591Y-4.7894
X6.3827Y-3.7228
X6.3854Y-2.8917
X6.4075Y-2.5488
X6.4169Y-2.6606
X6.6165Y-4.6004
X6.6343Y-2.2154
X6.6591Y-2.1457
X6.6705Y-3.0657
X6.6902Y-2.8634
X6.6913Y-2.9819
X6.7441Y-3.4815
X6.822Y-3.2795
X6.8976Y-3.2807
X6.9701Y-3.2819
X7.0028Y-4.6177
X7.011Y-2.211
X7.1138Y-3.1547
X7.115Y-2.8917
X7.1728Y-3.9224
X7.1906Y-2.5839
X7.1914Y-4.3072
X7.1914Y-4.3072
X7.1914Y-4.3072
X7.1914Y-4.3072
X7.1917Y-2.9382
X7.1997Y-3.5647
X7.1997Y-3.5647
X7.1997Y-3.5647
X7.1997Y-3.5647
X7.2083Y-2.0252
X7.2756Y-4.7925
X7.2976Y-3.7228
X7.2996Y-2.0228
X7.4315Y-2.9854
X7.5031Y-3.1461
X7.5374Y-4.611
X7.5465Y-2.5799
T2
X6.8477Y-2.7962
X6.8477Y-2.9615
X6.8477Y-3.1269
T3
X4.147Y-1.5993
X4.147Y-1.7993
X4.147Y-5.1741
X4.147Y-5.3741
X4.6036Y-1.5993
X4.6036Y-1.7993
X4.6036Y-5.1741
X4.6036Y-5.3741
X5.0603Y-1.5993
X5.0603Y-1.7993
X5.0603Y-5.1741
X5.0603Y-5.3741
X5.517Y-1.5993
X5.517Y-1.7993
X5.517Y-5.1741
X5.517Y-5.3741
X5.9737Y-1.5993
X5.9737Y-1.7993
X5.9737Y-5.1741
X5.9737Y-5.3741
X6.4304Y-1.5993
X6.4304Y-1.7993
X6.4304Y-5.1741
X6.4304Y-5.3741
X6.8871Y-1.5993
X6.8871Y-1.7993
X6.8871Y-5.1741
X6.8871Y-5.3741
X7.3438Y-1.5993
X7.3438Y-1.7993
X7.3438Y-5.1741
X7.3438Y-5.3741
T4
X4.1252Y-2.9458
X4.7042Y-2.9458
T5
X3.8281Y-1.6308
X3.8281Y-5.3425
X7.6614Y-1.6308
X7.6614Y-5.3425
T0
M30
