G04 #@! TF.FileFunction,Copper,L2,Bot,Signal*
%FSLAX46Y46*%
G04 Gerber Fmt 4.6, Leading zero omitted, Abs format (unit mm)*
G04 Created by KiCad (PCBNEW 4.0.6) date 03/21/18 07:36:57*
%MOMM*%
%LPD*%
G01*
G04 APERTURE LIST*
%ADD10C,0.100000*%
%ADD11C,1.700000*%
%ADD12C,2.200000*%
%ADD13C,4.064000*%
%ADD14C,1.500000*%
%ADD15C,6.197600*%
%ADD16C,0.400000*%
%ADD17C,0.254000*%
G04 APERTURE END LIST*
D10*
D11*
X173932600Y-71022800D03*
X173932600Y-75222800D03*
X173932600Y-79422800D03*
D12*
X186532600Y-45702800D03*
X186532600Y-40622800D03*
X163332600Y-45702800D03*
X163332600Y-40622800D03*
X116932600Y-45702800D03*
X116932600Y-40622800D03*
X105332600Y-45702800D03*
X105332600Y-40622800D03*
X140132600Y-45702800D03*
X140132600Y-40622800D03*
X128532600Y-45702800D03*
X128532600Y-40622800D03*
X186532600Y-136502800D03*
X186532600Y-131422800D03*
X174932600Y-136502800D03*
X174932600Y-131422800D03*
X163332600Y-136502800D03*
X163332600Y-131422800D03*
X151732600Y-136502800D03*
X151732600Y-131422800D03*
X140132600Y-136502800D03*
X140132600Y-131422800D03*
X128532600Y-136502800D03*
X128532600Y-131422800D03*
X116932600Y-136502800D03*
X116932600Y-131422800D03*
X105332600Y-136502800D03*
X105332600Y-131422800D03*
X174932600Y-45702800D03*
X174932600Y-40622800D03*
X151732600Y-45702800D03*
X151732600Y-40622800D03*
D13*
X104779300Y-74822800D03*
D14*
X109592600Y-68727800D03*
X109592600Y-80917800D03*
X112132600Y-68727800D03*
X112132600Y-80917800D03*
X114672600Y-68727800D03*
X114672600Y-80917800D03*
D13*
X119485900Y-74822800D03*
D15*
X97232600Y-135700000D03*
X97232600Y-41422800D03*
X194600000Y-41422800D03*
X194600000Y-135700000D03*
D14*
X125510000Y-63370000D03*
X115280000Y-121480000D03*
X138390000Y-121570000D03*
X184800000Y-121730000D03*
X161520000Y-121650000D03*
X136830000Y-53770000D03*
X188980000Y-78870000D03*
X146350000Y-69650000D03*
X183170000Y-80690000D03*
X147660000Y-70830000D03*
X169930000Y-72730000D03*
X180720000Y-73450000D03*
X180690000Y-80130000D03*
X160630000Y-74620000D03*
X118120000Y-96780000D03*
X121680000Y-116710000D03*
X162190000Y-73450000D03*
X141270000Y-96510000D03*
X158420000Y-72010000D03*
X144900000Y-116620000D03*
X159800000Y-70350000D03*
X161320000Y-68860000D03*
X162120000Y-94560000D03*
X168060000Y-116850000D03*
X162990000Y-67580000D03*
X185360000Y-94560000D03*
X169430000Y-77870000D03*
X169960000Y-75740000D03*
X191450000Y-117120000D03*
X177040000Y-83360000D03*
X175200000Y-83330000D03*
X173280000Y-83300000D03*
X113282600Y-90552800D03*
X113282600Y-90552800D03*
X113282600Y-90552800D03*
X113282600Y-90552800D03*
X113072600Y-109412800D03*
X113072600Y-109412800D03*
X113072600Y-109412800D03*
X113072600Y-109412800D03*
X136502600Y-90532800D03*
X136502600Y-90532800D03*
X136502600Y-90532800D03*
X136502600Y-90532800D03*
X136292600Y-109392800D03*
X136292600Y-109392800D03*
X136292600Y-109392800D03*
X136292600Y-109392800D03*
X159652600Y-90562800D03*
X159652600Y-90562800D03*
X159652600Y-90562800D03*
X159652600Y-90562800D03*
X159442600Y-109422800D03*
X159442600Y-109422800D03*
X159442600Y-109422800D03*
X159442600Y-109422800D03*
X182872600Y-90542800D03*
X182872600Y-90542800D03*
X182872600Y-90542800D03*
X182872600Y-90542800D03*
X182662600Y-109402800D03*
X182662600Y-109402800D03*
X182662600Y-109402800D03*
X182662600Y-109402800D03*
X182670000Y-74630000D03*
X182640000Y-65630000D03*
X123180000Y-91870000D03*
X177870000Y-117290000D03*
X182190000Y-99630000D03*
X171300000Y-88430000D03*
X154590000Y-117290000D03*
X158980000Y-99970000D03*
X155090000Y-90130000D03*
X131210000Y-117120000D03*
X135680000Y-100110000D03*
X108060000Y-117230000D03*
X112370000Y-99890000D03*
X141010000Y-88210000D03*
X185410000Y-51380000D03*
X147460000Y-72730000D03*
X183090000Y-51440000D03*
X145530000Y-72770000D03*
X178080000Y-56160000D03*
X149200000Y-81220000D03*
X160890000Y-57440000D03*
X160020000Y-83380000D03*
X162750000Y-64740000D03*
X149280000Y-72140000D03*
X148740000Y-52960000D03*
X170950000Y-59360000D03*
X146720000Y-51740000D03*
X171030000Y-57400000D03*
D16*
X161520000Y-121650000D02*
X161520000Y-121710000D01*
X188980000Y-68510000D02*
X188980000Y-78870000D01*
X183140000Y-62670000D02*
X188980000Y-68510000D01*
X153330000Y-62670000D02*
X183140000Y-62670000D01*
X146350000Y-69650000D02*
X153330000Y-62670000D01*
X185130000Y-78730000D02*
X183170000Y-80690000D01*
X185130000Y-65550000D02*
X185130000Y-78730000D01*
X182920000Y-63340000D02*
X185130000Y-65550000D01*
X155150000Y-63340000D02*
X182920000Y-63340000D01*
X147660000Y-70830000D02*
X155150000Y-63340000D01*
X180690000Y-80130000D02*
X180690000Y-73480000D01*
X180690000Y-73480000D02*
X180720000Y-73450000D01*
X169930000Y-72730000D02*
X171510002Y-74310002D01*
X170010000Y-72810000D02*
X169930000Y-72730000D01*
X180690000Y-83680000D02*
X180690000Y-80130000D01*
X179010000Y-85360000D02*
X180690000Y-83680000D01*
X173000000Y-85360000D02*
X179010000Y-85360000D01*
X171510002Y-83870002D02*
X173000000Y-85360000D01*
X171510002Y-74310002D02*
X171510002Y-83870002D01*
X151732600Y-40622800D02*
X163332600Y-40622800D01*
X163332600Y-40622800D02*
X163332600Y-45702800D01*
X151732600Y-40622800D02*
X151732600Y-45702800D01*
X174932600Y-40622800D02*
X186532600Y-40622800D01*
X186532600Y-40622800D02*
X186532600Y-45702800D01*
X174932600Y-40622800D02*
X174932600Y-45702800D01*
X162470000Y-76460000D02*
X162470000Y-82711470D01*
X162470000Y-82711470D02*
X159321470Y-85860000D01*
X159321470Y-85860000D02*
X125940000Y-85860000D01*
X160630000Y-74620000D02*
X162470000Y-76460000D01*
X118120000Y-93680000D02*
X125940000Y-85860000D01*
X118120000Y-96780000D02*
X118120000Y-93680000D01*
X121680000Y-91000000D02*
X121680000Y-116710000D01*
X126180000Y-86500000D02*
X121680000Y-91000000D01*
X159650000Y-86500000D02*
X126180000Y-86500000D01*
X163110000Y-83040000D02*
X159650000Y-86500000D01*
X163110000Y-74400000D02*
X163110000Y-83040000D01*
X162190000Y-73480000D02*
X163110000Y-74400000D01*
X162190000Y-73450000D02*
X162190000Y-73480000D01*
X105332600Y-40622800D02*
X116932600Y-40622800D01*
X116932600Y-40622800D02*
X116932600Y-45702800D01*
X105332600Y-40622800D02*
X105332600Y-45702800D01*
X141270000Y-96660000D02*
X141270000Y-96510000D01*
X141390000Y-96540000D02*
X141270000Y-96660000D01*
X150470000Y-96540000D02*
X141390000Y-96540000D01*
X166110000Y-80900000D02*
X150470000Y-96540000D01*
X166110000Y-75470000D02*
X166110000Y-80900000D01*
X162650000Y-72010000D02*
X166110000Y-75470000D01*
X158420000Y-72010000D02*
X162650000Y-72010000D01*
X144900000Y-103138530D02*
X144900000Y-116620000D01*
X166810002Y-81228528D02*
X144900000Y-103138530D01*
X166810002Y-75190002D02*
X166810002Y-81228528D01*
X161970000Y-70350000D02*
X166810002Y-75190002D01*
X160670000Y-70350000D02*
X161970000Y-70350000D01*
X160230000Y-70350000D02*
X160670000Y-70350000D01*
X159800000Y-70350000D02*
X160230000Y-70350000D01*
X161320000Y-68860000D02*
X162020000Y-68860000D01*
X162020000Y-68860000D02*
X167450000Y-74290000D01*
X167450000Y-74290000D02*
X167450000Y-89230000D01*
X167450000Y-89230000D02*
X162120000Y-94560000D01*
X168060000Y-116550000D02*
X168060000Y-116850000D01*
X168070002Y-116560002D02*
X168060000Y-116550000D01*
X168070002Y-72660002D02*
X168070002Y-116560002D01*
X162990000Y-67580000D02*
X168070002Y-72660002D01*
X185360000Y-87080000D02*
X185360000Y-94560000D01*
X184870000Y-86590000D02*
X185360000Y-87080000D01*
X172369996Y-86590000D02*
X184870000Y-86590000D01*
X169400000Y-83620004D02*
X172369996Y-86590000D01*
X169400000Y-77840000D02*
X169400000Y-83620004D01*
X169430000Y-77870000D02*
X169400000Y-77840000D01*
X170910000Y-84190002D02*
X172689998Y-85970000D01*
X170910000Y-76690000D02*
X170910000Y-84190002D01*
X169960000Y-75740000D02*
X170910000Y-76690000D01*
X172689998Y-85970000D02*
X185180000Y-85970000D01*
X185180000Y-85970000D02*
X191450000Y-92240000D01*
X191450000Y-92240000D02*
X191450000Y-117120000D01*
X177040000Y-74130200D02*
X173932600Y-71022800D01*
X177040000Y-83360000D02*
X177040000Y-74130200D01*
X175380000Y-76670200D02*
X173932600Y-75222800D01*
X175380000Y-83150000D02*
X175380000Y-76670200D01*
X175200000Y-83330000D02*
X175380000Y-83150000D01*
X173932600Y-82647400D02*
X173932600Y-79422800D01*
X173280000Y-83300000D02*
X173932600Y-82647400D01*
X105332600Y-136502800D02*
X105332600Y-131422800D01*
X105332600Y-98502800D02*
X113282600Y-90552800D01*
X105332600Y-131422800D02*
X105332600Y-98502800D01*
X105332600Y-131422800D02*
X105332600Y-98502800D01*
X105332600Y-98502800D02*
X113282600Y-90552800D01*
X105332600Y-98502800D02*
X113282600Y-90552800D01*
X105332600Y-131422800D02*
X105332600Y-98502800D01*
X105332600Y-131422800D02*
X105332600Y-98502800D01*
X105332600Y-98502800D02*
X113282600Y-90552800D01*
X116932600Y-136502800D02*
X116932600Y-131422800D01*
X113072600Y-127562800D02*
X113072600Y-109412800D01*
X116932600Y-131422800D02*
X113072600Y-127562800D01*
X116932600Y-131422800D02*
X113072600Y-127562800D01*
X113072600Y-127562800D02*
X113072600Y-109412800D01*
X113072600Y-127562800D02*
X113072600Y-109412800D01*
X116932600Y-131422800D02*
X113072600Y-127562800D01*
X116932600Y-131422800D02*
X113072600Y-127562800D01*
X113072600Y-127562800D02*
X113072600Y-109412800D01*
X128532600Y-131422800D02*
X128532600Y-136502800D01*
X128552600Y-131402800D02*
X128552600Y-98482800D01*
X128552600Y-131402800D02*
X128552600Y-98482800D01*
X128552600Y-131402800D02*
X128552600Y-98482800D01*
X128552600Y-98482800D02*
X136502600Y-90532800D01*
X128552600Y-98482800D02*
X136502600Y-90532800D01*
X128552600Y-98482800D02*
X136502600Y-90532800D01*
X128552600Y-98482800D02*
X136502600Y-90532800D01*
X128552600Y-131402800D02*
X128552600Y-98482800D01*
X140132600Y-131422800D02*
X140132600Y-136502800D01*
X140152600Y-131402800D02*
X136292600Y-127542800D01*
X140152600Y-131402800D02*
X136292600Y-127542800D01*
X140152600Y-131402800D02*
X136292600Y-127542800D01*
X140152600Y-131402800D02*
X136292600Y-127542800D01*
X136292600Y-127542800D02*
X136292600Y-109392800D01*
X136292600Y-127542800D02*
X136292600Y-109392800D01*
X136292600Y-127542800D02*
X136292600Y-109392800D01*
X136292600Y-127542800D02*
X136292600Y-109392800D01*
X151732600Y-131422800D02*
X151732600Y-136502800D01*
X151702600Y-131432800D02*
X151702600Y-98512800D01*
X151702600Y-131432800D02*
X151702600Y-98512800D01*
X151702600Y-131432800D02*
X151702600Y-98512800D01*
X151702600Y-131432800D02*
X151702600Y-98512800D01*
X151702600Y-98512800D02*
X159652600Y-90562800D01*
X151702600Y-98512800D02*
X159652600Y-90562800D01*
X151702600Y-98512800D02*
X159652600Y-90562800D01*
X151702600Y-98512800D02*
X159652600Y-90562800D01*
X163332600Y-131422800D02*
X163332600Y-136502800D01*
X159442600Y-127572800D02*
X159442600Y-109422800D01*
X159442600Y-127572800D02*
X159442600Y-109422800D01*
X159442600Y-127572800D02*
X159442600Y-109422800D01*
X159442600Y-127572800D02*
X159442600Y-109422800D01*
X163302600Y-131432800D02*
X159442600Y-127572800D01*
X163302600Y-131432800D02*
X159442600Y-127572800D01*
X163302600Y-131432800D02*
X159442600Y-127572800D01*
X163302600Y-131432800D02*
X159442600Y-127572800D01*
X174932600Y-131422800D02*
X174932600Y-136502800D01*
X174922600Y-131412800D02*
X174922600Y-98492800D01*
X174922600Y-131412800D02*
X174922600Y-98492800D01*
X174922600Y-131412800D02*
X174922600Y-98492800D01*
X174922600Y-131412800D02*
X174922600Y-98492800D01*
X174922600Y-98492800D02*
X182872600Y-90542800D01*
X174922600Y-98492800D02*
X182872600Y-90542800D01*
X174922600Y-98492800D02*
X182872600Y-90542800D01*
X174922600Y-98492800D02*
X182872600Y-90542800D01*
X186532600Y-131422800D02*
X186532600Y-136502800D01*
X186522600Y-131412800D02*
X182662600Y-127552800D01*
X186522600Y-131412800D02*
X182662600Y-127552800D01*
X186522600Y-131412800D02*
X182662600Y-127552800D01*
X186522600Y-131412800D02*
X182662600Y-127552800D01*
X182662600Y-127552800D02*
X182662600Y-109402800D01*
X182662600Y-127552800D02*
X182662600Y-109402800D01*
X182662600Y-127552800D02*
X182662600Y-109402800D01*
X182662600Y-127552800D02*
X182662600Y-109402800D01*
X182640000Y-74600000D02*
X182640000Y-73680000D01*
X182670000Y-74630000D02*
X182640000Y-74600000D01*
X182640000Y-73830000D02*
X182640000Y-73570000D01*
X182640000Y-73570000D02*
X182640000Y-65630000D01*
X123180000Y-91870000D02*
X123180000Y-90420000D01*
X123180000Y-90420000D02*
X125390000Y-88210000D01*
X125390000Y-88210000D02*
X128720000Y-88210000D01*
X128720000Y-88210000D02*
X141010000Y-88210000D01*
X182190000Y-99630000D02*
X181390000Y-100430000D01*
X181390000Y-113770000D02*
X177870000Y-117290000D01*
X181390000Y-100430000D02*
X181390000Y-113770000D01*
X184140000Y-97680000D02*
X182190000Y-99630000D01*
X184140000Y-89310000D02*
X184140000Y-97680000D01*
X183260000Y-88430000D02*
X184140000Y-89310000D01*
X171300000Y-88430000D02*
X183260000Y-88430000D01*
X158170000Y-113710000D02*
X154590000Y-117290000D01*
X158170000Y-100780000D02*
X158170000Y-113710000D01*
X158980000Y-99970000D02*
X158170000Y-100780000D01*
X141010000Y-88210000D02*
X153170000Y-88210000D01*
X153170000Y-88210000D02*
X155090000Y-90130000D01*
X135680000Y-100110000D02*
X135010000Y-100780000D01*
X135010000Y-113320000D02*
X131210000Y-117120000D01*
X135010000Y-100780000D02*
X135010000Y-113320000D01*
X141010000Y-94780000D02*
X141010000Y-88210000D01*
X135680000Y-100110000D02*
X141010000Y-94780000D01*
X111820000Y-113470000D02*
X108060000Y-117230000D01*
X111820000Y-108790000D02*
X111820000Y-113470000D01*
X112370000Y-108240000D02*
X111820000Y-108790000D01*
X112370000Y-99890000D02*
X112370000Y-108240000D01*
X185410000Y-60600000D02*
X185410000Y-51380000D01*
X183940002Y-62069998D02*
X185410000Y-60600000D01*
X151710002Y-62069998D02*
X183940002Y-62069998D01*
X145080000Y-68700000D02*
X151710002Y-62069998D01*
X145080000Y-70350000D02*
X145080000Y-68700000D01*
X147460000Y-72730000D02*
X145080000Y-70350000D01*
X184290000Y-52640000D02*
X183090000Y-51440000D01*
X184290000Y-60380000D02*
X184290000Y-52640000D01*
X183240000Y-61430000D02*
X184290000Y-60380000D01*
X151380000Y-61430000D02*
X183240000Y-61430000D01*
X144430000Y-68380000D02*
X151380000Y-61430000D01*
X144430000Y-71670000D02*
X144430000Y-68380000D01*
X145530000Y-72770000D02*
X144430000Y-71670000D01*
X173410002Y-60829998D02*
X178080000Y-56160000D01*
X151131472Y-60829998D02*
X173410002Y-60829998D01*
X143790000Y-68171470D02*
X151131472Y-60829998D01*
X143790000Y-75810000D02*
X143790000Y-68171470D01*
X149200000Y-81220000D02*
X143790000Y-75810000D01*
X155180000Y-85140000D02*
X148620000Y-85140000D01*
X148620000Y-85140000D02*
X143189998Y-79709998D01*
X143189998Y-79709998D02*
X143189998Y-67890002D01*
X143189998Y-67890002D02*
X153640000Y-57440000D01*
X153640000Y-57440000D02*
X160890000Y-57440000D01*
X159130000Y-85140000D02*
X155180000Y-85140000D01*
X160020000Y-84250000D02*
X159130000Y-85140000D01*
X160020000Y-83380000D02*
X160020000Y-84250000D01*
X156680000Y-64740000D02*
X162750000Y-64740000D01*
X149280000Y-72140000D02*
X156680000Y-64740000D01*
X164550000Y-52960000D02*
X148740000Y-52960000D01*
X170950000Y-59360000D02*
X164550000Y-52960000D01*
X165370000Y-51740000D02*
X146720000Y-51740000D01*
X171030000Y-57400000D02*
X165370000Y-51740000D01*
D17*
G36*
X200230600Y-141328000D02*
X91634600Y-141328000D01*
X91634600Y-138529899D01*
X94930203Y-138529899D01*
X95307461Y-138984312D01*
X96710855Y-139471027D01*
X98193680Y-139383637D01*
X99157739Y-138984312D01*
X99534997Y-138529899D01*
X192297603Y-138529899D01*
X192674861Y-138984312D01*
X194078255Y-139471027D01*
X195561080Y-139383637D01*
X196525139Y-138984312D01*
X196902397Y-138529899D01*
X194600000Y-136227502D01*
X192297603Y-138529899D01*
X99534997Y-138529899D01*
X97232600Y-136227502D01*
X94930203Y-138529899D01*
X91634600Y-138529899D01*
X91634600Y-135178255D01*
X93461573Y-135178255D01*
X93548963Y-136661080D01*
X93948288Y-137625139D01*
X94402701Y-138002397D01*
X96705098Y-135700000D01*
X97760102Y-135700000D01*
X100062499Y-138002397D01*
X100516912Y-137625139D01*
X101003627Y-136221745D01*
X100916237Y-134738920D01*
X100516912Y-133774861D01*
X100062499Y-133397603D01*
X97760102Y-135700000D01*
X96705098Y-135700000D01*
X94402701Y-133397603D01*
X93948288Y-133774861D01*
X93461573Y-135178255D01*
X91634600Y-135178255D01*
X91634600Y-132870101D01*
X94930203Y-132870101D01*
X97232600Y-135172498D01*
X99534997Y-132870101D01*
X99157739Y-132415688D01*
X97754345Y-131928973D01*
X96271520Y-132016363D01*
X95307461Y-132415688D01*
X94930203Y-132870101D01*
X91634600Y-132870101D01*
X91634600Y-131705403D01*
X103905352Y-131705403D01*
X104122143Y-132230075D01*
X104523214Y-132631847D01*
X104805600Y-132749104D01*
X104805600Y-135176535D01*
X104525325Y-135292343D01*
X104123553Y-135693414D01*
X103905848Y-136217707D01*
X103905352Y-136785403D01*
X104122143Y-137310075D01*
X104523214Y-137711847D01*
X105047507Y-137929552D01*
X105615203Y-137930048D01*
X106139875Y-137713257D01*
X106541647Y-137312186D01*
X106759352Y-136787893D01*
X106759848Y-136220197D01*
X106543057Y-135695525D01*
X106141986Y-135293753D01*
X105859600Y-135176496D01*
X105859600Y-132749065D01*
X106139875Y-132633257D01*
X106541647Y-132232186D01*
X106759352Y-131707893D01*
X106759848Y-131140197D01*
X106543057Y-130615525D01*
X106141986Y-130213753D01*
X105859600Y-130096496D01*
X105859600Y-117443289D01*
X106982813Y-117443289D01*
X107146431Y-117839275D01*
X107449132Y-118142504D01*
X107844832Y-118306813D01*
X108273289Y-118307187D01*
X108669275Y-118143569D01*
X108972504Y-117840868D01*
X109136813Y-117445168D01*
X109137187Y-117016711D01*
X109102508Y-116932782D01*
X112192645Y-113842645D01*
X112306885Y-113671675D01*
X112347000Y-113470000D01*
X112347000Y-110210372D01*
X112461732Y-110325304D01*
X112545600Y-110360129D01*
X112545600Y-127562800D01*
X112585715Y-127764475D01*
X112699955Y-127935445D01*
X115622144Y-130857635D01*
X115505848Y-131137707D01*
X115505352Y-131705403D01*
X115722143Y-132230075D01*
X116123214Y-132631847D01*
X116405600Y-132749104D01*
X116405600Y-135176535D01*
X116125325Y-135292343D01*
X115723553Y-135693414D01*
X115505848Y-136217707D01*
X115505352Y-136785403D01*
X115722143Y-137310075D01*
X116123214Y-137711847D01*
X116647507Y-137929552D01*
X117215203Y-137930048D01*
X117739875Y-137713257D01*
X118141647Y-137312186D01*
X118359352Y-136787893D01*
X118359848Y-136220197D01*
X118143057Y-135695525D01*
X117741986Y-135293753D01*
X117459600Y-135176496D01*
X117459600Y-132749065D01*
X117739875Y-132633257D01*
X118141647Y-132232186D01*
X118359352Y-131707893D01*
X118359354Y-131705403D01*
X127105352Y-131705403D01*
X127322143Y-132230075D01*
X127723214Y-132631847D01*
X128005600Y-132749104D01*
X128005600Y-135176535D01*
X127725325Y-135292343D01*
X127323553Y-135693414D01*
X127105848Y-136217707D01*
X127105352Y-136785403D01*
X127322143Y-137310075D01*
X127723214Y-137711847D01*
X128247507Y-137929552D01*
X128815203Y-137930048D01*
X129339875Y-137713257D01*
X129741647Y-137312186D01*
X129959352Y-136787893D01*
X129959848Y-136220197D01*
X129743057Y-135695525D01*
X129341986Y-135293753D01*
X129059600Y-135176496D01*
X129059600Y-132749065D01*
X129339875Y-132633257D01*
X129741647Y-132232186D01*
X129959352Y-131707893D01*
X129959848Y-131140197D01*
X129743057Y-130615525D01*
X129341986Y-130213753D01*
X129079600Y-130104801D01*
X129079600Y-98701090D01*
X136205216Y-91575474D01*
X136287432Y-91609613D01*
X136715889Y-91609987D01*
X137111875Y-91446369D01*
X137415104Y-91143668D01*
X137579413Y-90747968D01*
X137579787Y-90319511D01*
X137416169Y-89923525D01*
X137113468Y-89620296D01*
X136717768Y-89455987D01*
X136289311Y-89455613D01*
X135893325Y-89619231D01*
X135590096Y-89921932D01*
X135425787Y-90317632D01*
X135425413Y-90746089D01*
X135460092Y-90830018D01*
X128179955Y-98110155D01*
X128065715Y-98281125D01*
X128065715Y-98281126D01*
X128025600Y-98482800D01*
X128025600Y-130088271D01*
X127725325Y-130212343D01*
X127323553Y-130613414D01*
X127105848Y-131137707D01*
X127105352Y-131705403D01*
X118359354Y-131705403D01*
X118359848Y-131140197D01*
X118143057Y-130615525D01*
X117741986Y-130213753D01*
X117217693Y-129996048D01*
X116649997Y-129995552D01*
X116367407Y-130112316D01*
X113599600Y-127344510D01*
X113599600Y-110360364D01*
X113681875Y-110326369D01*
X113985104Y-110023668D01*
X114149413Y-109627968D01*
X114149787Y-109199511D01*
X113986169Y-108803525D01*
X113683468Y-108500296D01*
X113287768Y-108335987D01*
X112877978Y-108335629D01*
X112897000Y-108240000D01*
X112897000Y-100837564D01*
X112979275Y-100803569D01*
X113282504Y-100500868D01*
X113446813Y-100105168D01*
X113447187Y-99676711D01*
X113283569Y-99280725D01*
X112980868Y-98977496D01*
X112585168Y-98813187D01*
X112156711Y-98812813D01*
X111760725Y-98976431D01*
X111457496Y-99279132D01*
X111293187Y-99674832D01*
X111292813Y-100103289D01*
X111456431Y-100499275D01*
X111759132Y-100802504D01*
X111843000Y-100837329D01*
X111843000Y-108021709D01*
X111447355Y-108417355D01*
X111333115Y-108588325D01*
X111305554Y-108726885D01*
X111293000Y-108790000D01*
X111293000Y-113251710D01*
X108357384Y-116187326D01*
X108275168Y-116153187D01*
X107846711Y-116152813D01*
X107450725Y-116316431D01*
X107147496Y-116619132D01*
X106983187Y-117014832D01*
X106982813Y-117443289D01*
X105859600Y-117443289D01*
X105859600Y-98721090D01*
X107587401Y-96993289D01*
X117042813Y-96993289D01*
X117206431Y-97389275D01*
X117509132Y-97692504D01*
X117904832Y-97856813D01*
X118333289Y-97857187D01*
X118729275Y-97693569D01*
X119032504Y-97390868D01*
X119196813Y-96995168D01*
X119197187Y-96566711D01*
X119033569Y-96170725D01*
X118730868Y-95867496D01*
X118647000Y-95832671D01*
X118647000Y-93898290D01*
X121153000Y-91392290D01*
X121153000Y-115762436D01*
X121070725Y-115796431D01*
X120767496Y-116099132D01*
X120603187Y-116494832D01*
X120602813Y-116923289D01*
X120766431Y-117319275D01*
X121069132Y-117622504D01*
X121464832Y-117786813D01*
X121893289Y-117787187D01*
X122289275Y-117623569D01*
X122592504Y-117320868D01*
X122756813Y-116925168D01*
X122757187Y-116496711D01*
X122593569Y-116100725D01*
X122290868Y-115797496D01*
X122207000Y-115762671D01*
X122207000Y-92335441D01*
X122266431Y-92479275D01*
X122569132Y-92782504D01*
X122964832Y-92946813D01*
X123393289Y-92947187D01*
X123789275Y-92783569D01*
X124092504Y-92480868D01*
X124256813Y-92085168D01*
X124257187Y-91656711D01*
X124093569Y-91260725D01*
X123790868Y-90957496D01*
X123707000Y-90922671D01*
X123707000Y-90638290D01*
X125608290Y-88737000D01*
X140062436Y-88737000D01*
X140096431Y-88819275D01*
X140399132Y-89122504D01*
X140483000Y-89157329D01*
X140483000Y-94561710D01*
X135977384Y-99067326D01*
X135895168Y-99033187D01*
X135466711Y-99032813D01*
X135070725Y-99196431D01*
X134767496Y-99499132D01*
X134603187Y-99894832D01*
X134602813Y-100323289D01*
X134637492Y-100407218D01*
X134637355Y-100407355D01*
X134523115Y-100578325D01*
X134523115Y-100578326D01*
X134483000Y-100780000D01*
X134483000Y-113101709D01*
X131507384Y-116077326D01*
X131425168Y-116043187D01*
X130996711Y-116042813D01*
X130600725Y-116206431D01*
X130297496Y-116509132D01*
X130133187Y-116904832D01*
X130132813Y-117333289D01*
X130296431Y-117729275D01*
X130599132Y-118032504D01*
X130994832Y-118196813D01*
X131423289Y-118197187D01*
X131819275Y-118033569D01*
X132122504Y-117730868D01*
X132286813Y-117335168D01*
X132287187Y-116906711D01*
X132252508Y-116822782D01*
X135382646Y-113692645D01*
X135496885Y-113521674D01*
X135537000Y-113320000D01*
X135537000Y-110160320D01*
X135681732Y-110305304D01*
X135765600Y-110340129D01*
X135765600Y-127542800D01*
X135805715Y-127744475D01*
X135919955Y-127915445D01*
X138833880Y-130829371D01*
X138705848Y-131137707D01*
X138705352Y-131705403D01*
X138922143Y-132230075D01*
X139323214Y-132631847D01*
X139605600Y-132749104D01*
X139605600Y-135176535D01*
X139325325Y-135292343D01*
X138923553Y-135693414D01*
X138705848Y-136217707D01*
X138705352Y-136785403D01*
X138922143Y-137310075D01*
X139323214Y-137711847D01*
X139847507Y-137929552D01*
X140415203Y-137930048D01*
X140939875Y-137713257D01*
X141341647Y-137312186D01*
X141559352Y-136787893D01*
X141559848Y-136220197D01*
X141343057Y-135695525D01*
X140941986Y-135293753D01*
X140659600Y-135176496D01*
X140659600Y-132749065D01*
X140939875Y-132633257D01*
X141341647Y-132232186D01*
X141559352Y-131707893D01*
X141559848Y-131140197D01*
X141343057Y-130615525D01*
X140941986Y-130213753D01*
X140417693Y-129996048D01*
X139849997Y-129995552D01*
X139595712Y-130100621D01*
X136819600Y-127324510D01*
X136819600Y-110340364D01*
X136901875Y-110306369D01*
X137205104Y-110003668D01*
X137369413Y-109607968D01*
X137369787Y-109179511D01*
X137206169Y-108783525D01*
X136903468Y-108480296D01*
X136507768Y-108315987D01*
X136079311Y-108315613D01*
X135683325Y-108479231D01*
X135537000Y-108625301D01*
X135537000Y-101186876D01*
X135893289Y-101187187D01*
X136289275Y-101023569D01*
X136592504Y-100720868D01*
X136756813Y-100325168D01*
X136757187Y-99896711D01*
X136722508Y-99812782D01*
X140193146Y-96342144D01*
X140192813Y-96723289D01*
X140356431Y-97119275D01*
X140659132Y-97422504D01*
X141054832Y-97586813D01*
X141483289Y-97587187D01*
X141879275Y-97423569D01*
X142182504Y-97120868D01*
X142204872Y-97067000D01*
X150226240Y-97067000D01*
X144527355Y-102765885D01*
X144413115Y-102936855D01*
X144413115Y-102936856D01*
X144373000Y-103138530D01*
X144373000Y-115672436D01*
X144290725Y-115706431D01*
X143987496Y-116009132D01*
X143823187Y-116404832D01*
X143822813Y-116833289D01*
X143986431Y-117229275D01*
X144289132Y-117532504D01*
X144684832Y-117696813D01*
X145113289Y-117697187D01*
X145509275Y-117533569D01*
X145812504Y-117230868D01*
X145976813Y-116835168D01*
X145977187Y-116406711D01*
X145813569Y-116010725D01*
X145510868Y-115707496D01*
X145427000Y-115672671D01*
X145427000Y-103356820D01*
X158674915Y-90108905D01*
X158575787Y-90347632D01*
X158575413Y-90776089D01*
X158610092Y-90860018D01*
X151329955Y-98140155D01*
X151215715Y-98311125D01*
X151215715Y-98311126D01*
X151175600Y-98512800D01*
X151175600Y-130108931D01*
X150925325Y-130212343D01*
X150523553Y-130613414D01*
X150305848Y-131137707D01*
X150305352Y-131705403D01*
X150522143Y-132230075D01*
X150923214Y-132631847D01*
X151205600Y-132749104D01*
X151205600Y-135176535D01*
X150925325Y-135292343D01*
X150523553Y-135693414D01*
X150305848Y-136217707D01*
X150305352Y-136785403D01*
X150522143Y-137310075D01*
X150923214Y-137711847D01*
X151447507Y-137929552D01*
X152015203Y-137930048D01*
X152539875Y-137713257D01*
X152941647Y-137312186D01*
X153159352Y-136787893D01*
X153159848Y-136220197D01*
X152943057Y-135695525D01*
X152541986Y-135293753D01*
X152259600Y-135176496D01*
X152259600Y-132749065D01*
X152539875Y-132633257D01*
X152941647Y-132232186D01*
X153159352Y-131707893D01*
X153159848Y-131140197D01*
X152943057Y-130615525D01*
X152541986Y-130213753D01*
X152229600Y-130084039D01*
X152229600Y-117503289D01*
X153512813Y-117503289D01*
X153676431Y-117899275D01*
X153979132Y-118202504D01*
X154374832Y-118366813D01*
X154803289Y-118367187D01*
X155199275Y-118203569D01*
X155502504Y-117900868D01*
X155666813Y-117505168D01*
X155667187Y-117076711D01*
X155632508Y-116992782D01*
X158542646Y-114082645D01*
X158656885Y-113911674D01*
X158697000Y-113710000D01*
X158697000Y-110200337D01*
X158831732Y-110335304D01*
X158915600Y-110370129D01*
X158915600Y-127572800D01*
X158955715Y-127774475D01*
X159069955Y-127945445D01*
X162010408Y-130885899D01*
X161905848Y-131137707D01*
X161905352Y-131705403D01*
X162122143Y-132230075D01*
X162523214Y-132631847D01*
X162805600Y-132749104D01*
X162805600Y-135176535D01*
X162525325Y-135292343D01*
X162123553Y-135693414D01*
X161905848Y-136217707D01*
X161905352Y-136785403D01*
X162122143Y-137310075D01*
X162523214Y-137711847D01*
X163047507Y-137929552D01*
X163615203Y-137930048D01*
X164139875Y-137713257D01*
X164541647Y-137312186D01*
X164759352Y-136787893D01*
X164759848Y-136220197D01*
X164543057Y-135695525D01*
X164141986Y-135293753D01*
X163859600Y-135176496D01*
X163859600Y-132749065D01*
X164139875Y-132633257D01*
X164541647Y-132232186D01*
X164759352Y-131707893D01*
X164759848Y-131140197D01*
X164543057Y-130615525D01*
X164141986Y-130213753D01*
X163617693Y-129996048D01*
X163049997Y-129995552D01*
X162739102Y-130124012D01*
X159969600Y-127354510D01*
X159969600Y-110370364D01*
X160051875Y-110336369D01*
X160355104Y-110033668D01*
X160519413Y-109637968D01*
X160519787Y-109209511D01*
X160356169Y-108813525D01*
X160053468Y-108510296D01*
X159657768Y-108345987D01*
X159229311Y-108345613D01*
X158833325Y-108509231D01*
X158697000Y-108645319D01*
X158697000Y-101018647D01*
X158764832Y-101046813D01*
X159193289Y-101047187D01*
X159589275Y-100883569D01*
X159892504Y-100580868D01*
X160056813Y-100185168D01*
X160057187Y-99756711D01*
X159893569Y-99360725D01*
X159590868Y-99057496D01*
X159195168Y-98893187D01*
X158766711Y-98892813D01*
X158370725Y-99056431D01*
X158067496Y-99359132D01*
X157903187Y-99754832D01*
X157902813Y-100183289D01*
X157937492Y-100267218D01*
X157797355Y-100407355D01*
X157683115Y-100578325D01*
X157683115Y-100578326D01*
X157643000Y-100780000D01*
X157643000Y-113491709D01*
X154887384Y-116247326D01*
X154805168Y-116213187D01*
X154376711Y-116212813D01*
X153980725Y-116376431D01*
X153677496Y-116679132D01*
X153513187Y-117074832D01*
X153512813Y-117503289D01*
X152229600Y-117503289D01*
X152229600Y-98731090D01*
X159355216Y-91605474D01*
X159437432Y-91639613D01*
X159865889Y-91639987D01*
X160261875Y-91476369D01*
X160565104Y-91173668D01*
X160729413Y-90777968D01*
X160729787Y-90349511D01*
X160566169Y-89953525D01*
X160263468Y-89650296D01*
X159867768Y-89485987D01*
X159439311Y-89485613D01*
X159198851Y-89584969D01*
X166923000Y-81860820D01*
X166923000Y-89011710D01*
X162417384Y-93517326D01*
X162335168Y-93483187D01*
X161906711Y-93482813D01*
X161510725Y-93646431D01*
X161207496Y-93949132D01*
X161043187Y-94344832D01*
X161042813Y-94773289D01*
X161206431Y-95169275D01*
X161509132Y-95472504D01*
X161904832Y-95636813D01*
X162333289Y-95637187D01*
X162729275Y-95473569D01*
X163032504Y-95170868D01*
X163196813Y-94775168D01*
X163197187Y-94346711D01*
X163162508Y-94262782D01*
X167543002Y-89882288D01*
X167543002Y-115898303D01*
X167450725Y-115936431D01*
X167147496Y-116239132D01*
X166983187Y-116634832D01*
X166982813Y-117063289D01*
X167146431Y-117459275D01*
X167449132Y-117762504D01*
X167844832Y-117926813D01*
X168273289Y-117927187D01*
X168669275Y-117763569D01*
X168972504Y-117460868D01*
X169136813Y-117065168D01*
X169137187Y-116636711D01*
X168973569Y-116240725D01*
X168670868Y-115937496D01*
X168597002Y-115906824D01*
X168597002Y-78559987D01*
X168819132Y-78782504D01*
X168873000Y-78804872D01*
X168873000Y-83620004D01*
X168913115Y-83821679D01*
X169027355Y-83992649D01*
X171997351Y-86962646D01*
X172093664Y-87027000D01*
X172168322Y-87076885D01*
X172369996Y-87117000D01*
X184651710Y-87117000D01*
X184833000Y-87298291D01*
X184833000Y-93612436D01*
X184750725Y-93646431D01*
X184667000Y-93730010D01*
X184667000Y-89310000D01*
X184626885Y-89108326D01*
X184626885Y-89108325D01*
X184512645Y-88937355D01*
X183632645Y-88057355D01*
X183461675Y-87943115D01*
X183260000Y-87903000D01*
X172247564Y-87903000D01*
X172213569Y-87820725D01*
X171910868Y-87517496D01*
X171515168Y-87353187D01*
X171086711Y-87352813D01*
X170690725Y-87516431D01*
X170387496Y-87819132D01*
X170223187Y-88214832D01*
X170222813Y-88643289D01*
X170386431Y-89039275D01*
X170689132Y-89342504D01*
X171084832Y-89506813D01*
X171513289Y-89507187D01*
X171909275Y-89343569D01*
X172212504Y-89040868D01*
X172247329Y-88957000D01*
X183041710Y-88957000D01*
X183613000Y-89528290D01*
X183613000Y-89760054D01*
X183483468Y-89630296D01*
X183087768Y-89465987D01*
X182659311Y-89465613D01*
X182263325Y-89629231D01*
X181960096Y-89931932D01*
X181795787Y-90327632D01*
X181795413Y-90756089D01*
X181830092Y-90840018D01*
X174549955Y-98120155D01*
X174435715Y-98291125D01*
X174435715Y-98291126D01*
X174395600Y-98492800D01*
X174395600Y-130100667D01*
X174125325Y-130212343D01*
X173723553Y-130613414D01*
X173505848Y-131137707D01*
X173505352Y-131705403D01*
X173722143Y-132230075D01*
X174123214Y-132631847D01*
X174405600Y-132749104D01*
X174405600Y-135176535D01*
X174125325Y-135292343D01*
X173723553Y-135693414D01*
X173505848Y-136217707D01*
X173505352Y-136785403D01*
X173722143Y-137310075D01*
X174123214Y-137711847D01*
X174647507Y-137929552D01*
X175215203Y-137930048D01*
X175739875Y-137713257D01*
X176141647Y-137312186D01*
X176359352Y-136787893D01*
X176359848Y-136220197D01*
X176143057Y-135695525D01*
X175741986Y-135293753D01*
X175459600Y-135176496D01*
X175459600Y-132749065D01*
X175739875Y-132633257D01*
X176141647Y-132232186D01*
X176359352Y-131707893D01*
X176359848Y-131140197D01*
X176143057Y-130615525D01*
X175741986Y-130213753D01*
X175449600Y-130092344D01*
X175449600Y-98711090D01*
X182575216Y-91585474D01*
X182657432Y-91619613D01*
X183085889Y-91619987D01*
X183481875Y-91456369D01*
X183613000Y-91325472D01*
X183613000Y-97461709D01*
X182487384Y-98587326D01*
X182405168Y-98553187D01*
X181976711Y-98552813D01*
X181580725Y-98716431D01*
X181277496Y-99019132D01*
X181113187Y-99414832D01*
X181112813Y-99843289D01*
X181147492Y-99927218D01*
X181017355Y-100057355D01*
X180903115Y-100228325D01*
X180903115Y-100228326D01*
X180863000Y-100430000D01*
X180863000Y-113551710D01*
X178167384Y-116247326D01*
X178085168Y-116213187D01*
X177656711Y-116212813D01*
X177260725Y-116376431D01*
X176957496Y-116679132D01*
X176793187Y-117074832D01*
X176792813Y-117503289D01*
X176956431Y-117899275D01*
X177259132Y-118202504D01*
X177654832Y-118366813D01*
X178083289Y-118367187D01*
X178479275Y-118203569D01*
X178782504Y-117900868D01*
X178946813Y-117505168D01*
X178947187Y-117076711D01*
X178912508Y-116992782D01*
X181762645Y-114142645D01*
X181876885Y-113971674D01*
X181917000Y-113770000D01*
X181917000Y-110180337D01*
X182051732Y-110315304D01*
X182135600Y-110350129D01*
X182135600Y-127552800D01*
X182175715Y-127754475D01*
X182289955Y-127925445D01*
X185222144Y-130857635D01*
X185105848Y-131137707D01*
X185105352Y-131705403D01*
X185322143Y-132230075D01*
X185723214Y-132631847D01*
X186005600Y-132749104D01*
X186005600Y-135176535D01*
X185725325Y-135292343D01*
X185323553Y-135693414D01*
X185105848Y-136217707D01*
X185105352Y-136785403D01*
X185322143Y-137310075D01*
X185723214Y-137711847D01*
X186247507Y-137929552D01*
X186815203Y-137930048D01*
X187339875Y-137713257D01*
X187741647Y-137312186D01*
X187959352Y-136787893D01*
X187959848Y-136220197D01*
X187743057Y-135695525D01*
X187341986Y-135293753D01*
X187063837Y-135178255D01*
X190828973Y-135178255D01*
X190916363Y-136661080D01*
X191315688Y-137625139D01*
X191770101Y-138002397D01*
X194072498Y-135700000D01*
X195127502Y-135700000D01*
X197429899Y-138002397D01*
X197884312Y-137625139D01*
X198371027Y-136221745D01*
X198283637Y-134738920D01*
X197884312Y-133774861D01*
X197429899Y-133397603D01*
X195127502Y-135700000D01*
X194072498Y-135700000D01*
X191770101Y-133397603D01*
X191315688Y-133774861D01*
X190828973Y-135178255D01*
X187063837Y-135178255D01*
X187059600Y-135176496D01*
X187059600Y-132870101D01*
X192297603Y-132870101D01*
X194600000Y-135172498D01*
X196902397Y-132870101D01*
X196525139Y-132415688D01*
X195121745Y-131928973D01*
X193638920Y-132016363D01*
X192674861Y-132415688D01*
X192297603Y-132870101D01*
X187059600Y-132870101D01*
X187059600Y-132749065D01*
X187339875Y-132633257D01*
X187741647Y-132232186D01*
X187959352Y-131707893D01*
X187959848Y-131140197D01*
X187743057Y-130615525D01*
X187341986Y-130213753D01*
X186817693Y-129996048D01*
X186249997Y-129995552D01*
X185967407Y-130112316D01*
X183189600Y-127334510D01*
X183189600Y-110350364D01*
X183271875Y-110316369D01*
X183575104Y-110013668D01*
X183739413Y-109617968D01*
X183739787Y-109189511D01*
X183576169Y-108793525D01*
X183273468Y-108490296D01*
X182877768Y-108325987D01*
X182449311Y-108325613D01*
X182053325Y-108489231D01*
X181917000Y-108625319D01*
X181917000Y-100682799D01*
X181974832Y-100706813D01*
X182403289Y-100707187D01*
X182799275Y-100543569D01*
X183102504Y-100240868D01*
X183266813Y-99845168D01*
X183267187Y-99416711D01*
X183232508Y-99332782D01*
X184512645Y-98052646D01*
X184626884Y-97881675D01*
X184626885Y-97881674D01*
X184667000Y-97680000D01*
X184667000Y-95390229D01*
X184749132Y-95472504D01*
X185144832Y-95636813D01*
X185573289Y-95637187D01*
X185969275Y-95473569D01*
X186272504Y-95170868D01*
X186436813Y-94775168D01*
X186437187Y-94346711D01*
X186273569Y-93950725D01*
X185970868Y-93647496D01*
X185887000Y-93612671D01*
X185887000Y-87422290D01*
X190923000Y-92458290D01*
X190923000Y-116172436D01*
X190840725Y-116206431D01*
X190537496Y-116509132D01*
X190373187Y-116904832D01*
X190372813Y-117333289D01*
X190536431Y-117729275D01*
X190839132Y-118032504D01*
X191234832Y-118196813D01*
X191663289Y-118197187D01*
X192059275Y-118033569D01*
X192362504Y-117730868D01*
X192526813Y-117335168D01*
X192527187Y-116906711D01*
X192363569Y-116510725D01*
X192060868Y-116207496D01*
X191977000Y-116172671D01*
X191977000Y-92240000D01*
X191936885Y-92038325D01*
X191822645Y-91867355D01*
X185552645Y-85597355D01*
X185381675Y-85483115D01*
X185180000Y-85443000D01*
X179672290Y-85443000D01*
X181062645Y-84052645D01*
X181176885Y-83881674D01*
X181217000Y-83680000D01*
X181217000Y-81077564D01*
X181299275Y-81043569D01*
X181602504Y-80740868D01*
X181766813Y-80345168D01*
X181767187Y-79916711D01*
X181603569Y-79520725D01*
X181300868Y-79217496D01*
X181217000Y-79182671D01*
X181217000Y-74409960D01*
X181329275Y-74363569D01*
X181632504Y-74060868D01*
X181796813Y-73665168D01*
X181797187Y-73236711D01*
X181633569Y-72840725D01*
X181330868Y-72537496D01*
X180935168Y-72373187D01*
X180506711Y-72372813D01*
X180110725Y-72536431D01*
X179807496Y-72839132D01*
X179643187Y-73234832D01*
X179642813Y-73663289D01*
X179806431Y-74059275D01*
X180109132Y-74362504D01*
X180163000Y-74384872D01*
X180163000Y-79182436D01*
X180080725Y-79216431D01*
X179777496Y-79519132D01*
X179613187Y-79914832D01*
X179612813Y-80343289D01*
X179776431Y-80739275D01*
X180079132Y-81042504D01*
X180163000Y-81077329D01*
X180163000Y-83461710D01*
X178791710Y-84833000D01*
X173218291Y-84833000D01*
X172037002Y-83651712D01*
X172037002Y-83513289D01*
X172202813Y-83513289D01*
X172366431Y-83909275D01*
X172669132Y-84212504D01*
X173064832Y-84376813D01*
X173493289Y-84377187D01*
X173889275Y-84213569D01*
X174192504Y-83910868D01*
X174233700Y-83811657D01*
X174286431Y-83939275D01*
X174589132Y-84242504D01*
X174984832Y-84406813D01*
X175413289Y-84407187D01*
X175809275Y-84243569D01*
X176112504Y-83940868D01*
X176113601Y-83938225D01*
X176126431Y-83969275D01*
X176429132Y-84272504D01*
X176824832Y-84436813D01*
X177253289Y-84437187D01*
X177649275Y-84273569D01*
X177952504Y-83970868D01*
X178116813Y-83575168D01*
X178117187Y-83146711D01*
X177953569Y-82750725D01*
X177650868Y-82447496D01*
X177567000Y-82412671D01*
X177567000Y-74130200D01*
X177533540Y-73961985D01*
X177526885Y-73928525D01*
X177412645Y-73757555D01*
X175051783Y-71396693D01*
X175109395Y-71257947D01*
X175109804Y-70789707D01*
X174930994Y-70356954D01*
X174600188Y-70025570D01*
X174167747Y-69846005D01*
X173699507Y-69845596D01*
X173266754Y-70024406D01*
X172935370Y-70355212D01*
X172755805Y-70787653D01*
X172755396Y-71255893D01*
X172934206Y-71688646D01*
X173265012Y-72020030D01*
X173697453Y-72199595D01*
X174165693Y-72200004D01*
X174306382Y-72141872D01*
X176513000Y-74348490D01*
X176513000Y-82412436D01*
X176430725Y-82446431D01*
X176127496Y-82749132D01*
X176126399Y-82751775D01*
X176113569Y-82720725D01*
X175907000Y-82513796D01*
X175907000Y-76670200D01*
X175866885Y-76468526D01*
X175752645Y-76297555D01*
X175051783Y-75596693D01*
X175109395Y-75457947D01*
X175109804Y-74989707D01*
X174930994Y-74556954D01*
X174600188Y-74225570D01*
X174167747Y-74046005D01*
X173699507Y-74045596D01*
X173266754Y-74224406D01*
X172935370Y-74555212D01*
X172755805Y-74987653D01*
X172755396Y-75455893D01*
X172934206Y-75888646D01*
X173265012Y-76220030D01*
X173697453Y-76399595D01*
X174165693Y-76400004D01*
X174306382Y-76341872D01*
X174853000Y-76888490D01*
X174853000Y-78678824D01*
X174600188Y-78425570D01*
X174167747Y-78246005D01*
X173699507Y-78245596D01*
X173266754Y-78424406D01*
X172935370Y-78755212D01*
X172755805Y-79187653D01*
X172755396Y-79655893D01*
X172934206Y-80088646D01*
X173265012Y-80420030D01*
X173405600Y-80478407D01*
X173405600Y-82223109D01*
X173066711Y-82222813D01*
X172670725Y-82386431D01*
X172367496Y-82689132D01*
X172203187Y-83084832D01*
X172202813Y-83513289D01*
X172037002Y-83513289D01*
X172037002Y-74310002D01*
X171996887Y-74108328D01*
X171996887Y-74108327D01*
X171882647Y-73937357D01*
X170972674Y-73027384D01*
X171006813Y-72945168D01*
X171007187Y-72516711D01*
X170843569Y-72120725D01*
X170540868Y-71817496D01*
X170145168Y-71653187D01*
X169716711Y-71652813D01*
X169320725Y-71816431D01*
X169017496Y-72119132D01*
X168853187Y-72514832D01*
X168852813Y-72943289D01*
X169016431Y-73339275D01*
X169319132Y-73642504D01*
X169714832Y-73806813D01*
X170143289Y-73807187D01*
X170227218Y-73772508D01*
X170983002Y-74528292D01*
X170983002Y-75395573D01*
X170873569Y-75130725D01*
X170570868Y-74827496D01*
X170175168Y-74663187D01*
X169746711Y-74662813D01*
X169350725Y-74826431D01*
X169047496Y-75129132D01*
X168883187Y-75524832D01*
X168882813Y-75953289D01*
X169046431Y-76349275D01*
X169349132Y-76652504D01*
X169744832Y-76816813D01*
X170173289Y-76817187D01*
X170257218Y-76782508D01*
X170383000Y-76908290D01*
X170383000Y-77356155D01*
X170343569Y-77260725D01*
X170040868Y-76957496D01*
X169645168Y-76793187D01*
X169216711Y-76792813D01*
X168820725Y-76956431D01*
X168597002Y-77179764D01*
X168597002Y-72660002D01*
X168556887Y-72458328D01*
X168442647Y-72287357D01*
X164032674Y-67877384D01*
X164066813Y-67795168D01*
X164067187Y-67366711D01*
X163903569Y-66970725D01*
X163600868Y-66667496D01*
X163205168Y-66503187D01*
X162776711Y-66502813D01*
X162380725Y-66666431D01*
X162077496Y-66969132D01*
X161913187Y-67364832D01*
X161912813Y-67793289D01*
X162008778Y-68025542D01*
X161930868Y-67947496D01*
X161535168Y-67783187D01*
X161106711Y-67782813D01*
X160710725Y-67946431D01*
X160407496Y-68249132D01*
X160243187Y-68644832D01*
X160242813Y-69073289D01*
X160389662Y-69428690D01*
X160015168Y-69273187D01*
X159586711Y-69272813D01*
X159190725Y-69436431D01*
X158887496Y-69739132D01*
X158723187Y-70134832D01*
X158722813Y-70563289D01*
X158886431Y-70959275D01*
X159019840Y-71092917D01*
X158635168Y-70933187D01*
X158206711Y-70932813D01*
X157810725Y-71096431D01*
X157507496Y-71399132D01*
X157343187Y-71794832D01*
X157342813Y-72223289D01*
X157506431Y-72619275D01*
X157809132Y-72922504D01*
X158204832Y-73086813D01*
X158633289Y-73087187D01*
X159029275Y-72923569D01*
X159332504Y-72620868D01*
X159367329Y-72537000D01*
X161580155Y-72537000D01*
X161277496Y-72839132D01*
X161113187Y-73234832D01*
X161112821Y-73654326D01*
X160845168Y-73543187D01*
X160416711Y-73542813D01*
X160020725Y-73706431D01*
X159717496Y-74009132D01*
X159553187Y-74404832D01*
X159552813Y-74833289D01*
X159716431Y-75229275D01*
X160019132Y-75532504D01*
X160414832Y-75696813D01*
X160843289Y-75697187D01*
X160927218Y-75662508D01*
X161943000Y-76678290D01*
X161943000Y-82493180D01*
X161097036Y-83339144D01*
X161097187Y-83166711D01*
X160933569Y-82770725D01*
X160630868Y-82467496D01*
X160235168Y-82303187D01*
X159806711Y-82302813D01*
X159410725Y-82466431D01*
X159107496Y-82769132D01*
X158943187Y-83164832D01*
X158942813Y-83593289D01*
X159106431Y-83989275D01*
X159320746Y-84203964D01*
X158911710Y-84613000D01*
X148838291Y-84613000D01*
X143716998Y-79491708D01*
X143716998Y-76482288D01*
X148157326Y-80922617D01*
X148123187Y-81004832D01*
X148122813Y-81433289D01*
X148286431Y-81829275D01*
X148589132Y-82132504D01*
X148984832Y-82296813D01*
X149413289Y-82297187D01*
X149809275Y-82133569D01*
X150112504Y-81830868D01*
X150276813Y-81435168D01*
X150277187Y-81006711D01*
X150113569Y-80610725D01*
X149810868Y-80307496D01*
X149415168Y-80143187D01*
X148986711Y-80142813D01*
X148902782Y-80177492D01*
X144317000Y-75591710D01*
X144317000Y-72302290D01*
X144487326Y-72472616D01*
X144453187Y-72554832D01*
X144452813Y-72983289D01*
X144616431Y-73379275D01*
X144919132Y-73682504D01*
X145314832Y-73846813D01*
X145743289Y-73847187D01*
X146139275Y-73683569D01*
X146442504Y-73380868D01*
X146503210Y-73234672D01*
X146546431Y-73339275D01*
X146849132Y-73642504D01*
X147244832Y-73806813D01*
X147673289Y-73807187D01*
X148069275Y-73643569D01*
X148372504Y-73340868D01*
X148536813Y-72945168D01*
X148536835Y-72919976D01*
X148669132Y-73052504D01*
X149064832Y-73216813D01*
X149493289Y-73217187D01*
X149889275Y-73053569D01*
X150192504Y-72750868D01*
X150356813Y-72355168D01*
X150357187Y-71926711D01*
X150322508Y-71842782D01*
X156322001Y-65843289D01*
X181562813Y-65843289D01*
X181726431Y-66239275D01*
X182029132Y-66542504D01*
X182113000Y-66577329D01*
X182113000Y-73694831D01*
X182060725Y-73716431D01*
X181757496Y-74019132D01*
X181593187Y-74414832D01*
X181592813Y-74843289D01*
X181756431Y-75239275D01*
X182059132Y-75542504D01*
X182454832Y-75706813D01*
X182883289Y-75707187D01*
X183279275Y-75543569D01*
X183582504Y-75240868D01*
X183746813Y-74845168D01*
X183747187Y-74416711D01*
X183583569Y-74020725D01*
X183280868Y-73717496D01*
X183167000Y-73670214D01*
X183167000Y-66577564D01*
X183249275Y-66543569D01*
X183552504Y-66240868D01*
X183716813Y-65845168D01*
X183717187Y-65416711D01*
X183553569Y-65020725D01*
X183250868Y-64717496D01*
X182855168Y-64553187D01*
X182426711Y-64552813D01*
X182030725Y-64716431D01*
X181727496Y-65019132D01*
X181563187Y-65414832D01*
X181562813Y-65843289D01*
X156322001Y-65843289D01*
X156898291Y-65267000D01*
X161802436Y-65267000D01*
X161836431Y-65349275D01*
X162139132Y-65652504D01*
X162534832Y-65816813D01*
X162963289Y-65817187D01*
X163359275Y-65653569D01*
X163662504Y-65350868D01*
X163826813Y-64955168D01*
X163827187Y-64526711D01*
X163663569Y-64130725D01*
X163400303Y-63867000D01*
X182701710Y-63867000D01*
X184603000Y-65768290D01*
X184603000Y-78511709D01*
X183467384Y-79647326D01*
X183385168Y-79613187D01*
X182956711Y-79612813D01*
X182560725Y-79776431D01*
X182257496Y-80079132D01*
X182093187Y-80474832D01*
X182092813Y-80903289D01*
X182256431Y-81299275D01*
X182559132Y-81602504D01*
X182954832Y-81766813D01*
X183383289Y-81767187D01*
X183779275Y-81603569D01*
X184082504Y-81300868D01*
X184246813Y-80905168D01*
X184247187Y-80476711D01*
X184212508Y-80392782D01*
X185502646Y-79102645D01*
X185616885Y-78931674D01*
X185657000Y-78730000D01*
X185657000Y-65932290D01*
X188453000Y-68728290D01*
X188453000Y-77922436D01*
X188370725Y-77956431D01*
X188067496Y-78259132D01*
X187903187Y-78654832D01*
X187902813Y-79083289D01*
X188066431Y-79479275D01*
X188369132Y-79782504D01*
X188764832Y-79946813D01*
X189193289Y-79947187D01*
X189589275Y-79783569D01*
X189892504Y-79480868D01*
X190056813Y-79085168D01*
X190057187Y-78656711D01*
X189893569Y-78260725D01*
X189590868Y-77957496D01*
X189507000Y-77922671D01*
X189507000Y-68510000D01*
X189466885Y-68308326D01*
X189466885Y-68308325D01*
X189352645Y-68137355D01*
X183812288Y-62596998D01*
X183940002Y-62596998D01*
X184141677Y-62556883D01*
X184312647Y-62442643D01*
X185782645Y-60972645D01*
X185896885Y-60801675D01*
X185937000Y-60600000D01*
X185937000Y-52327564D01*
X186019275Y-52293569D01*
X186322504Y-51990868D01*
X186486813Y-51595168D01*
X186487187Y-51166711D01*
X186323569Y-50770725D01*
X186020868Y-50467496D01*
X185625168Y-50303187D01*
X185196711Y-50302813D01*
X184800725Y-50466431D01*
X184497496Y-50769132D01*
X184333187Y-51164832D01*
X184332813Y-51593289D01*
X184496431Y-51989275D01*
X184799132Y-52292504D01*
X184883000Y-52327329D01*
X184883000Y-60381710D01*
X184800188Y-60464522D01*
X184817000Y-60380000D01*
X184817000Y-52640000D01*
X184776885Y-52438326D01*
X184776885Y-52438325D01*
X184662645Y-52267355D01*
X184132674Y-51737384D01*
X184166813Y-51655168D01*
X184167187Y-51226711D01*
X184003569Y-50830725D01*
X183700868Y-50527496D01*
X183305168Y-50363187D01*
X182876711Y-50362813D01*
X182480725Y-50526431D01*
X182177496Y-50829132D01*
X182013187Y-51224832D01*
X182012813Y-51653289D01*
X182176431Y-52049275D01*
X182479132Y-52352504D01*
X182874832Y-52516813D01*
X183303289Y-52517187D01*
X183387218Y-52482508D01*
X183763000Y-52858290D01*
X183763000Y-60161710D01*
X183021710Y-60903000D01*
X174082290Y-60903000D01*
X177782617Y-57202674D01*
X177864832Y-57236813D01*
X178293289Y-57237187D01*
X178689275Y-57073569D01*
X178992504Y-56770868D01*
X179156813Y-56375168D01*
X179157187Y-55946711D01*
X178993569Y-55550725D01*
X178690868Y-55247496D01*
X178295168Y-55083187D01*
X177866711Y-55082813D01*
X177470725Y-55246431D01*
X177167496Y-55549132D01*
X177003187Y-55944832D01*
X177002813Y-56373289D01*
X177037492Y-56457218D01*
X173191712Y-60302998D01*
X171488051Y-60302998D01*
X171559275Y-60273569D01*
X171862504Y-59970868D01*
X172026813Y-59575168D01*
X172027187Y-59146711D01*
X171863569Y-58750725D01*
X171560868Y-58447496D01*
X171438311Y-58396606D01*
X171639275Y-58313569D01*
X171942504Y-58010868D01*
X172106813Y-57615168D01*
X172107187Y-57186711D01*
X171943569Y-56790725D01*
X171640868Y-56487496D01*
X171245168Y-56323187D01*
X170816711Y-56322813D01*
X170732782Y-56357492D01*
X165742645Y-51367355D01*
X165571675Y-51253115D01*
X165370000Y-51213000D01*
X147667564Y-51213000D01*
X147633569Y-51130725D01*
X147330868Y-50827496D01*
X146935168Y-50663187D01*
X146506711Y-50662813D01*
X146110725Y-50826431D01*
X145807496Y-51129132D01*
X145643187Y-51524832D01*
X145642813Y-51953289D01*
X145806431Y-52349275D01*
X146109132Y-52652504D01*
X146504832Y-52816813D01*
X146933289Y-52817187D01*
X147329275Y-52653569D01*
X147632504Y-52350868D01*
X147667329Y-52267000D01*
X147909771Y-52267000D01*
X147827496Y-52349132D01*
X147663187Y-52744832D01*
X147662813Y-53173289D01*
X147826431Y-53569275D01*
X148129132Y-53872504D01*
X148524832Y-54036813D01*
X148953289Y-54037187D01*
X149349275Y-53873569D01*
X149652504Y-53570868D01*
X149687329Y-53487000D01*
X164331710Y-53487000D01*
X169907326Y-59062616D01*
X169873187Y-59144832D01*
X169872813Y-59573289D01*
X170036431Y-59969275D01*
X170339132Y-60272504D01*
X170412570Y-60302998D01*
X151522293Y-60302998D01*
X153858291Y-57967000D01*
X159942436Y-57967000D01*
X159976431Y-58049275D01*
X160279132Y-58352504D01*
X160674832Y-58516813D01*
X161103289Y-58517187D01*
X161499275Y-58353569D01*
X161802504Y-58050868D01*
X161966813Y-57655168D01*
X161967187Y-57226711D01*
X161803569Y-56830725D01*
X161500868Y-56527496D01*
X161105168Y-56363187D01*
X160676711Y-56362813D01*
X160280725Y-56526431D01*
X159977496Y-56829132D01*
X159942671Y-56913000D01*
X153640000Y-56913000D01*
X153438326Y-56953115D01*
X153267355Y-57067354D01*
X142817353Y-67517357D01*
X142703113Y-67688327D01*
X142682235Y-67793289D01*
X142662998Y-67890002D01*
X142662998Y-79709998D01*
X142703113Y-79911673D01*
X142817353Y-80082643D01*
X148067709Y-85333000D01*
X125940000Y-85333000D01*
X125738325Y-85373115D01*
X125567355Y-85487355D01*
X117747355Y-93307355D01*
X117633115Y-93478325D01*
X117633115Y-93478326D01*
X117593000Y-93680000D01*
X117593000Y-95832436D01*
X117510725Y-95866431D01*
X117207496Y-96169132D01*
X117043187Y-96564832D01*
X117042813Y-96993289D01*
X107587401Y-96993289D01*
X112985216Y-91595474D01*
X113067432Y-91629613D01*
X113495889Y-91629987D01*
X113891875Y-91466369D01*
X114195104Y-91163668D01*
X114359413Y-90767968D01*
X114359787Y-90339511D01*
X114196169Y-89943525D01*
X113893468Y-89640296D01*
X113497768Y-89475987D01*
X113069311Y-89475613D01*
X112673325Y-89639231D01*
X112370096Y-89941932D01*
X112205787Y-90337632D01*
X112205413Y-90766089D01*
X112240092Y-90850018D01*
X104959955Y-98130155D01*
X104845715Y-98301125D01*
X104845715Y-98301126D01*
X104805600Y-98502800D01*
X104805600Y-130096535D01*
X104525325Y-130212343D01*
X104123553Y-130613414D01*
X103905848Y-131137707D01*
X103905352Y-131705403D01*
X91634600Y-131705403D01*
X91634600Y-82027672D01*
X114090230Y-82027672D01*
X114173811Y-82238910D01*
X114717346Y-82329225D01*
X115171389Y-82238910D01*
X115254970Y-82027672D01*
X114672600Y-81445302D01*
X114090230Y-82027672D01*
X91634600Y-82027672D01*
X91634600Y-81131089D01*
X108515413Y-81131089D01*
X108679031Y-81527075D01*
X108981732Y-81830304D01*
X109377432Y-81994613D01*
X109805889Y-81994987D01*
X110201875Y-81831369D01*
X110505104Y-81528668D01*
X110669413Y-81132968D01*
X110669414Y-81131089D01*
X111055413Y-81131089D01*
X111219031Y-81527075D01*
X111521732Y-81830304D01*
X111917432Y-81994613D01*
X112345889Y-81994987D01*
X112741875Y-81831369D01*
X113045104Y-81528668D01*
X113209413Y-81132968D01*
X113209561Y-80962546D01*
X113261175Y-80962546D01*
X113351490Y-81416589D01*
X113562728Y-81500170D01*
X114145098Y-80917800D01*
X115200102Y-80917800D01*
X115782472Y-81500170D01*
X115993710Y-81416589D01*
X116084025Y-80873054D01*
X115993710Y-80419011D01*
X115782472Y-80335430D01*
X115200102Y-80917800D01*
X114145098Y-80917800D01*
X113562728Y-80335430D01*
X113351490Y-80419011D01*
X113261175Y-80962546D01*
X113209561Y-80962546D01*
X113209787Y-80704511D01*
X113046169Y-80308525D01*
X112743468Y-80005296D01*
X112347768Y-79840987D01*
X111919311Y-79840613D01*
X111523325Y-80004231D01*
X111220096Y-80306932D01*
X111055787Y-80702632D01*
X111055413Y-81131089D01*
X110669414Y-81131089D01*
X110669787Y-80704511D01*
X110506169Y-80308525D01*
X110203468Y-80005296D01*
X109807768Y-79840987D01*
X109379311Y-79840613D01*
X108983325Y-80004231D01*
X108680096Y-80306932D01*
X108515787Y-80702632D01*
X108515413Y-81131089D01*
X91634600Y-81131089D01*
X91634600Y-79807928D01*
X114090230Y-79807928D01*
X114672600Y-80390298D01*
X115254970Y-79807928D01*
X115171389Y-79596690D01*
X114627854Y-79506375D01*
X114173811Y-79596690D01*
X114090230Y-79807928D01*
X91634600Y-79807928D01*
X91634600Y-76877784D01*
X103251818Y-76877784D01*
X103497837Y-77221168D01*
X104513198Y-77528999D01*
X105569071Y-77424835D01*
X106060763Y-77221168D01*
X106306782Y-76877784D01*
X117958418Y-76877784D01*
X118204437Y-77221168D01*
X119219798Y-77528999D01*
X120275671Y-77424835D01*
X120767363Y-77221168D01*
X121013382Y-76877784D01*
X119485900Y-75350302D01*
X117958418Y-76877784D01*
X106306782Y-76877784D01*
X104779300Y-75350302D01*
X103251818Y-76877784D01*
X91634600Y-76877784D01*
X91634600Y-74556698D01*
X102073101Y-74556698D01*
X102177265Y-75612571D01*
X102380932Y-76104263D01*
X102724316Y-76350282D01*
X104251798Y-74822800D01*
X105306802Y-74822800D01*
X106834284Y-76350282D01*
X107177668Y-76104263D01*
X107485499Y-75088902D01*
X107432997Y-74556698D01*
X116779701Y-74556698D01*
X116883865Y-75612571D01*
X117087532Y-76104263D01*
X117430916Y-76350282D01*
X118958398Y-74822800D01*
X120013402Y-74822800D01*
X121540884Y-76350282D01*
X121884268Y-76104263D01*
X122192099Y-75088902D01*
X122087935Y-74033029D01*
X121884268Y-73541337D01*
X121540884Y-73295318D01*
X120013402Y-74822800D01*
X118958398Y-74822800D01*
X117430916Y-73295318D01*
X117087532Y-73541337D01*
X116779701Y-74556698D01*
X107432997Y-74556698D01*
X107381335Y-74033029D01*
X107177668Y-73541337D01*
X106834284Y-73295318D01*
X105306802Y-74822800D01*
X104251798Y-74822800D01*
X102724316Y-73295318D01*
X102380932Y-73541337D01*
X102073101Y-74556698D01*
X91634600Y-74556698D01*
X91634600Y-72767816D01*
X103251818Y-72767816D01*
X104779300Y-74295298D01*
X106306782Y-72767816D01*
X117958418Y-72767816D01*
X119485900Y-74295298D01*
X121013382Y-72767816D01*
X120767363Y-72424432D01*
X119752002Y-72116601D01*
X118696129Y-72220765D01*
X118204437Y-72424432D01*
X117958418Y-72767816D01*
X106306782Y-72767816D01*
X106060763Y-72424432D01*
X105045402Y-72116601D01*
X103989529Y-72220765D01*
X103497837Y-72424432D01*
X103251818Y-72767816D01*
X91634600Y-72767816D01*
X91634600Y-68941089D01*
X108515413Y-68941089D01*
X108679031Y-69337075D01*
X108981732Y-69640304D01*
X109377432Y-69804613D01*
X109805889Y-69804987D01*
X110201875Y-69641369D01*
X110505104Y-69338668D01*
X110669413Y-68942968D01*
X110669414Y-68941089D01*
X111055413Y-68941089D01*
X111219031Y-69337075D01*
X111521732Y-69640304D01*
X111917432Y-69804613D01*
X112345889Y-69804987D01*
X112741875Y-69641369D01*
X113045104Y-69338668D01*
X113209413Y-68942968D01*
X113209414Y-68941089D01*
X113595413Y-68941089D01*
X113759031Y-69337075D01*
X114061732Y-69640304D01*
X114457432Y-69804613D01*
X114885889Y-69804987D01*
X115281875Y-69641369D01*
X115585104Y-69338668D01*
X115749413Y-68942968D01*
X115749787Y-68514511D01*
X115586169Y-68118525D01*
X115283468Y-67815296D01*
X114887768Y-67650987D01*
X114459311Y-67650613D01*
X114063325Y-67814231D01*
X113760096Y-68116932D01*
X113595787Y-68512632D01*
X113595413Y-68941089D01*
X113209414Y-68941089D01*
X113209787Y-68514511D01*
X113046169Y-68118525D01*
X112743468Y-67815296D01*
X112347768Y-67650987D01*
X111919311Y-67650613D01*
X111523325Y-67814231D01*
X111220096Y-68116932D01*
X111055787Y-68512632D01*
X111055413Y-68941089D01*
X110669414Y-68941089D01*
X110669787Y-68514511D01*
X110506169Y-68118525D01*
X110203468Y-67815296D01*
X109807768Y-67650987D01*
X109379311Y-67650613D01*
X108983325Y-67814231D01*
X108680096Y-68116932D01*
X108515787Y-68512632D01*
X108515413Y-68941089D01*
X91634600Y-68941089D01*
X91634600Y-44252699D01*
X94930203Y-44252699D01*
X95307461Y-44707112D01*
X96710855Y-45193827D01*
X98193680Y-45106437D01*
X99157739Y-44707112D01*
X99534997Y-44252699D01*
X97232600Y-41950302D01*
X94930203Y-44252699D01*
X91634600Y-44252699D01*
X91634600Y-40901055D01*
X93461573Y-40901055D01*
X93548963Y-42383880D01*
X93948288Y-43347939D01*
X94402701Y-43725197D01*
X96705098Y-41422800D01*
X97760102Y-41422800D01*
X100062499Y-43725197D01*
X100516912Y-43347939D01*
X101003627Y-41944545D01*
X100942386Y-40905403D01*
X103905352Y-40905403D01*
X104122143Y-41430075D01*
X104523214Y-41831847D01*
X104805600Y-41949104D01*
X104805600Y-44376535D01*
X104525325Y-44492343D01*
X104123553Y-44893414D01*
X103905848Y-45417707D01*
X103905352Y-45985403D01*
X104122143Y-46510075D01*
X104523214Y-46911847D01*
X105047507Y-47129552D01*
X105615203Y-47130048D01*
X106139875Y-46913257D01*
X106541647Y-46512186D01*
X106759352Y-45987893D01*
X106759848Y-45420197D01*
X106543057Y-44895525D01*
X106141986Y-44493753D01*
X105859600Y-44376496D01*
X105859600Y-41949065D01*
X106139875Y-41833257D01*
X106541647Y-41432186D01*
X106658904Y-41149800D01*
X115606335Y-41149800D01*
X115722143Y-41430075D01*
X116123214Y-41831847D01*
X116405600Y-41949104D01*
X116405600Y-44376535D01*
X116125325Y-44492343D01*
X115723553Y-44893414D01*
X115505848Y-45417707D01*
X115505352Y-45985403D01*
X115722143Y-46510075D01*
X116123214Y-46911847D01*
X116647507Y-47129552D01*
X117215203Y-47130048D01*
X117350379Y-47074194D01*
X127688708Y-47074194D01*
X127817953Y-47321012D01*
X128491615Y-47471316D01*
X129171516Y-47352380D01*
X129247247Y-47321012D01*
X129376492Y-47074194D01*
X139288708Y-47074194D01*
X139417953Y-47321012D01*
X140091615Y-47471316D01*
X140771516Y-47352380D01*
X140847247Y-47321012D01*
X140976492Y-47074194D01*
X140132600Y-46230302D01*
X139288708Y-47074194D01*
X129376492Y-47074194D01*
X128532600Y-46230302D01*
X127688708Y-47074194D01*
X117350379Y-47074194D01*
X117739875Y-46913257D01*
X118141647Y-46512186D01*
X118359352Y-45987893D01*
X118359636Y-45661815D01*
X126764084Y-45661815D01*
X126883020Y-46341716D01*
X126914388Y-46417447D01*
X127161206Y-46546692D01*
X128005098Y-45702800D01*
X129060102Y-45702800D01*
X129903994Y-46546692D01*
X130150812Y-46417447D01*
X130301116Y-45743785D01*
X130286777Y-45661815D01*
X138364084Y-45661815D01*
X138483020Y-46341716D01*
X138514388Y-46417447D01*
X138761206Y-46546692D01*
X139605098Y-45702800D01*
X140660102Y-45702800D01*
X141503994Y-46546692D01*
X141750812Y-46417447D01*
X141901116Y-45743785D01*
X141782180Y-45063884D01*
X141750812Y-44988153D01*
X141503994Y-44858908D01*
X140660102Y-45702800D01*
X139605098Y-45702800D01*
X138761206Y-44858908D01*
X138514388Y-44988153D01*
X138364084Y-45661815D01*
X130286777Y-45661815D01*
X130182180Y-45063884D01*
X130150812Y-44988153D01*
X129903994Y-44858908D01*
X129060102Y-45702800D01*
X128005098Y-45702800D01*
X127161206Y-44858908D01*
X126914388Y-44988153D01*
X126764084Y-45661815D01*
X118359636Y-45661815D01*
X118359848Y-45420197D01*
X118143057Y-44895525D01*
X117741986Y-44493753D01*
X117459600Y-44376496D01*
X117459600Y-44331406D01*
X127688708Y-44331406D01*
X128532600Y-45175298D01*
X129376492Y-44331406D01*
X139288708Y-44331406D01*
X140132600Y-45175298D01*
X140976492Y-44331406D01*
X140847247Y-44084588D01*
X140173585Y-43934284D01*
X139493684Y-44053220D01*
X139417953Y-44084588D01*
X139288708Y-44331406D01*
X129376492Y-44331406D01*
X129247247Y-44084588D01*
X128573585Y-43934284D01*
X127893684Y-44053220D01*
X127817953Y-44084588D01*
X127688708Y-44331406D01*
X117459600Y-44331406D01*
X117459600Y-41994194D01*
X127688708Y-41994194D01*
X127817953Y-42241012D01*
X128491615Y-42391316D01*
X129171516Y-42272380D01*
X129247247Y-42241012D01*
X129376492Y-41994194D01*
X139288708Y-41994194D01*
X139417953Y-42241012D01*
X140091615Y-42391316D01*
X140771516Y-42272380D01*
X140847247Y-42241012D01*
X140976492Y-41994194D01*
X140132600Y-41150302D01*
X139288708Y-41994194D01*
X129376492Y-41994194D01*
X128532600Y-41150302D01*
X127688708Y-41994194D01*
X117459600Y-41994194D01*
X117459600Y-41949065D01*
X117739875Y-41833257D01*
X118141647Y-41432186D01*
X118359352Y-40907893D01*
X118359636Y-40581815D01*
X126764084Y-40581815D01*
X126883020Y-41261716D01*
X126914388Y-41337447D01*
X127161206Y-41466692D01*
X128005098Y-40622800D01*
X129060102Y-40622800D01*
X129903994Y-41466692D01*
X130150812Y-41337447D01*
X130301116Y-40663785D01*
X130286777Y-40581815D01*
X138364084Y-40581815D01*
X138483020Y-41261716D01*
X138514388Y-41337447D01*
X138761206Y-41466692D01*
X139605098Y-40622800D01*
X140660102Y-40622800D01*
X141503994Y-41466692D01*
X141750812Y-41337447D01*
X141847207Y-40905403D01*
X150305352Y-40905403D01*
X150522143Y-41430075D01*
X150923214Y-41831847D01*
X151205600Y-41949104D01*
X151205600Y-44376535D01*
X150925325Y-44492343D01*
X150523553Y-44893414D01*
X150305848Y-45417707D01*
X150305352Y-45985403D01*
X150522143Y-46510075D01*
X150923214Y-46911847D01*
X151447507Y-47129552D01*
X152015203Y-47130048D01*
X152539875Y-46913257D01*
X152941647Y-46512186D01*
X153159352Y-45987893D01*
X153159848Y-45420197D01*
X152943057Y-44895525D01*
X152541986Y-44493753D01*
X152259600Y-44376496D01*
X152259600Y-41949065D01*
X152539875Y-41833257D01*
X152941647Y-41432186D01*
X153058904Y-41149800D01*
X162006335Y-41149800D01*
X162122143Y-41430075D01*
X162523214Y-41831847D01*
X162805600Y-41949104D01*
X162805600Y-44376535D01*
X162525325Y-44492343D01*
X162123553Y-44893414D01*
X161905848Y-45417707D01*
X161905352Y-45985403D01*
X162122143Y-46510075D01*
X162523214Y-46911847D01*
X163047507Y-47129552D01*
X163615203Y-47130048D01*
X164139875Y-46913257D01*
X164541647Y-46512186D01*
X164759352Y-45987893D01*
X164759848Y-45420197D01*
X164543057Y-44895525D01*
X164141986Y-44493753D01*
X163859600Y-44376496D01*
X163859600Y-41949065D01*
X164139875Y-41833257D01*
X164541647Y-41432186D01*
X164759352Y-40907893D01*
X164759354Y-40905403D01*
X173505352Y-40905403D01*
X173722143Y-41430075D01*
X174123214Y-41831847D01*
X174405600Y-41949104D01*
X174405600Y-44376535D01*
X174125325Y-44492343D01*
X173723553Y-44893414D01*
X173505848Y-45417707D01*
X173505352Y-45985403D01*
X173722143Y-46510075D01*
X174123214Y-46911847D01*
X174647507Y-47129552D01*
X175215203Y-47130048D01*
X175739875Y-46913257D01*
X176141647Y-46512186D01*
X176359352Y-45987893D01*
X176359848Y-45420197D01*
X176143057Y-44895525D01*
X175741986Y-44493753D01*
X175459600Y-44376496D01*
X175459600Y-41949065D01*
X175739875Y-41833257D01*
X176141647Y-41432186D01*
X176258904Y-41149800D01*
X185206335Y-41149800D01*
X185322143Y-41430075D01*
X185723214Y-41831847D01*
X186005600Y-41949104D01*
X186005600Y-44376535D01*
X185725325Y-44492343D01*
X185323553Y-44893414D01*
X185105848Y-45417707D01*
X185105352Y-45985403D01*
X185322143Y-46510075D01*
X185723214Y-46911847D01*
X186247507Y-47129552D01*
X186815203Y-47130048D01*
X187339875Y-46913257D01*
X187741647Y-46512186D01*
X187959352Y-45987893D01*
X187959848Y-45420197D01*
X187743057Y-44895525D01*
X187341986Y-44493753D01*
X187059600Y-44376496D01*
X187059600Y-44252699D01*
X192297603Y-44252699D01*
X192674861Y-44707112D01*
X194078255Y-45193827D01*
X195561080Y-45106437D01*
X196525139Y-44707112D01*
X196902397Y-44252699D01*
X194600000Y-41950302D01*
X192297603Y-44252699D01*
X187059600Y-44252699D01*
X187059600Y-41949065D01*
X187339875Y-41833257D01*
X187741647Y-41432186D01*
X187959352Y-40907893D01*
X187959357Y-40901055D01*
X190828973Y-40901055D01*
X190916363Y-42383880D01*
X191315688Y-43347939D01*
X191770101Y-43725197D01*
X194072498Y-41422800D01*
X195127502Y-41422800D01*
X197429899Y-43725197D01*
X197884312Y-43347939D01*
X198371027Y-41944545D01*
X198283637Y-40461720D01*
X197884312Y-39497661D01*
X197429899Y-39120403D01*
X195127502Y-41422800D01*
X194072498Y-41422800D01*
X191770101Y-39120403D01*
X191315688Y-39497661D01*
X190828973Y-40901055D01*
X187959357Y-40901055D01*
X187959848Y-40340197D01*
X187743057Y-39815525D01*
X187341986Y-39413753D01*
X186817693Y-39196048D01*
X186249997Y-39195552D01*
X185725325Y-39412343D01*
X185323553Y-39813414D01*
X185206296Y-40095800D01*
X176258865Y-40095800D01*
X176143057Y-39815525D01*
X175741986Y-39413753D01*
X175217693Y-39196048D01*
X174649997Y-39195552D01*
X174125325Y-39412343D01*
X173723553Y-39813414D01*
X173505848Y-40337707D01*
X173505352Y-40905403D01*
X164759354Y-40905403D01*
X164759848Y-40340197D01*
X164543057Y-39815525D01*
X164141986Y-39413753D01*
X163617693Y-39196048D01*
X163049997Y-39195552D01*
X162525325Y-39412343D01*
X162123553Y-39813414D01*
X162006296Y-40095800D01*
X153058865Y-40095800D01*
X152943057Y-39815525D01*
X152541986Y-39413753D01*
X152017693Y-39196048D01*
X151449997Y-39195552D01*
X150925325Y-39412343D01*
X150523553Y-39813414D01*
X150305848Y-40337707D01*
X150305352Y-40905403D01*
X141847207Y-40905403D01*
X141901116Y-40663785D01*
X141782180Y-39983884D01*
X141750812Y-39908153D01*
X141503994Y-39778908D01*
X140660102Y-40622800D01*
X139605098Y-40622800D01*
X138761206Y-39778908D01*
X138514388Y-39908153D01*
X138364084Y-40581815D01*
X130286777Y-40581815D01*
X130182180Y-39983884D01*
X130150812Y-39908153D01*
X129903994Y-39778908D01*
X129060102Y-40622800D01*
X128005098Y-40622800D01*
X127161206Y-39778908D01*
X126914388Y-39908153D01*
X126764084Y-40581815D01*
X118359636Y-40581815D01*
X118359848Y-40340197D01*
X118143057Y-39815525D01*
X117741986Y-39413753D01*
X117351011Y-39251406D01*
X127688708Y-39251406D01*
X128532600Y-40095298D01*
X129376492Y-39251406D01*
X139288708Y-39251406D01*
X140132600Y-40095298D01*
X140976492Y-39251406D01*
X140847247Y-39004588D01*
X140173585Y-38854284D01*
X139493684Y-38973220D01*
X139417953Y-39004588D01*
X139288708Y-39251406D01*
X129376492Y-39251406D01*
X129247247Y-39004588D01*
X128573585Y-38854284D01*
X127893684Y-38973220D01*
X127817953Y-39004588D01*
X127688708Y-39251406D01*
X117351011Y-39251406D01*
X117217693Y-39196048D01*
X116649997Y-39195552D01*
X116125325Y-39412343D01*
X115723553Y-39813414D01*
X115606296Y-40095800D01*
X106658865Y-40095800D01*
X106543057Y-39815525D01*
X106141986Y-39413753D01*
X105617693Y-39196048D01*
X105049997Y-39195552D01*
X104525325Y-39412343D01*
X104123553Y-39813414D01*
X103905848Y-40337707D01*
X103905352Y-40905403D01*
X100942386Y-40905403D01*
X100916237Y-40461720D01*
X100516912Y-39497661D01*
X100062499Y-39120403D01*
X97760102Y-41422800D01*
X96705098Y-41422800D01*
X94402701Y-39120403D01*
X93948288Y-39497661D01*
X93461573Y-40901055D01*
X91634600Y-40901055D01*
X91634600Y-38592901D01*
X94930203Y-38592901D01*
X97232600Y-40895298D01*
X99534997Y-38592901D01*
X192297603Y-38592901D01*
X194600000Y-40895298D01*
X196902397Y-38592901D01*
X196525139Y-38138488D01*
X195121745Y-37651773D01*
X193638920Y-37739163D01*
X192674861Y-38138488D01*
X192297603Y-38592901D01*
X99534997Y-38592901D01*
X99157739Y-38138488D01*
X97754345Y-37651773D01*
X96271520Y-37739163D01*
X95307461Y-38138488D01*
X94930203Y-38592901D01*
X91634600Y-38592901D01*
X91634600Y-35824800D01*
X200230600Y-35824800D01*
X200230600Y-141328000D01*
X200230600Y-141328000D01*
G37*
X200230600Y-141328000D02*
X91634600Y-141328000D01*
X91634600Y-138529899D01*
X94930203Y-138529899D01*
X95307461Y-138984312D01*
X96710855Y-139471027D01*
X98193680Y-139383637D01*
X99157739Y-138984312D01*
X99534997Y-138529899D01*
X192297603Y-138529899D01*
X192674861Y-138984312D01*
X194078255Y-139471027D01*
X195561080Y-139383637D01*
X196525139Y-138984312D01*
X196902397Y-138529899D01*
X194600000Y-136227502D01*
X192297603Y-138529899D01*
X99534997Y-138529899D01*
X97232600Y-136227502D01*
X94930203Y-138529899D01*
X91634600Y-138529899D01*
X91634600Y-135178255D01*
X93461573Y-135178255D01*
X93548963Y-136661080D01*
X93948288Y-137625139D01*
X94402701Y-138002397D01*
X96705098Y-135700000D01*
X97760102Y-135700000D01*
X100062499Y-138002397D01*
X100516912Y-137625139D01*
X101003627Y-136221745D01*
X100916237Y-134738920D01*
X100516912Y-133774861D01*
X100062499Y-133397603D01*
X97760102Y-135700000D01*
X96705098Y-135700000D01*
X94402701Y-133397603D01*
X93948288Y-133774861D01*
X93461573Y-135178255D01*
X91634600Y-135178255D01*
X91634600Y-132870101D01*
X94930203Y-132870101D01*
X97232600Y-135172498D01*
X99534997Y-132870101D01*
X99157739Y-132415688D01*
X97754345Y-131928973D01*
X96271520Y-132016363D01*
X95307461Y-132415688D01*
X94930203Y-132870101D01*
X91634600Y-132870101D01*
X91634600Y-131705403D01*
X103905352Y-131705403D01*
X104122143Y-132230075D01*
X104523214Y-132631847D01*
X104805600Y-132749104D01*
X104805600Y-135176535D01*
X104525325Y-135292343D01*
X104123553Y-135693414D01*
X103905848Y-136217707D01*
X103905352Y-136785403D01*
X104122143Y-137310075D01*
X104523214Y-137711847D01*
X105047507Y-137929552D01*
X105615203Y-137930048D01*
X106139875Y-137713257D01*
X106541647Y-137312186D01*
X106759352Y-136787893D01*
X106759848Y-136220197D01*
X106543057Y-135695525D01*
X106141986Y-135293753D01*
X105859600Y-135176496D01*
X105859600Y-132749065D01*
X106139875Y-132633257D01*
X106541647Y-132232186D01*
X106759352Y-131707893D01*
X106759848Y-131140197D01*
X106543057Y-130615525D01*
X106141986Y-130213753D01*
X105859600Y-130096496D01*
X105859600Y-117443289D01*
X106982813Y-117443289D01*
X107146431Y-117839275D01*
X107449132Y-118142504D01*
X107844832Y-118306813D01*
X108273289Y-118307187D01*
X108669275Y-118143569D01*
X108972504Y-117840868D01*
X109136813Y-117445168D01*
X109137187Y-117016711D01*
X109102508Y-116932782D01*
X112192645Y-113842645D01*
X112306885Y-113671675D01*
X112347000Y-113470000D01*
X112347000Y-110210372D01*
X112461732Y-110325304D01*
X112545600Y-110360129D01*
X112545600Y-127562800D01*
X112585715Y-127764475D01*
X112699955Y-127935445D01*
X115622144Y-130857635D01*
X115505848Y-131137707D01*
X115505352Y-131705403D01*
X115722143Y-132230075D01*
X116123214Y-132631847D01*
X116405600Y-132749104D01*
X116405600Y-135176535D01*
X116125325Y-135292343D01*
X115723553Y-135693414D01*
X115505848Y-136217707D01*
X115505352Y-136785403D01*
X115722143Y-137310075D01*
X116123214Y-137711847D01*
X116647507Y-137929552D01*
X117215203Y-137930048D01*
X117739875Y-137713257D01*
X118141647Y-137312186D01*
X118359352Y-136787893D01*
X118359848Y-136220197D01*
X118143057Y-135695525D01*
X117741986Y-135293753D01*
X117459600Y-135176496D01*
X117459600Y-132749065D01*
X117739875Y-132633257D01*
X118141647Y-132232186D01*
X118359352Y-131707893D01*
X118359354Y-131705403D01*
X127105352Y-131705403D01*
X127322143Y-132230075D01*
X127723214Y-132631847D01*
X128005600Y-132749104D01*
X128005600Y-135176535D01*
X127725325Y-135292343D01*
X127323553Y-135693414D01*
X127105848Y-136217707D01*
X127105352Y-136785403D01*
X127322143Y-137310075D01*
X127723214Y-137711847D01*
X128247507Y-137929552D01*
X128815203Y-137930048D01*
X129339875Y-137713257D01*
X129741647Y-137312186D01*
X129959352Y-136787893D01*
X129959848Y-136220197D01*
X129743057Y-135695525D01*
X129341986Y-135293753D01*
X129059600Y-135176496D01*
X129059600Y-132749065D01*
X129339875Y-132633257D01*
X129741647Y-132232186D01*
X129959352Y-131707893D01*
X129959848Y-131140197D01*
X129743057Y-130615525D01*
X129341986Y-130213753D01*
X129079600Y-130104801D01*
X129079600Y-98701090D01*
X136205216Y-91575474D01*
X136287432Y-91609613D01*
X136715889Y-91609987D01*
X137111875Y-91446369D01*
X137415104Y-91143668D01*
X137579413Y-90747968D01*
X137579787Y-90319511D01*
X137416169Y-89923525D01*
X137113468Y-89620296D01*
X136717768Y-89455987D01*
X136289311Y-89455613D01*
X135893325Y-89619231D01*
X135590096Y-89921932D01*
X135425787Y-90317632D01*
X135425413Y-90746089D01*
X135460092Y-90830018D01*
X128179955Y-98110155D01*
X128065715Y-98281125D01*
X128065715Y-98281126D01*
X128025600Y-98482800D01*
X128025600Y-130088271D01*
X127725325Y-130212343D01*
X127323553Y-130613414D01*
X127105848Y-131137707D01*
X127105352Y-131705403D01*
X118359354Y-131705403D01*
X118359848Y-131140197D01*
X118143057Y-130615525D01*
X117741986Y-130213753D01*
X117217693Y-129996048D01*
X116649997Y-129995552D01*
X116367407Y-130112316D01*
X113599600Y-127344510D01*
X113599600Y-110360364D01*
X113681875Y-110326369D01*
X113985104Y-110023668D01*
X114149413Y-109627968D01*
X114149787Y-109199511D01*
X113986169Y-108803525D01*
X113683468Y-108500296D01*
X113287768Y-108335987D01*
X112877978Y-108335629D01*
X112897000Y-108240000D01*
X112897000Y-100837564D01*
X112979275Y-100803569D01*
X113282504Y-100500868D01*
X113446813Y-100105168D01*
X113447187Y-99676711D01*
X113283569Y-99280725D01*
X112980868Y-98977496D01*
X112585168Y-98813187D01*
X112156711Y-98812813D01*
X111760725Y-98976431D01*
X111457496Y-99279132D01*
X111293187Y-99674832D01*
X111292813Y-100103289D01*
X111456431Y-100499275D01*
X111759132Y-100802504D01*
X111843000Y-100837329D01*
X111843000Y-108021709D01*
X111447355Y-108417355D01*
X111333115Y-108588325D01*
X111305554Y-108726885D01*
X111293000Y-108790000D01*
X111293000Y-113251710D01*
X108357384Y-116187326D01*
X108275168Y-116153187D01*
X107846711Y-116152813D01*
X107450725Y-116316431D01*
X107147496Y-116619132D01*
X106983187Y-117014832D01*
X106982813Y-117443289D01*
X105859600Y-117443289D01*
X105859600Y-98721090D01*
X107587401Y-96993289D01*
X117042813Y-96993289D01*
X117206431Y-97389275D01*
X117509132Y-97692504D01*
X117904832Y-97856813D01*
X118333289Y-97857187D01*
X118729275Y-97693569D01*
X119032504Y-97390868D01*
X119196813Y-96995168D01*
X119197187Y-96566711D01*
X119033569Y-96170725D01*
X118730868Y-95867496D01*
X118647000Y-95832671D01*
X118647000Y-93898290D01*
X121153000Y-91392290D01*
X121153000Y-115762436D01*
X121070725Y-115796431D01*
X120767496Y-116099132D01*
X120603187Y-116494832D01*
X120602813Y-116923289D01*
X120766431Y-117319275D01*
X121069132Y-117622504D01*
X121464832Y-117786813D01*
X121893289Y-117787187D01*
X122289275Y-117623569D01*
X122592504Y-117320868D01*
X122756813Y-116925168D01*
X122757187Y-116496711D01*
X122593569Y-116100725D01*
X122290868Y-115797496D01*
X122207000Y-115762671D01*
X122207000Y-92335441D01*
X122266431Y-92479275D01*
X122569132Y-92782504D01*
X122964832Y-92946813D01*
X123393289Y-92947187D01*
X123789275Y-92783569D01*
X124092504Y-92480868D01*
X124256813Y-92085168D01*
X124257187Y-91656711D01*
X124093569Y-91260725D01*
X123790868Y-90957496D01*
X123707000Y-90922671D01*
X123707000Y-90638290D01*
X125608290Y-88737000D01*
X140062436Y-88737000D01*
X140096431Y-88819275D01*
X140399132Y-89122504D01*
X140483000Y-89157329D01*
X140483000Y-94561710D01*
X135977384Y-99067326D01*
X135895168Y-99033187D01*
X135466711Y-99032813D01*
X135070725Y-99196431D01*
X134767496Y-99499132D01*
X134603187Y-99894832D01*
X134602813Y-100323289D01*
X134637492Y-100407218D01*
X134637355Y-100407355D01*
X134523115Y-100578325D01*
X134523115Y-100578326D01*
X134483000Y-100780000D01*
X134483000Y-113101709D01*
X131507384Y-116077326D01*
X131425168Y-116043187D01*
X130996711Y-116042813D01*
X130600725Y-116206431D01*
X130297496Y-116509132D01*
X130133187Y-116904832D01*
X130132813Y-117333289D01*
X130296431Y-117729275D01*
X130599132Y-118032504D01*
X130994832Y-118196813D01*
X131423289Y-118197187D01*
X131819275Y-118033569D01*
X132122504Y-117730868D01*
X132286813Y-117335168D01*
X132287187Y-116906711D01*
X132252508Y-116822782D01*
X135382646Y-113692645D01*
X135496885Y-113521674D01*
X135537000Y-113320000D01*
X135537000Y-110160320D01*
X135681732Y-110305304D01*
X135765600Y-110340129D01*
X135765600Y-127542800D01*
X135805715Y-127744475D01*
X135919955Y-127915445D01*
X138833880Y-130829371D01*
X138705848Y-131137707D01*
X138705352Y-131705403D01*
X138922143Y-132230075D01*
X139323214Y-132631847D01*
X139605600Y-132749104D01*
X139605600Y-135176535D01*
X139325325Y-135292343D01*
X138923553Y-135693414D01*
X138705848Y-136217707D01*
X138705352Y-136785403D01*
X138922143Y-137310075D01*
X139323214Y-137711847D01*
X139847507Y-137929552D01*
X140415203Y-137930048D01*
X140939875Y-137713257D01*
X141341647Y-137312186D01*
X141559352Y-136787893D01*
X141559848Y-136220197D01*
X141343057Y-135695525D01*
X140941986Y-135293753D01*
X140659600Y-135176496D01*
X140659600Y-132749065D01*
X140939875Y-132633257D01*
X141341647Y-132232186D01*
X141559352Y-131707893D01*
X141559848Y-131140197D01*
X141343057Y-130615525D01*
X140941986Y-130213753D01*
X140417693Y-129996048D01*
X139849997Y-129995552D01*
X139595712Y-130100621D01*
X136819600Y-127324510D01*
X136819600Y-110340364D01*
X136901875Y-110306369D01*
X137205104Y-110003668D01*
X137369413Y-109607968D01*
X137369787Y-109179511D01*
X137206169Y-108783525D01*
X136903468Y-108480296D01*
X136507768Y-108315987D01*
X136079311Y-108315613D01*
X135683325Y-108479231D01*
X135537000Y-108625301D01*
X135537000Y-101186876D01*
X135893289Y-101187187D01*
X136289275Y-101023569D01*
X136592504Y-100720868D01*
X136756813Y-100325168D01*
X136757187Y-99896711D01*
X136722508Y-99812782D01*
X140193146Y-96342144D01*
X140192813Y-96723289D01*
X140356431Y-97119275D01*
X140659132Y-97422504D01*
X141054832Y-97586813D01*
X141483289Y-97587187D01*
X141879275Y-97423569D01*
X142182504Y-97120868D01*
X142204872Y-97067000D01*
X150226240Y-97067000D01*
X144527355Y-102765885D01*
X144413115Y-102936855D01*
X144413115Y-102936856D01*
X144373000Y-103138530D01*
X144373000Y-115672436D01*
X144290725Y-115706431D01*
X143987496Y-116009132D01*
X143823187Y-116404832D01*
X143822813Y-116833289D01*
X143986431Y-117229275D01*
X144289132Y-117532504D01*
X144684832Y-117696813D01*
X145113289Y-117697187D01*
X145509275Y-117533569D01*
X145812504Y-117230868D01*
X145976813Y-116835168D01*
X145977187Y-116406711D01*
X145813569Y-116010725D01*
X145510868Y-115707496D01*
X145427000Y-115672671D01*
X145427000Y-103356820D01*
X158674915Y-90108905D01*
X158575787Y-90347632D01*
X158575413Y-90776089D01*
X158610092Y-90860018D01*
X151329955Y-98140155D01*
X151215715Y-98311125D01*
X151215715Y-98311126D01*
X151175600Y-98512800D01*
X151175600Y-130108931D01*
X150925325Y-130212343D01*
X150523553Y-130613414D01*
X150305848Y-131137707D01*
X150305352Y-131705403D01*
X150522143Y-132230075D01*
X150923214Y-132631847D01*
X151205600Y-132749104D01*
X151205600Y-135176535D01*
X150925325Y-135292343D01*
X150523553Y-135693414D01*
X150305848Y-136217707D01*
X150305352Y-136785403D01*
X150522143Y-137310075D01*
X150923214Y-137711847D01*
X151447507Y-137929552D01*
X152015203Y-137930048D01*
X152539875Y-137713257D01*
X152941647Y-137312186D01*
X153159352Y-136787893D01*
X153159848Y-136220197D01*
X152943057Y-135695525D01*
X152541986Y-135293753D01*
X152259600Y-135176496D01*
X152259600Y-132749065D01*
X152539875Y-132633257D01*
X152941647Y-132232186D01*
X153159352Y-131707893D01*
X153159848Y-131140197D01*
X152943057Y-130615525D01*
X152541986Y-130213753D01*
X152229600Y-130084039D01*
X152229600Y-117503289D01*
X153512813Y-117503289D01*
X153676431Y-117899275D01*
X153979132Y-118202504D01*
X154374832Y-118366813D01*
X154803289Y-118367187D01*
X155199275Y-118203569D01*
X155502504Y-117900868D01*
X155666813Y-117505168D01*
X155667187Y-117076711D01*
X155632508Y-116992782D01*
X158542646Y-114082645D01*
X158656885Y-113911674D01*
X158697000Y-113710000D01*
X158697000Y-110200337D01*
X158831732Y-110335304D01*
X158915600Y-110370129D01*
X158915600Y-127572800D01*
X158955715Y-127774475D01*
X159069955Y-127945445D01*
X162010408Y-130885899D01*
X161905848Y-131137707D01*
X161905352Y-131705403D01*
X162122143Y-132230075D01*
X162523214Y-132631847D01*
X162805600Y-132749104D01*
X162805600Y-135176535D01*
X162525325Y-135292343D01*
X162123553Y-135693414D01*
X161905848Y-136217707D01*
X161905352Y-136785403D01*
X162122143Y-137310075D01*
X162523214Y-137711847D01*
X163047507Y-137929552D01*
X163615203Y-137930048D01*
X164139875Y-137713257D01*
X164541647Y-137312186D01*
X164759352Y-136787893D01*
X164759848Y-136220197D01*
X164543057Y-135695525D01*
X164141986Y-135293753D01*
X163859600Y-135176496D01*
X163859600Y-132749065D01*
X164139875Y-132633257D01*
X164541647Y-132232186D01*
X164759352Y-131707893D01*
X164759848Y-131140197D01*
X164543057Y-130615525D01*
X164141986Y-130213753D01*
X163617693Y-129996048D01*
X163049997Y-129995552D01*
X162739102Y-130124012D01*
X159969600Y-127354510D01*
X159969600Y-110370364D01*
X160051875Y-110336369D01*
X160355104Y-110033668D01*
X160519413Y-109637968D01*
X160519787Y-109209511D01*
X160356169Y-108813525D01*
X160053468Y-108510296D01*
X159657768Y-108345987D01*
X159229311Y-108345613D01*
X158833325Y-108509231D01*
X158697000Y-108645319D01*
X158697000Y-101018647D01*
X158764832Y-101046813D01*
X159193289Y-101047187D01*
X159589275Y-100883569D01*
X159892504Y-100580868D01*
X160056813Y-100185168D01*
X160057187Y-99756711D01*
X159893569Y-99360725D01*
X159590868Y-99057496D01*
X159195168Y-98893187D01*
X158766711Y-98892813D01*
X158370725Y-99056431D01*
X158067496Y-99359132D01*
X157903187Y-99754832D01*
X157902813Y-100183289D01*
X157937492Y-100267218D01*
X157797355Y-100407355D01*
X157683115Y-100578325D01*
X157683115Y-100578326D01*
X157643000Y-100780000D01*
X157643000Y-113491709D01*
X154887384Y-116247326D01*
X154805168Y-116213187D01*
X154376711Y-116212813D01*
X153980725Y-116376431D01*
X153677496Y-116679132D01*
X153513187Y-117074832D01*
X153512813Y-117503289D01*
X152229600Y-117503289D01*
X152229600Y-98731090D01*
X159355216Y-91605474D01*
X159437432Y-91639613D01*
X159865889Y-91639987D01*
X160261875Y-91476369D01*
X160565104Y-91173668D01*
X160729413Y-90777968D01*
X160729787Y-90349511D01*
X160566169Y-89953525D01*
X160263468Y-89650296D01*
X159867768Y-89485987D01*
X159439311Y-89485613D01*
X159198851Y-89584969D01*
X166923000Y-81860820D01*
X166923000Y-89011710D01*
X162417384Y-93517326D01*
X162335168Y-93483187D01*
X161906711Y-93482813D01*
X161510725Y-93646431D01*
X161207496Y-93949132D01*
X161043187Y-94344832D01*
X161042813Y-94773289D01*
X161206431Y-95169275D01*
X161509132Y-95472504D01*
X161904832Y-95636813D01*
X162333289Y-95637187D01*
X162729275Y-95473569D01*
X163032504Y-95170868D01*
X163196813Y-94775168D01*
X163197187Y-94346711D01*
X163162508Y-94262782D01*
X167543002Y-89882288D01*
X167543002Y-115898303D01*
X167450725Y-115936431D01*
X167147496Y-116239132D01*
X166983187Y-116634832D01*
X166982813Y-117063289D01*
X167146431Y-117459275D01*
X167449132Y-117762504D01*
X167844832Y-117926813D01*
X168273289Y-117927187D01*
X168669275Y-117763569D01*
X168972504Y-117460868D01*
X169136813Y-117065168D01*
X169137187Y-116636711D01*
X168973569Y-116240725D01*
X168670868Y-115937496D01*
X168597002Y-115906824D01*
X168597002Y-78559987D01*
X168819132Y-78782504D01*
X168873000Y-78804872D01*
X168873000Y-83620004D01*
X168913115Y-83821679D01*
X169027355Y-83992649D01*
X171997351Y-86962646D01*
X172093664Y-87027000D01*
X172168322Y-87076885D01*
X172369996Y-87117000D01*
X184651710Y-87117000D01*
X184833000Y-87298291D01*
X184833000Y-93612436D01*
X184750725Y-93646431D01*
X184667000Y-93730010D01*
X184667000Y-89310000D01*
X184626885Y-89108326D01*
X184626885Y-89108325D01*
X184512645Y-88937355D01*
X183632645Y-88057355D01*
X183461675Y-87943115D01*
X183260000Y-87903000D01*
X172247564Y-87903000D01*
X172213569Y-87820725D01*
X171910868Y-87517496D01*
X171515168Y-87353187D01*
X171086711Y-87352813D01*
X170690725Y-87516431D01*
X170387496Y-87819132D01*
X170223187Y-88214832D01*
X170222813Y-88643289D01*
X170386431Y-89039275D01*
X170689132Y-89342504D01*
X171084832Y-89506813D01*
X171513289Y-89507187D01*
X171909275Y-89343569D01*
X172212504Y-89040868D01*
X172247329Y-88957000D01*
X183041710Y-88957000D01*
X183613000Y-89528290D01*
X183613000Y-89760054D01*
X183483468Y-89630296D01*
X183087768Y-89465987D01*
X182659311Y-89465613D01*
X182263325Y-89629231D01*
X181960096Y-89931932D01*
X181795787Y-90327632D01*
X181795413Y-90756089D01*
X181830092Y-90840018D01*
X174549955Y-98120155D01*
X174435715Y-98291125D01*
X174435715Y-98291126D01*
X174395600Y-98492800D01*
X174395600Y-130100667D01*
X174125325Y-130212343D01*
X173723553Y-130613414D01*
X173505848Y-131137707D01*
X173505352Y-131705403D01*
X173722143Y-132230075D01*
X174123214Y-132631847D01*
X174405600Y-132749104D01*
X174405600Y-135176535D01*
X174125325Y-135292343D01*
X173723553Y-135693414D01*
X173505848Y-136217707D01*
X173505352Y-136785403D01*
X173722143Y-137310075D01*
X174123214Y-137711847D01*
X174647507Y-137929552D01*
X175215203Y-137930048D01*
X175739875Y-137713257D01*
X176141647Y-137312186D01*
X176359352Y-136787893D01*
X176359848Y-136220197D01*
X176143057Y-135695525D01*
X175741986Y-135293753D01*
X175459600Y-135176496D01*
X175459600Y-132749065D01*
X175739875Y-132633257D01*
X176141647Y-132232186D01*
X176359352Y-131707893D01*
X176359848Y-131140197D01*
X176143057Y-130615525D01*
X175741986Y-130213753D01*
X175449600Y-130092344D01*
X175449600Y-98711090D01*
X182575216Y-91585474D01*
X182657432Y-91619613D01*
X183085889Y-91619987D01*
X183481875Y-91456369D01*
X183613000Y-91325472D01*
X183613000Y-97461709D01*
X182487384Y-98587326D01*
X182405168Y-98553187D01*
X181976711Y-98552813D01*
X181580725Y-98716431D01*
X181277496Y-99019132D01*
X181113187Y-99414832D01*
X181112813Y-99843289D01*
X181147492Y-99927218D01*
X181017355Y-100057355D01*
X180903115Y-100228325D01*
X180903115Y-100228326D01*
X180863000Y-100430000D01*
X180863000Y-113551710D01*
X178167384Y-116247326D01*
X178085168Y-116213187D01*
X177656711Y-116212813D01*
X177260725Y-116376431D01*
X176957496Y-116679132D01*
X176793187Y-117074832D01*
X176792813Y-117503289D01*
X176956431Y-117899275D01*
X177259132Y-118202504D01*
X177654832Y-118366813D01*
X178083289Y-118367187D01*
X178479275Y-118203569D01*
X178782504Y-117900868D01*
X178946813Y-117505168D01*
X178947187Y-117076711D01*
X178912508Y-116992782D01*
X181762645Y-114142645D01*
X181876885Y-113971674D01*
X181917000Y-113770000D01*
X181917000Y-110180337D01*
X182051732Y-110315304D01*
X182135600Y-110350129D01*
X182135600Y-127552800D01*
X182175715Y-127754475D01*
X182289955Y-127925445D01*
X185222144Y-130857635D01*
X185105848Y-131137707D01*
X185105352Y-131705403D01*
X185322143Y-132230075D01*
X185723214Y-132631847D01*
X186005600Y-132749104D01*
X186005600Y-135176535D01*
X185725325Y-135292343D01*
X185323553Y-135693414D01*
X185105848Y-136217707D01*
X185105352Y-136785403D01*
X185322143Y-137310075D01*
X185723214Y-137711847D01*
X186247507Y-137929552D01*
X186815203Y-137930048D01*
X187339875Y-137713257D01*
X187741647Y-137312186D01*
X187959352Y-136787893D01*
X187959848Y-136220197D01*
X187743057Y-135695525D01*
X187341986Y-135293753D01*
X187063837Y-135178255D01*
X190828973Y-135178255D01*
X190916363Y-136661080D01*
X191315688Y-137625139D01*
X191770101Y-138002397D01*
X194072498Y-135700000D01*
X195127502Y-135700000D01*
X197429899Y-138002397D01*
X197884312Y-137625139D01*
X198371027Y-136221745D01*
X198283637Y-134738920D01*
X197884312Y-133774861D01*
X197429899Y-133397603D01*
X195127502Y-135700000D01*
X194072498Y-135700000D01*
X191770101Y-133397603D01*
X191315688Y-133774861D01*
X190828973Y-135178255D01*
X187063837Y-135178255D01*
X187059600Y-135176496D01*
X187059600Y-132870101D01*
X192297603Y-132870101D01*
X194600000Y-135172498D01*
X196902397Y-132870101D01*
X196525139Y-132415688D01*
X195121745Y-131928973D01*
X193638920Y-132016363D01*
X192674861Y-132415688D01*
X192297603Y-132870101D01*
X187059600Y-132870101D01*
X187059600Y-132749065D01*
X187339875Y-132633257D01*
X187741647Y-132232186D01*
X187959352Y-131707893D01*
X187959848Y-131140197D01*
X187743057Y-130615525D01*
X187341986Y-130213753D01*
X186817693Y-129996048D01*
X186249997Y-129995552D01*
X185967407Y-130112316D01*
X183189600Y-127334510D01*
X183189600Y-110350364D01*
X183271875Y-110316369D01*
X183575104Y-110013668D01*
X183739413Y-109617968D01*
X183739787Y-109189511D01*
X183576169Y-108793525D01*
X183273468Y-108490296D01*
X182877768Y-108325987D01*
X182449311Y-108325613D01*
X182053325Y-108489231D01*
X181917000Y-108625319D01*
X181917000Y-100682799D01*
X181974832Y-100706813D01*
X182403289Y-100707187D01*
X182799275Y-100543569D01*
X183102504Y-100240868D01*
X183266813Y-99845168D01*
X183267187Y-99416711D01*
X183232508Y-99332782D01*
X184512645Y-98052646D01*
X184626884Y-97881675D01*
X184626885Y-97881674D01*
X184667000Y-97680000D01*
X184667000Y-95390229D01*
X184749132Y-95472504D01*
X185144832Y-95636813D01*
X185573289Y-95637187D01*
X185969275Y-95473569D01*
X186272504Y-95170868D01*
X186436813Y-94775168D01*
X186437187Y-94346711D01*
X186273569Y-93950725D01*
X185970868Y-93647496D01*
X185887000Y-93612671D01*
X185887000Y-87422290D01*
X190923000Y-92458290D01*
X190923000Y-116172436D01*
X190840725Y-116206431D01*
X190537496Y-116509132D01*
X190373187Y-116904832D01*
X190372813Y-117333289D01*
X190536431Y-117729275D01*
X190839132Y-118032504D01*
X191234832Y-118196813D01*
X191663289Y-118197187D01*
X192059275Y-118033569D01*
X192362504Y-117730868D01*
X192526813Y-117335168D01*
X192527187Y-116906711D01*
X192363569Y-116510725D01*
X192060868Y-116207496D01*
X191977000Y-116172671D01*
X191977000Y-92240000D01*
X191936885Y-92038325D01*
X191822645Y-91867355D01*
X185552645Y-85597355D01*
X185381675Y-85483115D01*
X185180000Y-85443000D01*
X179672290Y-85443000D01*
X181062645Y-84052645D01*
X181176885Y-83881674D01*
X181217000Y-83680000D01*
X181217000Y-81077564D01*
X181299275Y-81043569D01*
X181602504Y-80740868D01*
X181766813Y-80345168D01*
X181767187Y-79916711D01*
X181603569Y-79520725D01*
X181300868Y-79217496D01*
X181217000Y-79182671D01*
X181217000Y-74409960D01*
X181329275Y-74363569D01*
X181632504Y-74060868D01*
X181796813Y-73665168D01*
X181797187Y-73236711D01*
X181633569Y-72840725D01*
X181330868Y-72537496D01*
X180935168Y-72373187D01*
X180506711Y-72372813D01*
X180110725Y-72536431D01*
X179807496Y-72839132D01*
X179643187Y-73234832D01*
X179642813Y-73663289D01*
X179806431Y-74059275D01*
X180109132Y-74362504D01*
X180163000Y-74384872D01*
X180163000Y-79182436D01*
X180080725Y-79216431D01*
X179777496Y-79519132D01*
X179613187Y-79914832D01*
X179612813Y-80343289D01*
X179776431Y-80739275D01*
X180079132Y-81042504D01*
X180163000Y-81077329D01*
X180163000Y-83461710D01*
X178791710Y-84833000D01*
X173218291Y-84833000D01*
X172037002Y-83651712D01*
X172037002Y-83513289D01*
X172202813Y-83513289D01*
X172366431Y-83909275D01*
X172669132Y-84212504D01*
X173064832Y-84376813D01*
X173493289Y-84377187D01*
X173889275Y-84213569D01*
X174192504Y-83910868D01*
X174233700Y-83811657D01*
X174286431Y-83939275D01*
X174589132Y-84242504D01*
X174984832Y-84406813D01*
X175413289Y-84407187D01*
X175809275Y-84243569D01*
X176112504Y-83940868D01*
X176113601Y-83938225D01*
X176126431Y-83969275D01*
X176429132Y-84272504D01*
X176824832Y-84436813D01*
X177253289Y-84437187D01*
X177649275Y-84273569D01*
X177952504Y-83970868D01*
X178116813Y-83575168D01*
X178117187Y-83146711D01*
X177953569Y-82750725D01*
X177650868Y-82447496D01*
X177567000Y-82412671D01*
X177567000Y-74130200D01*
X177533540Y-73961985D01*
X177526885Y-73928525D01*
X177412645Y-73757555D01*
X175051783Y-71396693D01*
X175109395Y-71257947D01*
X175109804Y-70789707D01*
X174930994Y-70356954D01*
X174600188Y-70025570D01*
X174167747Y-69846005D01*
X173699507Y-69845596D01*
X173266754Y-70024406D01*
X172935370Y-70355212D01*
X172755805Y-70787653D01*
X172755396Y-71255893D01*
X172934206Y-71688646D01*
X173265012Y-72020030D01*
X173697453Y-72199595D01*
X174165693Y-72200004D01*
X174306382Y-72141872D01*
X176513000Y-74348490D01*
X176513000Y-82412436D01*
X176430725Y-82446431D01*
X176127496Y-82749132D01*
X176126399Y-82751775D01*
X176113569Y-82720725D01*
X175907000Y-82513796D01*
X175907000Y-76670200D01*
X175866885Y-76468526D01*
X175752645Y-76297555D01*
X175051783Y-75596693D01*
X175109395Y-75457947D01*
X175109804Y-74989707D01*
X174930994Y-74556954D01*
X174600188Y-74225570D01*
X174167747Y-74046005D01*
X173699507Y-74045596D01*
X173266754Y-74224406D01*
X172935370Y-74555212D01*
X172755805Y-74987653D01*
X172755396Y-75455893D01*
X172934206Y-75888646D01*
X173265012Y-76220030D01*
X173697453Y-76399595D01*
X174165693Y-76400004D01*
X174306382Y-76341872D01*
X174853000Y-76888490D01*
X174853000Y-78678824D01*
X174600188Y-78425570D01*
X174167747Y-78246005D01*
X173699507Y-78245596D01*
X173266754Y-78424406D01*
X172935370Y-78755212D01*
X172755805Y-79187653D01*
X172755396Y-79655893D01*
X172934206Y-80088646D01*
X173265012Y-80420030D01*
X173405600Y-80478407D01*
X173405600Y-82223109D01*
X173066711Y-82222813D01*
X172670725Y-82386431D01*
X172367496Y-82689132D01*
X172203187Y-83084832D01*
X172202813Y-83513289D01*
X172037002Y-83513289D01*
X172037002Y-74310002D01*
X171996887Y-74108328D01*
X171996887Y-74108327D01*
X171882647Y-73937357D01*
X170972674Y-73027384D01*
X171006813Y-72945168D01*
X171007187Y-72516711D01*
X170843569Y-72120725D01*
X170540868Y-71817496D01*
X170145168Y-71653187D01*
X169716711Y-71652813D01*
X169320725Y-71816431D01*
X169017496Y-72119132D01*
X168853187Y-72514832D01*
X168852813Y-72943289D01*
X169016431Y-73339275D01*
X169319132Y-73642504D01*
X169714832Y-73806813D01*
X170143289Y-73807187D01*
X170227218Y-73772508D01*
X170983002Y-74528292D01*
X170983002Y-75395573D01*
X170873569Y-75130725D01*
X170570868Y-74827496D01*
X170175168Y-74663187D01*
X169746711Y-74662813D01*
X169350725Y-74826431D01*
X169047496Y-75129132D01*
X168883187Y-75524832D01*
X168882813Y-75953289D01*
X169046431Y-76349275D01*
X169349132Y-76652504D01*
X169744832Y-76816813D01*
X170173289Y-76817187D01*
X170257218Y-76782508D01*
X170383000Y-76908290D01*
X170383000Y-77356155D01*
X170343569Y-77260725D01*
X170040868Y-76957496D01*
X169645168Y-76793187D01*
X169216711Y-76792813D01*
X168820725Y-76956431D01*
X168597002Y-77179764D01*
X168597002Y-72660002D01*
X168556887Y-72458328D01*
X168442647Y-72287357D01*
X164032674Y-67877384D01*
X164066813Y-67795168D01*
X164067187Y-67366711D01*
X163903569Y-66970725D01*
X163600868Y-66667496D01*
X163205168Y-66503187D01*
X162776711Y-66502813D01*
X162380725Y-66666431D01*
X162077496Y-66969132D01*
X161913187Y-67364832D01*
X161912813Y-67793289D01*
X162008778Y-68025542D01*
X161930868Y-67947496D01*
X161535168Y-67783187D01*
X161106711Y-67782813D01*
X160710725Y-67946431D01*
X160407496Y-68249132D01*
X160243187Y-68644832D01*
X160242813Y-69073289D01*
X160389662Y-69428690D01*
X160015168Y-69273187D01*
X159586711Y-69272813D01*
X159190725Y-69436431D01*
X158887496Y-69739132D01*
X158723187Y-70134832D01*
X158722813Y-70563289D01*
X158886431Y-70959275D01*
X159019840Y-71092917D01*
X158635168Y-70933187D01*
X158206711Y-70932813D01*
X157810725Y-71096431D01*
X157507496Y-71399132D01*
X157343187Y-71794832D01*
X157342813Y-72223289D01*
X157506431Y-72619275D01*
X157809132Y-72922504D01*
X158204832Y-73086813D01*
X158633289Y-73087187D01*
X159029275Y-72923569D01*
X159332504Y-72620868D01*
X159367329Y-72537000D01*
X161580155Y-72537000D01*
X161277496Y-72839132D01*
X161113187Y-73234832D01*
X161112821Y-73654326D01*
X160845168Y-73543187D01*
X160416711Y-73542813D01*
X160020725Y-73706431D01*
X159717496Y-74009132D01*
X159553187Y-74404832D01*
X159552813Y-74833289D01*
X159716431Y-75229275D01*
X160019132Y-75532504D01*
X160414832Y-75696813D01*
X160843289Y-75697187D01*
X160927218Y-75662508D01*
X161943000Y-76678290D01*
X161943000Y-82493180D01*
X161097036Y-83339144D01*
X161097187Y-83166711D01*
X160933569Y-82770725D01*
X160630868Y-82467496D01*
X160235168Y-82303187D01*
X159806711Y-82302813D01*
X159410725Y-82466431D01*
X159107496Y-82769132D01*
X158943187Y-83164832D01*
X158942813Y-83593289D01*
X159106431Y-83989275D01*
X159320746Y-84203964D01*
X158911710Y-84613000D01*
X148838291Y-84613000D01*
X143716998Y-79491708D01*
X143716998Y-76482288D01*
X148157326Y-80922617D01*
X148123187Y-81004832D01*
X148122813Y-81433289D01*
X148286431Y-81829275D01*
X148589132Y-82132504D01*
X148984832Y-82296813D01*
X149413289Y-82297187D01*
X149809275Y-82133569D01*
X150112504Y-81830868D01*
X150276813Y-81435168D01*
X150277187Y-81006711D01*
X150113569Y-80610725D01*
X149810868Y-80307496D01*
X149415168Y-80143187D01*
X148986711Y-80142813D01*
X148902782Y-80177492D01*
X144317000Y-75591710D01*
X144317000Y-72302290D01*
X144487326Y-72472616D01*
X144453187Y-72554832D01*
X144452813Y-72983289D01*
X144616431Y-73379275D01*
X144919132Y-73682504D01*
X145314832Y-73846813D01*
X145743289Y-73847187D01*
X146139275Y-73683569D01*
X146442504Y-73380868D01*
X146503210Y-73234672D01*
X146546431Y-73339275D01*
X146849132Y-73642504D01*
X147244832Y-73806813D01*
X147673289Y-73807187D01*
X148069275Y-73643569D01*
X148372504Y-73340868D01*
X148536813Y-72945168D01*
X148536835Y-72919976D01*
X148669132Y-73052504D01*
X149064832Y-73216813D01*
X149493289Y-73217187D01*
X149889275Y-73053569D01*
X150192504Y-72750868D01*
X150356813Y-72355168D01*
X150357187Y-71926711D01*
X150322508Y-71842782D01*
X156322001Y-65843289D01*
X181562813Y-65843289D01*
X181726431Y-66239275D01*
X182029132Y-66542504D01*
X182113000Y-66577329D01*
X182113000Y-73694831D01*
X182060725Y-73716431D01*
X181757496Y-74019132D01*
X181593187Y-74414832D01*
X181592813Y-74843289D01*
X181756431Y-75239275D01*
X182059132Y-75542504D01*
X182454832Y-75706813D01*
X182883289Y-75707187D01*
X183279275Y-75543569D01*
X183582504Y-75240868D01*
X183746813Y-74845168D01*
X183747187Y-74416711D01*
X183583569Y-74020725D01*
X183280868Y-73717496D01*
X183167000Y-73670214D01*
X183167000Y-66577564D01*
X183249275Y-66543569D01*
X183552504Y-66240868D01*
X183716813Y-65845168D01*
X183717187Y-65416711D01*
X183553569Y-65020725D01*
X183250868Y-64717496D01*
X182855168Y-64553187D01*
X182426711Y-64552813D01*
X182030725Y-64716431D01*
X181727496Y-65019132D01*
X181563187Y-65414832D01*
X181562813Y-65843289D01*
X156322001Y-65843289D01*
X156898291Y-65267000D01*
X161802436Y-65267000D01*
X161836431Y-65349275D01*
X162139132Y-65652504D01*
X162534832Y-65816813D01*
X162963289Y-65817187D01*
X163359275Y-65653569D01*
X163662504Y-65350868D01*
X163826813Y-64955168D01*
X163827187Y-64526711D01*
X163663569Y-64130725D01*
X163400303Y-63867000D01*
X182701710Y-63867000D01*
X184603000Y-65768290D01*
X184603000Y-78511709D01*
X183467384Y-79647326D01*
X183385168Y-79613187D01*
X182956711Y-79612813D01*
X182560725Y-79776431D01*
X182257496Y-80079132D01*
X182093187Y-80474832D01*
X182092813Y-80903289D01*
X182256431Y-81299275D01*
X182559132Y-81602504D01*
X182954832Y-81766813D01*
X183383289Y-81767187D01*
X183779275Y-81603569D01*
X184082504Y-81300868D01*
X184246813Y-80905168D01*
X184247187Y-80476711D01*
X184212508Y-80392782D01*
X185502646Y-79102645D01*
X185616885Y-78931674D01*
X185657000Y-78730000D01*
X185657000Y-65932290D01*
X188453000Y-68728290D01*
X188453000Y-77922436D01*
X188370725Y-77956431D01*
X188067496Y-78259132D01*
X187903187Y-78654832D01*
X187902813Y-79083289D01*
X188066431Y-79479275D01*
X188369132Y-79782504D01*
X188764832Y-79946813D01*
X189193289Y-79947187D01*
X189589275Y-79783569D01*
X189892504Y-79480868D01*
X190056813Y-79085168D01*
X190057187Y-78656711D01*
X189893569Y-78260725D01*
X189590868Y-77957496D01*
X189507000Y-77922671D01*
X189507000Y-68510000D01*
X189466885Y-68308326D01*
X189466885Y-68308325D01*
X189352645Y-68137355D01*
X183812288Y-62596998D01*
X183940002Y-62596998D01*
X184141677Y-62556883D01*
X184312647Y-62442643D01*
X185782645Y-60972645D01*
X185896885Y-60801675D01*
X185937000Y-60600000D01*
X185937000Y-52327564D01*
X186019275Y-52293569D01*
X186322504Y-51990868D01*
X186486813Y-51595168D01*
X186487187Y-51166711D01*
X186323569Y-50770725D01*
X186020868Y-50467496D01*
X185625168Y-50303187D01*
X185196711Y-50302813D01*
X184800725Y-50466431D01*
X184497496Y-50769132D01*
X184333187Y-51164832D01*
X184332813Y-51593289D01*
X184496431Y-51989275D01*
X184799132Y-52292504D01*
X184883000Y-52327329D01*
X184883000Y-60381710D01*
X184800188Y-60464522D01*
X184817000Y-60380000D01*
X184817000Y-52640000D01*
X184776885Y-52438326D01*
X184776885Y-52438325D01*
X184662645Y-52267355D01*
X184132674Y-51737384D01*
X184166813Y-51655168D01*
X184167187Y-51226711D01*
X184003569Y-50830725D01*
X183700868Y-50527496D01*
X183305168Y-50363187D01*
X182876711Y-50362813D01*
X182480725Y-50526431D01*
X182177496Y-50829132D01*
X182013187Y-51224832D01*
X182012813Y-51653289D01*
X182176431Y-52049275D01*
X182479132Y-52352504D01*
X182874832Y-52516813D01*
X183303289Y-52517187D01*
X183387218Y-52482508D01*
X183763000Y-52858290D01*
X183763000Y-60161710D01*
X183021710Y-60903000D01*
X174082290Y-60903000D01*
X177782617Y-57202674D01*
X177864832Y-57236813D01*
X178293289Y-57237187D01*
X178689275Y-57073569D01*
X178992504Y-56770868D01*
X179156813Y-56375168D01*
X179157187Y-55946711D01*
X178993569Y-55550725D01*
X178690868Y-55247496D01*
X178295168Y-55083187D01*
X177866711Y-55082813D01*
X177470725Y-55246431D01*
X177167496Y-55549132D01*
X177003187Y-55944832D01*
X177002813Y-56373289D01*
X177037492Y-56457218D01*
X173191712Y-60302998D01*
X171488051Y-60302998D01*
X171559275Y-60273569D01*
X171862504Y-59970868D01*
X172026813Y-59575168D01*
X172027187Y-59146711D01*
X171863569Y-58750725D01*
X171560868Y-58447496D01*
X171438311Y-58396606D01*
X171639275Y-58313569D01*
X171942504Y-58010868D01*
X172106813Y-57615168D01*
X172107187Y-57186711D01*
X171943569Y-56790725D01*
X171640868Y-56487496D01*
X171245168Y-56323187D01*
X170816711Y-56322813D01*
X170732782Y-56357492D01*
X165742645Y-51367355D01*
X165571675Y-51253115D01*
X165370000Y-51213000D01*
X147667564Y-51213000D01*
X147633569Y-51130725D01*
X147330868Y-50827496D01*
X146935168Y-50663187D01*
X146506711Y-50662813D01*
X146110725Y-50826431D01*
X145807496Y-51129132D01*
X145643187Y-51524832D01*
X145642813Y-51953289D01*
X145806431Y-52349275D01*
X146109132Y-52652504D01*
X146504832Y-52816813D01*
X146933289Y-52817187D01*
X147329275Y-52653569D01*
X147632504Y-52350868D01*
X147667329Y-52267000D01*
X147909771Y-52267000D01*
X147827496Y-52349132D01*
X147663187Y-52744832D01*
X147662813Y-53173289D01*
X147826431Y-53569275D01*
X148129132Y-53872504D01*
X148524832Y-54036813D01*
X148953289Y-54037187D01*
X149349275Y-53873569D01*
X149652504Y-53570868D01*
X149687329Y-53487000D01*
X164331710Y-53487000D01*
X169907326Y-59062616D01*
X169873187Y-59144832D01*
X169872813Y-59573289D01*
X170036431Y-59969275D01*
X170339132Y-60272504D01*
X170412570Y-60302998D01*
X151522293Y-60302998D01*
X153858291Y-57967000D01*
X159942436Y-57967000D01*
X159976431Y-58049275D01*
X160279132Y-58352504D01*
X160674832Y-58516813D01*
X161103289Y-58517187D01*
X161499275Y-58353569D01*
X161802504Y-58050868D01*
X161966813Y-57655168D01*
X161967187Y-57226711D01*
X161803569Y-56830725D01*
X161500868Y-56527496D01*
X161105168Y-56363187D01*
X160676711Y-56362813D01*
X160280725Y-56526431D01*
X159977496Y-56829132D01*
X159942671Y-56913000D01*
X153640000Y-56913000D01*
X153438326Y-56953115D01*
X153267355Y-57067354D01*
X142817353Y-67517357D01*
X142703113Y-67688327D01*
X142682235Y-67793289D01*
X142662998Y-67890002D01*
X142662998Y-79709998D01*
X142703113Y-79911673D01*
X142817353Y-80082643D01*
X148067709Y-85333000D01*
X125940000Y-85333000D01*
X125738325Y-85373115D01*
X125567355Y-85487355D01*
X117747355Y-93307355D01*
X117633115Y-93478325D01*
X117633115Y-93478326D01*
X117593000Y-93680000D01*
X117593000Y-95832436D01*
X117510725Y-95866431D01*
X117207496Y-96169132D01*
X117043187Y-96564832D01*
X117042813Y-96993289D01*
X107587401Y-96993289D01*
X112985216Y-91595474D01*
X113067432Y-91629613D01*
X113495889Y-91629987D01*
X113891875Y-91466369D01*
X114195104Y-91163668D01*
X114359413Y-90767968D01*
X114359787Y-90339511D01*
X114196169Y-89943525D01*
X113893468Y-89640296D01*
X113497768Y-89475987D01*
X113069311Y-89475613D01*
X112673325Y-89639231D01*
X112370096Y-89941932D01*
X112205787Y-90337632D01*
X112205413Y-90766089D01*
X112240092Y-90850018D01*
X104959955Y-98130155D01*
X104845715Y-98301125D01*
X104845715Y-98301126D01*
X104805600Y-98502800D01*
X104805600Y-130096535D01*
X104525325Y-130212343D01*
X104123553Y-130613414D01*
X103905848Y-131137707D01*
X103905352Y-131705403D01*
X91634600Y-131705403D01*
X91634600Y-82027672D01*
X114090230Y-82027672D01*
X114173811Y-82238910D01*
X114717346Y-82329225D01*
X115171389Y-82238910D01*
X115254970Y-82027672D01*
X114672600Y-81445302D01*
X114090230Y-82027672D01*
X91634600Y-82027672D01*
X91634600Y-81131089D01*
X108515413Y-81131089D01*
X108679031Y-81527075D01*
X108981732Y-81830304D01*
X109377432Y-81994613D01*
X109805889Y-81994987D01*
X110201875Y-81831369D01*
X110505104Y-81528668D01*
X110669413Y-81132968D01*
X110669414Y-81131089D01*
X111055413Y-81131089D01*
X111219031Y-81527075D01*
X111521732Y-81830304D01*
X111917432Y-81994613D01*
X112345889Y-81994987D01*
X112741875Y-81831369D01*
X113045104Y-81528668D01*
X113209413Y-81132968D01*
X113209561Y-80962546D01*
X113261175Y-80962546D01*
X113351490Y-81416589D01*
X113562728Y-81500170D01*
X114145098Y-80917800D01*
X115200102Y-80917800D01*
X115782472Y-81500170D01*
X115993710Y-81416589D01*
X116084025Y-80873054D01*
X115993710Y-80419011D01*
X115782472Y-80335430D01*
X115200102Y-80917800D01*
X114145098Y-80917800D01*
X113562728Y-80335430D01*
X113351490Y-80419011D01*
X113261175Y-80962546D01*
X113209561Y-80962546D01*
X113209787Y-80704511D01*
X113046169Y-80308525D01*
X112743468Y-80005296D01*
X112347768Y-79840987D01*
X111919311Y-79840613D01*
X111523325Y-80004231D01*
X111220096Y-80306932D01*
X111055787Y-80702632D01*
X111055413Y-81131089D01*
X110669414Y-81131089D01*
X110669787Y-80704511D01*
X110506169Y-80308525D01*
X110203468Y-80005296D01*
X109807768Y-79840987D01*
X109379311Y-79840613D01*
X108983325Y-80004231D01*
X108680096Y-80306932D01*
X108515787Y-80702632D01*
X108515413Y-81131089D01*
X91634600Y-81131089D01*
X91634600Y-79807928D01*
X114090230Y-79807928D01*
X114672600Y-80390298D01*
X115254970Y-79807928D01*
X115171389Y-79596690D01*
X114627854Y-79506375D01*
X114173811Y-79596690D01*
X114090230Y-79807928D01*
X91634600Y-79807928D01*
X91634600Y-76877784D01*
X103251818Y-76877784D01*
X103497837Y-77221168D01*
X104513198Y-77528999D01*
X105569071Y-77424835D01*
X106060763Y-77221168D01*
X106306782Y-76877784D01*
X117958418Y-76877784D01*
X118204437Y-77221168D01*
X119219798Y-77528999D01*
X120275671Y-77424835D01*
X120767363Y-77221168D01*
X121013382Y-76877784D01*
X119485900Y-75350302D01*
X117958418Y-76877784D01*
X106306782Y-76877784D01*
X104779300Y-75350302D01*
X103251818Y-76877784D01*
X91634600Y-76877784D01*
X91634600Y-74556698D01*
X102073101Y-74556698D01*
X102177265Y-75612571D01*
X102380932Y-76104263D01*
X102724316Y-76350282D01*
X104251798Y-74822800D01*
X105306802Y-74822800D01*
X106834284Y-76350282D01*
X107177668Y-76104263D01*
X107485499Y-75088902D01*
X107432997Y-74556698D01*
X116779701Y-74556698D01*
X116883865Y-75612571D01*
X117087532Y-76104263D01*
X117430916Y-76350282D01*
X118958398Y-74822800D01*
X120013402Y-74822800D01*
X121540884Y-76350282D01*
X121884268Y-76104263D01*
X122192099Y-75088902D01*
X122087935Y-74033029D01*
X121884268Y-73541337D01*
X121540884Y-73295318D01*
X120013402Y-74822800D01*
X118958398Y-74822800D01*
X117430916Y-73295318D01*
X117087532Y-73541337D01*
X116779701Y-74556698D01*
X107432997Y-74556698D01*
X107381335Y-74033029D01*
X107177668Y-73541337D01*
X106834284Y-73295318D01*
X105306802Y-74822800D01*
X104251798Y-74822800D01*
X102724316Y-73295318D01*
X102380932Y-73541337D01*
X102073101Y-74556698D01*
X91634600Y-74556698D01*
X91634600Y-72767816D01*
X103251818Y-72767816D01*
X104779300Y-74295298D01*
X106306782Y-72767816D01*
X117958418Y-72767816D01*
X119485900Y-74295298D01*
X121013382Y-72767816D01*
X120767363Y-72424432D01*
X119752002Y-72116601D01*
X118696129Y-72220765D01*
X118204437Y-72424432D01*
X117958418Y-72767816D01*
X106306782Y-72767816D01*
X106060763Y-72424432D01*
X105045402Y-72116601D01*
X103989529Y-72220765D01*
X103497837Y-72424432D01*
X103251818Y-72767816D01*
X91634600Y-72767816D01*
X91634600Y-68941089D01*
X108515413Y-68941089D01*
X108679031Y-69337075D01*
X108981732Y-69640304D01*
X109377432Y-69804613D01*
X109805889Y-69804987D01*
X110201875Y-69641369D01*
X110505104Y-69338668D01*
X110669413Y-68942968D01*
X110669414Y-68941089D01*
X111055413Y-68941089D01*
X111219031Y-69337075D01*
X111521732Y-69640304D01*
X111917432Y-69804613D01*
X112345889Y-69804987D01*
X112741875Y-69641369D01*
X113045104Y-69338668D01*
X113209413Y-68942968D01*
X113209414Y-68941089D01*
X113595413Y-68941089D01*
X113759031Y-69337075D01*
X114061732Y-69640304D01*
X114457432Y-69804613D01*
X114885889Y-69804987D01*
X115281875Y-69641369D01*
X115585104Y-69338668D01*
X115749413Y-68942968D01*
X115749787Y-68514511D01*
X115586169Y-68118525D01*
X115283468Y-67815296D01*
X114887768Y-67650987D01*
X114459311Y-67650613D01*
X114063325Y-67814231D01*
X113760096Y-68116932D01*
X113595787Y-68512632D01*
X113595413Y-68941089D01*
X113209414Y-68941089D01*
X113209787Y-68514511D01*
X113046169Y-68118525D01*
X112743468Y-67815296D01*
X112347768Y-67650987D01*
X111919311Y-67650613D01*
X111523325Y-67814231D01*
X111220096Y-68116932D01*
X111055787Y-68512632D01*
X111055413Y-68941089D01*
X110669414Y-68941089D01*
X110669787Y-68514511D01*
X110506169Y-68118525D01*
X110203468Y-67815296D01*
X109807768Y-67650987D01*
X109379311Y-67650613D01*
X108983325Y-67814231D01*
X108680096Y-68116932D01*
X108515787Y-68512632D01*
X108515413Y-68941089D01*
X91634600Y-68941089D01*
X91634600Y-44252699D01*
X94930203Y-44252699D01*
X95307461Y-44707112D01*
X96710855Y-45193827D01*
X98193680Y-45106437D01*
X99157739Y-44707112D01*
X99534997Y-44252699D01*
X97232600Y-41950302D01*
X94930203Y-44252699D01*
X91634600Y-44252699D01*
X91634600Y-40901055D01*
X93461573Y-40901055D01*
X93548963Y-42383880D01*
X93948288Y-43347939D01*
X94402701Y-43725197D01*
X96705098Y-41422800D01*
X97760102Y-41422800D01*
X100062499Y-43725197D01*
X100516912Y-43347939D01*
X101003627Y-41944545D01*
X100942386Y-40905403D01*
X103905352Y-40905403D01*
X104122143Y-41430075D01*
X104523214Y-41831847D01*
X104805600Y-41949104D01*
X104805600Y-44376535D01*
X104525325Y-44492343D01*
X104123553Y-44893414D01*
X103905848Y-45417707D01*
X103905352Y-45985403D01*
X104122143Y-46510075D01*
X104523214Y-46911847D01*
X105047507Y-47129552D01*
X105615203Y-47130048D01*
X106139875Y-46913257D01*
X106541647Y-46512186D01*
X106759352Y-45987893D01*
X106759848Y-45420197D01*
X106543057Y-44895525D01*
X106141986Y-44493753D01*
X105859600Y-44376496D01*
X105859600Y-41949065D01*
X106139875Y-41833257D01*
X106541647Y-41432186D01*
X106658904Y-41149800D01*
X115606335Y-41149800D01*
X115722143Y-41430075D01*
X116123214Y-41831847D01*
X116405600Y-41949104D01*
X116405600Y-44376535D01*
X116125325Y-44492343D01*
X115723553Y-44893414D01*
X115505848Y-45417707D01*
X115505352Y-45985403D01*
X115722143Y-46510075D01*
X116123214Y-46911847D01*
X116647507Y-47129552D01*
X117215203Y-47130048D01*
X117350379Y-47074194D01*
X127688708Y-47074194D01*
X127817953Y-47321012D01*
X128491615Y-47471316D01*
X129171516Y-47352380D01*
X129247247Y-47321012D01*
X129376492Y-47074194D01*
X139288708Y-47074194D01*
X139417953Y-47321012D01*
X140091615Y-47471316D01*
X140771516Y-47352380D01*
X140847247Y-47321012D01*
X140976492Y-47074194D01*
X140132600Y-46230302D01*
X139288708Y-47074194D01*
X129376492Y-47074194D01*
X128532600Y-46230302D01*
X127688708Y-47074194D01*
X117350379Y-47074194D01*
X117739875Y-46913257D01*
X118141647Y-46512186D01*
X118359352Y-45987893D01*
X118359636Y-45661815D01*
X126764084Y-45661815D01*
X126883020Y-46341716D01*
X126914388Y-46417447D01*
X127161206Y-46546692D01*
X128005098Y-45702800D01*
X129060102Y-45702800D01*
X129903994Y-46546692D01*
X130150812Y-46417447D01*
X130301116Y-45743785D01*
X130286777Y-45661815D01*
X138364084Y-45661815D01*
X138483020Y-46341716D01*
X138514388Y-46417447D01*
X138761206Y-46546692D01*
X139605098Y-45702800D01*
X140660102Y-45702800D01*
X141503994Y-46546692D01*
X141750812Y-46417447D01*
X141901116Y-45743785D01*
X141782180Y-45063884D01*
X141750812Y-44988153D01*
X141503994Y-44858908D01*
X140660102Y-45702800D01*
X139605098Y-45702800D01*
X138761206Y-44858908D01*
X138514388Y-44988153D01*
X138364084Y-45661815D01*
X130286777Y-45661815D01*
X130182180Y-45063884D01*
X130150812Y-44988153D01*
X129903994Y-44858908D01*
X129060102Y-45702800D01*
X128005098Y-45702800D01*
X127161206Y-44858908D01*
X126914388Y-44988153D01*
X126764084Y-45661815D01*
X118359636Y-45661815D01*
X118359848Y-45420197D01*
X118143057Y-44895525D01*
X117741986Y-44493753D01*
X117459600Y-44376496D01*
X117459600Y-44331406D01*
X127688708Y-44331406D01*
X128532600Y-45175298D01*
X129376492Y-44331406D01*
X139288708Y-44331406D01*
X140132600Y-45175298D01*
X140976492Y-44331406D01*
X140847247Y-44084588D01*
X140173585Y-43934284D01*
X139493684Y-44053220D01*
X139417953Y-44084588D01*
X139288708Y-44331406D01*
X129376492Y-44331406D01*
X129247247Y-44084588D01*
X128573585Y-43934284D01*
X127893684Y-44053220D01*
X127817953Y-44084588D01*
X127688708Y-44331406D01*
X117459600Y-44331406D01*
X117459600Y-41994194D01*
X127688708Y-41994194D01*
X127817953Y-42241012D01*
X128491615Y-42391316D01*
X129171516Y-42272380D01*
X129247247Y-42241012D01*
X129376492Y-41994194D01*
X139288708Y-41994194D01*
X139417953Y-42241012D01*
X140091615Y-42391316D01*
X140771516Y-42272380D01*
X140847247Y-42241012D01*
X140976492Y-41994194D01*
X140132600Y-41150302D01*
X139288708Y-41994194D01*
X129376492Y-41994194D01*
X128532600Y-41150302D01*
X127688708Y-41994194D01*
X117459600Y-41994194D01*
X117459600Y-41949065D01*
X117739875Y-41833257D01*
X118141647Y-41432186D01*
X118359352Y-40907893D01*
X118359636Y-40581815D01*
X126764084Y-40581815D01*
X126883020Y-41261716D01*
X126914388Y-41337447D01*
X127161206Y-41466692D01*
X128005098Y-40622800D01*
X129060102Y-40622800D01*
X129903994Y-41466692D01*
X130150812Y-41337447D01*
X130301116Y-40663785D01*
X130286777Y-40581815D01*
X138364084Y-40581815D01*
X138483020Y-41261716D01*
X138514388Y-41337447D01*
X138761206Y-41466692D01*
X139605098Y-40622800D01*
X140660102Y-40622800D01*
X141503994Y-41466692D01*
X141750812Y-41337447D01*
X141847207Y-40905403D01*
X150305352Y-40905403D01*
X150522143Y-41430075D01*
X150923214Y-41831847D01*
X151205600Y-41949104D01*
X151205600Y-44376535D01*
X150925325Y-44492343D01*
X150523553Y-44893414D01*
X150305848Y-45417707D01*
X150305352Y-45985403D01*
X150522143Y-46510075D01*
X150923214Y-46911847D01*
X151447507Y-47129552D01*
X152015203Y-47130048D01*
X152539875Y-46913257D01*
X152941647Y-46512186D01*
X153159352Y-45987893D01*
X153159848Y-45420197D01*
X152943057Y-44895525D01*
X152541986Y-44493753D01*
X152259600Y-44376496D01*
X152259600Y-41949065D01*
X152539875Y-41833257D01*
X152941647Y-41432186D01*
X153058904Y-41149800D01*
X162006335Y-41149800D01*
X162122143Y-41430075D01*
X162523214Y-41831847D01*
X162805600Y-41949104D01*
X162805600Y-44376535D01*
X162525325Y-44492343D01*
X162123553Y-44893414D01*
X161905848Y-45417707D01*
X161905352Y-45985403D01*
X162122143Y-46510075D01*
X162523214Y-46911847D01*
X163047507Y-47129552D01*
X163615203Y-47130048D01*
X164139875Y-46913257D01*
X164541647Y-46512186D01*
X164759352Y-45987893D01*
X164759848Y-45420197D01*
X164543057Y-44895525D01*
X164141986Y-44493753D01*
X163859600Y-44376496D01*
X163859600Y-41949065D01*
X164139875Y-41833257D01*
X164541647Y-41432186D01*
X164759352Y-40907893D01*
X164759354Y-40905403D01*
X173505352Y-40905403D01*
X173722143Y-41430075D01*
X174123214Y-41831847D01*
X174405600Y-41949104D01*
X174405600Y-44376535D01*
X174125325Y-44492343D01*
X173723553Y-44893414D01*
X173505848Y-45417707D01*
X173505352Y-45985403D01*
X173722143Y-46510075D01*
X174123214Y-46911847D01*
X174647507Y-47129552D01*
X175215203Y-47130048D01*
X175739875Y-46913257D01*
X176141647Y-46512186D01*
X176359352Y-45987893D01*
X176359848Y-45420197D01*
X176143057Y-44895525D01*
X175741986Y-44493753D01*
X175459600Y-44376496D01*
X175459600Y-41949065D01*
X175739875Y-41833257D01*
X176141647Y-41432186D01*
X176258904Y-41149800D01*
X185206335Y-41149800D01*
X185322143Y-41430075D01*
X185723214Y-41831847D01*
X186005600Y-41949104D01*
X186005600Y-44376535D01*
X185725325Y-44492343D01*
X185323553Y-44893414D01*
X185105848Y-45417707D01*
X185105352Y-45985403D01*
X185322143Y-46510075D01*
X185723214Y-46911847D01*
X186247507Y-47129552D01*
X186815203Y-47130048D01*
X187339875Y-46913257D01*
X187741647Y-46512186D01*
X187959352Y-45987893D01*
X187959848Y-45420197D01*
X187743057Y-44895525D01*
X187341986Y-44493753D01*
X187059600Y-44376496D01*
X187059600Y-44252699D01*
X192297603Y-44252699D01*
X192674861Y-44707112D01*
X194078255Y-45193827D01*
X195561080Y-45106437D01*
X196525139Y-44707112D01*
X196902397Y-44252699D01*
X194600000Y-41950302D01*
X192297603Y-44252699D01*
X187059600Y-44252699D01*
X187059600Y-41949065D01*
X187339875Y-41833257D01*
X187741647Y-41432186D01*
X187959352Y-40907893D01*
X187959357Y-40901055D01*
X190828973Y-40901055D01*
X190916363Y-42383880D01*
X191315688Y-43347939D01*
X191770101Y-43725197D01*
X194072498Y-41422800D01*
X195127502Y-41422800D01*
X197429899Y-43725197D01*
X197884312Y-43347939D01*
X198371027Y-41944545D01*
X198283637Y-40461720D01*
X197884312Y-39497661D01*
X197429899Y-39120403D01*
X195127502Y-41422800D01*
X194072498Y-41422800D01*
X191770101Y-39120403D01*
X191315688Y-39497661D01*
X190828973Y-40901055D01*
X187959357Y-40901055D01*
X187959848Y-40340197D01*
X187743057Y-39815525D01*
X187341986Y-39413753D01*
X186817693Y-39196048D01*
X186249997Y-39195552D01*
X185725325Y-39412343D01*
X185323553Y-39813414D01*
X185206296Y-40095800D01*
X176258865Y-40095800D01*
X176143057Y-39815525D01*
X175741986Y-39413753D01*
X175217693Y-39196048D01*
X174649997Y-39195552D01*
X174125325Y-39412343D01*
X173723553Y-39813414D01*
X173505848Y-40337707D01*
X173505352Y-40905403D01*
X164759354Y-40905403D01*
X164759848Y-40340197D01*
X164543057Y-39815525D01*
X164141986Y-39413753D01*
X163617693Y-39196048D01*
X163049997Y-39195552D01*
X162525325Y-39412343D01*
X162123553Y-39813414D01*
X162006296Y-40095800D01*
X153058865Y-40095800D01*
X152943057Y-39815525D01*
X152541986Y-39413753D01*
X152017693Y-39196048D01*
X151449997Y-39195552D01*
X150925325Y-39412343D01*
X150523553Y-39813414D01*
X150305848Y-40337707D01*
X150305352Y-40905403D01*
X141847207Y-40905403D01*
X141901116Y-40663785D01*
X141782180Y-39983884D01*
X141750812Y-39908153D01*
X141503994Y-39778908D01*
X140660102Y-40622800D01*
X139605098Y-40622800D01*
X138761206Y-39778908D01*
X138514388Y-39908153D01*
X138364084Y-40581815D01*
X130286777Y-40581815D01*
X130182180Y-39983884D01*
X130150812Y-39908153D01*
X129903994Y-39778908D01*
X129060102Y-40622800D01*
X128005098Y-40622800D01*
X127161206Y-39778908D01*
X126914388Y-39908153D01*
X126764084Y-40581815D01*
X118359636Y-40581815D01*
X118359848Y-40340197D01*
X118143057Y-39815525D01*
X117741986Y-39413753D01*
X117351011Y-39251406D01*
X127688708Y-39251406D01*
X128532600Y-40095298D01*
X129376492Y-39251406D01*
X139288708Y-39251406D01*
X140132600Y-40095298D01*
X140976492Y-39251406D01*
X140847247Y-39004588D01*
X140173585Y-38854284D01*
X139493684Y-38973220D01*
X139417953Y-39004588D01*
X139288708Y-39251406D01*
X129376492Y-39251406D01*
X129247247Y-39004588D01*
X128573585Y-38854284D01*
X127893684Y-38973220D01*
X127817953Y-39004588D01*
X127688708Y-39251406D01*
X117351011Y-39251406D01*
X117217693Y-39196048D01*
X116649997Y-39195552D01*
X116125325Y-39412343D01*
X115723553Y-39813414D01*
X115606296Y-40095800D01*
X106658865Y-40095800D01*
X106543057Y-39815525D01*
X106141986Y-39413753D01*
X105617693Y-39196048D01*
X105049997Y-39195552D01*
X104525325Y-39412343D01*
X104123553Y-39813414D01*
X103905848Y-40337707D01*
X103905352Y-40905403D01*
X100942386Y-40905403D01*
X100916237Y-40461720D01*
X100516912Y-39497661D01*
X100062499Y-39120403D01*
X97760102Y-41422800D01*
X96705098Y-41422800D01*
X94402701Y-39120403D01*
X93948288Y-39497661D01*
X93461573Y-40901055D01*
X91634600Y-40901055D01*
X91634600Y-38592901D01*
X94930203Y-38592901D01*
X97232600Y-40895298D01*
X99534997Y-38592901D01*
X192297603Y-38592901D01*
X194600000Y-40895298D01*
X196902397Y-38592901D01*
X196525139Y-38138488D01*
X195121745Y-37651773D01*
X193638920Y-37739163D01*
X192674861Y-38138488D01*
X192297603Y-38592901D01*
X99534997Y-38592901D01*
X99157739Y-38138488D01*
X97754345Y-37651773D01*
X96271520Y-37739163D01*
X95307461Y-38138488D01*
X94930203Y-38592901D01*
X91634600Y-38592901D01*
X91634600Y-35824800D01*
X200230600Y-35824800D01*
X200230600Y-141328000D01*
M02*
